<?xml version="1.0" encoding="utf-8"?>
<!-- Generator: Adobe Illustrator 21.0.2, SVG Export Plug-In . SVG Version: 6.00 Build 0)  -->
<svg version="1.1" id="Layer_1" xmlns="http://www.w3.org/2000/svg" xmlns:xlink="http://www.w3.org/1999/xlink" x="0px" y="0px"
	 width="576px" height="708px" viewBox="0 0 576 708" style="enable-background:new 0 0 576 708;" xml:space="preserve">
<style type="text/css">
	.st0{display:none;}
	.st1{display:inline;fill:#E7E9EF;}
	.st2{display:inline;fill:#8C9BB8;}
	.st3{display:inline;fill:#E8E9EF;}
	.st4{display:inline;}
	.st5{fill:#E7E9EF;}
	.st6{fill:#8C9BB8;}
</style>
<g class="st0">
	<path class="st1" d="M216.9,520c0,0,248.4-60.7,303.3-251C520.2,269.2,567.8,575.7,216.9,520z"/>
	<path class="st2" d="M542,295.4c0-140-114-254-254-254s-254,114-254,254c0,106.4,66.3,201.5,166.1,238.3v44.9
		c0,23.5,16.8,43.7,39.9,48c4.9,26.5,30.5,44,57,39.1c19.9-3.7,35.4-19.2,39.1-39.1c23.1-4.4,39.8-24.5,39.9-48v-44.9
		C475.7,497,542,401.8,542,295.4z M288,647c-12.4,0-23.5-7.9-27.6-19.6h55.3C311.5,639.2,300.4,647,288,647z M363,517.6
		c-1.5,0.5-2.9,1.3-3.9,2.5h-12.5c-5.4,0-9.8,4.4-9.8,9.8c0,5.4,4.4,9.8,9.8,9.8l0,0h9.8v39.1c0,16.2-13.1,29.3-29.3,29.3H327h-78
		c-16.2,0.1-29.3-13-29.4-29.2v-0.1v-39.1h87.9c5.4,0,9.8-4.4,9.8-9.8c0-5.4-4.4-9.8-9.8-9.8H217c-1.1-1.1-2.4-2-3.9-2.5
		C117.7,485.4,53.5,396,53.6,295.4C53.6,166.1,158.7,61,288,61s234.4,105.1,234.4,234.4C522.5,396,458.3,485.4,363,517.6z"/>
	<path class="st2" d="M490.7,223.8c-21.7-61.2-69.8-109.3-131-131c-5.1-1.8-10.7,0.9-12.5,6s0.9,10.7,6,12.5l0,0
		c55.6,19.7,99.4,63.5,119.1,119.1c1.4,3.9,5.1,6.5,9.2,6.5c1.1,0,2.2-0.2,3.2-0.6C489.8,234.5,492.5,229,490.7,223.8
		C490.6,223.9,490.6,223.8,490.7,223.8L490.7,223.8z"/>
	<path class="st3" d="M260.4,627.5h55.3c0,0-7,23.1-32,20.1C283.7,647.7,267.6,646,260.4,627.5z"/>
	<g class="st4">
		<path class="st5" d="M252.9,366.1c0-0.4,0-0.7,0-1.1c0-46.8,0-93.5,0-140.3c0-1.5,0.2-2.9,0.6-4.3c0.4-1.1,0.4-1.1-0.9-1.1H224
			c-5,0-9.5-3.2-11.1-7.9c-2.2-6.2,0.9-12.9,7.1-15.2c1.3-0.5,2.6-0.7,4-0.7h28.3c0.8,0,1-0.2,1-1c0-7.4,0.1-14.9-0.1-22.3
			c-0.2-6.1,4.2-11.5,10.3-12.3h2.8c1.2,0.2,2.5,0.5,3.7,0.9l2,1.2c3.2,2.2,5.1,5.9,5.1,9.8c0,7.6,0,15.2,0,22.9
			c0,0.4-0.2,0.8,0.6,0.8h9.5c0.8,0.1,1.1-0.2,1.1-1c0-7.4,0-14.9,0-22.3c-0.2-4.5,2.2-8.8,6.2-10.9c1.3-0.7,2.8-1.1,4.2-1.4h2.5
			c1.2,0.2,2.4,0.5,3.6,0.9c1.7,0.8,3.3,1.9,4.5,3.4c2,2.5,2.9,5.6,2.8,8.8c0,7.3,0,14.5,0,21.9c0,0.6,0.1,0.8,0.8,0.9l3.9,0.3
			c9.7,1.2,18.9,5.1,26.5,11.2c2.1,1.6,4,3.4,5.7,5.3c-0.9-0.2-1.3-1-1.8-1.6c-0.6-0.6-0.9-0.6-1.5,0l-15.2,15.2l-0.7,0.6l-0.4-0.2
			c-5.5-4.8-12.6-7.4-19.9-7.3h-32.4c-0.7,0-0.6,0.4-0.4,0.7c0.6,1.7,0.8,3.5,0.7,5.3c0,17.9,0,35.7,0,53.5
			c-0.3,0.1-0.6,0.4-0.8,0.6L254.5,302c-0.5,0.5-0.8,1.1-0.7,1.8c0,20.4,0,40.9,0,61.4C253.7,365.9,253.7,366.3,252.9,366.1z"/>
		<path class="st5" d="M222.8,390c-1.5-0.3-3-0.9-4.3-1.7c-3.2-1.9-5.2-5.2-5.6-8.9c-0.3-2.8,0.4-5.7,2-8c1.7-2.6,4.4-4.3,7.4-4.9
			l0.3-0.2c0.8-0.1,1.5-0.2,2.3-0.2h27.9c0.8,0.2,0.8-0.4,0.8-1c0-20.4,0-40.9,0-61.4c0-0.7,0.2-1.4,0.7-1.8l22.3-22.3
			c0.2-0.3,0.5-0.5,0.8-0.6c0,1.5,0.1,2.8,0.1,4.3c0,27.1,0,54.2,0,81.4c0,0.2,0,0.5,0,0.6c0,0.2,0.1,0.5,0.5,0.5
			c2.8-0.1,5.6,0.1,8.4-0.1h23.3c1.8,0,3.5-0.1,5.2-0.4c7.1-1.1,13.6-4.9,18.1-10.5c5.9-7.2,7.5-15.5,6.3-24.5
			c-0.8-6.7-4.1-13-9.1-17.5c-5.3-5-12.3-7.8-19.6-7.9c-2.6,0.1-5.3-0.7-7.4-2.2c-3.7-2.8-5.2-6.4-5-10.9c0.1-5.3,3.7-9.8,8.8-11.2
			c1.9-0.6,3.9-0.4,5.7-0.6c5.2-0.4,10.1-2.2,14.3-5.2c10.3-7.4,13.9-17.7,12.3-30c-0.8-6.8-4.2-13.1-9.4-17.6
			c-0.2-0.2-0.4-0.3-0.4-0.6l0.7-0.6l15.2-15.2c0.6-0.6,0.9-0.6,1.5,0s0.9,1.4,1.8,1.6l0,0c0,0.1,0.1,0.2,0.2,0.2l0,0l0,0l0.2,0.2
			l0,0l0.2,0.2l0,0l0.2,0.2l0.3,0.3c0,0.2,0,0.3,0.3,0.3l0,0c0,0.1,0,0.2,0.2,0.2l0,0c0,0.1,0.1,0.2,0.2,0.2l0,0l0,0l0.2,0.2l0,0
			l0.2,0.2l0,0l0.2,0.2l0,0c0,0.2,0,0.3,0.3,0.3l0,0c0,0.1,0,0.2,0.2,0.2l0,0c0,0.1,0.1,0.2,0.2,0.2l0,0c3,3.8,5.5,8.1,7.3,12.6
			c2.3,5.1,3.7,10.5,4.2,16.1c1.5,15.8-2.6,29.9-12.9,42.1c-1.9,2.3-4.1,4.3-6.4,6.2c-0.6,0.4-0.6,0.6,0,1.1
			c9.3,7.5,15.8,18,18.4,29.8c1.3,5.8,1.6,11.8,1.1,17.7c-2.1,26.7-23.8,47.7-50.6,49c-0.6,0-0.8,0.2-0.8,0.8c0,8.6,0,17.3,0,25.9
			c0,5.3-2.3,9.3-7.2,11.6h-0.1c-1.7,0.6-3.6,0.9-5.4,0.8c-5.2-0.3-9.7-4-10.9-9.1c-0.2-1-0.3-2.1-0.3-3.1c0-8.4,0-17,0-25.4
			c0-0.7-0.2-1-0.9-0.9h-9.1c-0.6,0-0.6,0.4-0.6,0.7c0,3.5,0,6.9,0,10.4c0,5.1,0,10.3,0,15.4c0.1,3-1,5.9-3,8.2
			c-1.3,1.4-2.9,2.6-4.7,3.3c-1.9,0.6-4,0.8-6,0.6c-0.2-0.2-0.5-0.1-0.7-0.1h-0.1c-0.1-0.2-0.3-0.2-0.5-0.2c-1.5-0.4-2.8-1-4-1.8
			c-3.2-2.3-5.1-6.1-5-10.1c0-8.5,0-17.2,0-25.7c0-0.6,0-1.2-0.8-0.7H225c-0.4,0-0.9,0-1.3-0.1L222.8,390L222.8,390z"/>
	</g>
</g>
<g>
	<path class="st5" d="M203.4,555.8c0,0,173.2-6.6,298.6-236.6c0,0,14.2,117.3-80.3,202.6C421.8,521.9,282.1,695.1,203.4,555.8z"/>
	<path class="st6" d="M512.3,129.7h-82.9c-27.7-0.2-54.8-8.4-78-23.6C328.5,91.3,309.6,71,296.5,47c-2.6-4.7-8.5-6.4-13.3-3.8
		c-1.6,0.9-2.9,2.2-3.8,3.8c-13,23.9-31.8,44.3-54.7,59.1c-23.2,15.2-50.3,23.4-78,23.6h-83c-26.9,0.1-48.7,21.9-48.8,48.8v126.8
		c0,61.7,14.2,119.1,42.4,170.6c22.4,41.1,53.6,78.5,92.8,111.1c66.4,55.5,132.1,77.7,134.8,78.6c2,0.7,4.1,0.7,6.1,0
		c2.7-0.9,68.4-22.9,134.8-78.2c39.2-32.6,70.4-69.9,92.8-111.1c28-51.5,42.4-109.1,42.4-171.1V178.5
		C560.9,151.6,539.1,129.8,512.3,129.7L512.3,129.7z M541.5,305.2c0,58.5-13.4,112.9-39.8,161.3c-21.2,39-50.7,74.3-87.9,105.4
		C358,618.4,301.5,640.8,288,645.8c-13.6-5-70.1-27.7-126-74.3c-37-31.1-66.6-66.6-87.8-105.4c-26.4-48.4-39.8-102.7-39.8-160.9
		V178.5c0-16.2,13.1-29.3,29.2-29.3l0,0h82.9c31.5-0.2,62.3-9.4,88.7-26.7c20.9-13.5,38.9-31.2,52.7-51.9
		c13.8,20.8,31.8,38.5,52.7,52.1c26.4,17.2,57.2,26.5,88.7,26.7h82.9c16.2,0,29.3,13.1,29.3,29.2l0,0V305.2z"/>
	<path class="st6" d="M512.3,227.2c-5.4,0-9.8,4.4-9.8,9.8v19.5c0,5.4,4.4,9.7,9.8,9.7c5.4,0,9.7-4.4,9.7-9.7V237
		C522,231.6,517.6,227.2,512.3,227.2z"/>
	<path class="st6" d="M512.3,168.9h-82.9c-47.7,0-96.7-21.6-134.5-59.4l-2-1.5h-0.2c-1.4-0.8-3-1.2-4.6-1.2h-0.5
		c-1.7,0-3.3,0.4-4.7,1.2h-0.2l-2,1.5c-37.8,37.8-86.8,59.4-134.5,59.4H63.8c-5.4,0-9.8,4.4-9.8,9.8l0,0v126.8
		c0,99.2,40.1,183.4,119.1,250c33.5,28.1,71,51,111.2,68.1c2.4,1,5.1,1,7.5,0c40.2-17,77.6-39.8,111.1-67.8
		c79.1-66.6,119-150.8,119-250.5v-9.8c0-5.4-4.4-9.7-9.8-9.7c-5.4,0-9.7,4.4-9.7,9.7v9.8c0,93.7-37.8,172.9-112.1,235.5
		c-30.9,25.8-65.3,47.1-102.2,63.1c-37-16.1-71.4-37.5-102.4-63.4c-74.3-62.9-112.1-142-112.1-235.2v-117h73.1
		c50,0,101-21.2,141.4-58.5c40.4,37.3,91.4,58.5,141.4,58.5h73.1v9.8c0,5.4,4.4,9.7,9.8,9.7c5.4,0,9.7-4.4,9.7-9.7v-19.5
		c0-5.4-4.4-9.8-9.8-9.8L512.3,168.9z"/>
</g>
<g>
	<path class="st5" d="M448.6,316.3c-0.7-4.4-1.8-8.8-3.3-13.2c-5.2-16.2-13.6-30.9-25-43.4c-9.6-10.7-21-19.1-33.8-25.8
		c-9.6-4.8-19.1-8.1-29.4-10.3c-5.2-1.1-9.9-1.5-15.1-1.8c-5.9-0.4-11.8-0.4-17.7,0.4c-5.9,0.4-11.4,1.5-16.9,2.9
		c-6.3,1.5-12.5,3.7-18.4,6.3c-0.4,0.4-1.1,0.4-1.5,0c-7.7-3.3-15.5-5.5-23.5-7.4c-7.4-1.5-14.7-2.2-21.3-2.2
		c-10.3,0-19.5,1.1-28.7,3.3c-7,1.8-13.6,4-20.2,7c-17.7,8.1-32.4,19.9-44.2,35c-12.5,16.2-20.2,34.6-23.2,55.2
		c-0.7,4.8-1.1,9.2-1.1,14c0,6.3,0.4,12.9,1.5,19.1c0.7,5.9,2.2,11.8,4,17.7c4.8,15.5,12.9,29.1,23.5,41.2c6.6,7.4,14,14,22.1,19.5
		c18,12.1,37.9,18.8,59.6,19.9c8.8,0.4,18,0,26.9-1.8c8.5-1.5,16.6-4,24.3-7.4c0.7-0.4,1.5-0.4,2.2,0c4.4,1.8,9.2,3.7,13.6,4.8
		c8.8,2.6,17.7,4,26.5,4.4c7.4,0.4,14.3,0,21.7-1.1c4.8-0.7,9.6-1.8,14-2.9c10.3-2.9,20.2-7,29.4-12.5c14-8.5,25.4-19.5,35-32.7
		c9.9-14.3,16.2-29.8,19.5-46.7c0.7-4,1.1-7.7,1.5-11.8C451.2,335.8,450.5,325.9,448.6,316.3z M390.9,267.4c2.6,0,4.8,0,7.4,0
		c1.1,0,1.5-0.4,1.5-1.1c0.7-2.2,1.5-4.4,2.2-7c0-0.4,0.4-0.7,0.7-1.1c0.7,2.9,1.8,5.5,2.6,8.1c0.4,0.7,0.7,0.7,1.1,0.7
		c2.6,0,4.8,0,7.4,0c0.4,0,0.7,0,1.1,0c-0.4,0.7-1.1,1.1-1.5,1.5c-1.5,1.1-3.3,2.6-5.2,3.7c-0.7,0.4-0.7,0.7-0.7,1.8
		c0.7,2.6,1.8,5.2,2.6,8.1c0,0,0,0-0.4,0c-2.2-1.5-4.4-3.3-6.6-4.8c-0.7-0.7-1.5-0.7-2.2,0c-1.8,1.5-3.7,2.6-5.5,4
		c-0.4,0.4-0.7,0.7-1.1,0.7c0.7-1.8,1.1-3.7,1.8-5.5c0-0.7,0.4-1.1,0.4-1.8c0.7-1.8,0.7-1.8-1.1-2.9c-1.8-1.1-3.3-2.6-5.2-3.7
		c-0.4-0.4-0.7-0.4-0.7-0.7C390.1,267.4,390.5,267.4,390.9,267.4z M343.8,243.1c0.7,0,1.1-0.4,1.5-1.1c0.7-2.6,1.8-5.2,2.9-7.7
		c0.4,1.5,0.7,2.6,1.5,4c0.4,1.5,0.7,2.6,1.5,4c0,0.7,0.4,0.7,1.1,0.7c2.9,0,5.5,0,8.5,0v0.4c-1.1,0.7-2.2,1.5-3.3,2.6
		c-1.1,0.7-2.2,1.8-3.3,2.6c-0.7,0.4-1.1,1.1-0.7,1.8c0.7,2.2,1.5,4.8,2.2,7c0,0.4,0.4,0.4,0,0.7c-0.7-0.4-1.5-0.7-2.2-1.5
		c-1.5-1.1-3.3-2.2-4.8-3.7c-0.7-0.4-1.1-0.4-1.5,0c-1.8,1.5-4,2.9-5.9,4.4c-0.4,0.4-0.4,0.4-1.1,0.4c0.4-1.5,0.7-2.6,1.1-4
		c0.4-1.5,0.7-2.9,1.5-4c0.4-0.7,0-1.1-0.4-1.5c-2.2-1.5-4-2.9-6.3-4.4c-0.4,0-0.4-0.4-0.4-0.7C338.3,243.1,341.2,242.7,343.8,243.1
		z M277.2,244.6c2.6,0,5.2,0,7.4,0c0.7,0,1.1-0.4,1.5-1.1c0.7-2.6,1.5-4.8,2.2-7.4c0-0.4,0-0.4,0.4-0.7c0.4,1.5,1.1,3.3,1.5,4.8
		c0.4,1.1,0.7,2.2,1.1,3.3c0,0.7,0.4,0.7,1.1,0.7c2.9,0,5.5,0,8.8,0c-0.7,0.7-1.5,1.1-1.8,1.5c-1.5,1.1-3.3,2.6-4.8,3.3
		c-1.1,0.7-1.1,1.1-0.7,2.2c0.7,2.2,1.5,4.4,2.2,6.6c0,0.4,0.4,0.4,0,0.7c-2.2-1.5-4.4-3.3-6.6-4.8c-0.7-0.7-1.1-0.7-1.8,0
		c-2.2,1.5-4.4,3.3-6.6,4.8c0,0,0,0-0.4,0c0.7-2.2,1.5-4.8,2.2-7c0.7-1.8,0.7-1.8-1.1-2.9c-1.8-1.5-4-2.9-5.9-4.4
		C276.5,244.2,276.8,244.6,277.2,244.6z M223.8,243.1c0.7,0,1.1,0,1.5-0.7c0.7-2.6,1.8-5.5,2.6-8.1c0.7,0.7,0.7,1.8,1.1,2.6
		c0.7,1.8,1.1,3.7,1.8,5.5c0.4,0.7,0.4,0.7,1.1,0.7c2.6,0,4.8,0,7.4,0c0.4,0,0.7,0,1.1,0c0,0.7-0.4,0.7-0.7,0.7
		c-1.8,1.5-3.7,2.9-5.9,4c-0.7,0.4-1.1,1.1-0.7,1.8c0.7,2.6,1.8,5.2,2.6,7.7c-0.4,0-0.7-0.4-1.1-0.4c-2.2-1.5-4-2.9-6.3-4.4
		c-0.7-0.4-1.1-0.4-1.5,0c-2.2,1.8-4.4,3.3-7,5.2c0-1.1,0.4-2.2,0.7-2.9c0.4-1.8,1.1-3.7,1.8-5.5c0.4-0.7,0-1.1-0.4-1.5
		c-2.2-1.5-4-2.9-6.3-4.4c-0.4,0-0.4-0.4-0.7-0.7C218.3,243.1,221.3,243.1,223.8,243.1z M168.3,271.8c0.4,0,1.1,0,1.5,0
		c0.7,0,1.1-0.4,1.1-0.7c0.7-2.6,1.5-4.8,2.2-7.4c0-0.4,0-0.7,0.7-0.7c0.7,2.6,1.8,5.5,2.6,8.1c0.4,0.7,0.4,0.7,1.1,0.7
		c2.6,0,4.8,0,7.4,0c0.4,0,0.7,0,1.1,0c-0.4,0.4-0.7,0.7-1.1,0.7c-1.8,1.5-4,2.9-5.9,4c-0.7,0.4-0.7,0.7-0.4,1.5
		c0.7,2.2,1.5,4.8,2.2,7c0,0.4,0.4,0.7,0.4,1.5c-1.8-1.5-3.3-2.6-5.2-3.7c-1.1-0.7-1.8-1.8-2.9-1.8s-1.8,1.1-2.6,1.8
		c-1.5,1.1-3.3,2.2-4.8,3.3c0,0,0,0-0.4,0c0-1.1,0.7-2.2,1.1-3.3c0.4-1.5,1.1-3.3,1.5-4.8c0.4-0.7,0-1.1-0.4-1.5
		c-2.2-1.5-4-2.9-6.3-4.4c-0.4,0-0.4-0.4-0.4-0.7C163.9,271.8,166.1,271.8,168.3,271.8z M138.1,337.3c0.7-1.8,1.1-3.7,1.8-5.2
		c0.4-1.1,0.7-1.8,1.1-2.9c0.4-0.7,0-1.1-0.4-1.5c-1.8-1.5-4-2.9-5.9-4.4c-0.4-0.4-0.7-0.4-0.7-0.7c0.4-0.4,0.7,0,1.1,0
		c2.6,0,5.2,0,7.4,0c0.7,0,1.1-0.4,1.5-1.1c0.7-2.6,1.5-4.8,2.2-7.4c0-0.4,0-0.7,0.4-0.7c0.4,0,0.4,0.4,0.4,0.7
		c0.7,2.6,1.5,4.8,2.6,7.4c0.4,0.7,0.4,0.7,1.1,0.7c2.9,0,5.5,0,8.5,0c0,0.4-0.4,0.7-0.7,1.1c-1.8,1.5-3.7,2.9-5.9,4
		c-0.7,0.4-0.7,0.7-0.7,1.8c0.7,2.2,1.5,4.8,2.2,7c0,0.4,0.4,0.4,0,1.1c-2.2-1.8-4.4-3.3-6.6-4.8c-0.7-0.4-1.1-0.4-1.8,0
		c-1.8,1.5-3.7,2.9-5.9,4.4C138.9,336.9,138.5,337.3,138.1,337.3z M168.7,384.4c-1.8,1.5-4,2.9-6.3,4.4c-0.7,0.4-0.7,0.7-0.4,1.5
		c0.7,2.6,1.8,5.2,2.6,7.7c0,0,0,0.4,0,0.7c-1.5-1.1-2.9-1.8-4-2.9c-1.1-0.7-1.8-1.5-2.9-1.8c-0.4-0.4-0.7-0.4-1.5,0
		c-2.2,1.5-4.4,3.3-6.3,4.8c0,0-0.4,0.4-0.7,0c0.7-2.6,1.5-5.2,2.6-7.7c0.4-1.1,0.4-1.5-0.7-2.2c-2.2-1.5-4.4-3.3-6.6-4.8
		c0,0,0,0,0-0.4c2.6,0,5.5,0,8.1,0c0.7,0,1.5-0.4,1.5-1.1c0.7-2.6,1.8-5.5,2.6-8.5c0.7,2.6,1.5,4.8,2.2,7c0.7,2.6,0.7,2.6,3.3,2.6
		c2.2,0,4.4,0,7,0C169.4,384,169,384.4,168.7,384.4z M211,425.6c-1.8,1.5-3.7,2.6-5.5,4c-0.7,0.4-0.7,1.1-0.4,1.5
		c0.7,2.6,1.5,4.8,2.6,7.4c0,0,0,0.4,0,0.7c-0.7,0-0.7-0.4-1.1-0.7c-1.8-1.5-4-2.9-5.9-4.4c-0.7-0.4-1.1-0.4-1.5,0
		c-1.8,1.5-4,2.9-5.9,4.4c-0.4,0.4-0.4,0.4-1.1,0.4c0.4-1.5,1.1-2.9,1.5-4.8c0.4-1.1,0.7-2.2,1.1-3.3c0.4-0.7,0-1.1-0.7-1.8
		c-2.2-1.5-4-2.9-6.3-4.4l-0.4-0.4c0,0,0,0,0-0.4c2.6,0,5.2,0,8.1,0c1.1,0,1.5-0.4,1.8-1.5c0.7-2.6,1.5-5.2,2.6-7.7
		c0.4,0,0.4,0.4,0.4,0.7c0.7,2.6,1.5,4.8,2.2,7.4c0.4,0.7,0.7,1.1,1.5,1.1c2.6,0,4.8,0,7.4,0c0.4,0,0.7,0,1.1,0
		C211.7,425.2,211.3,425.6,211,425.6z M265.4,439.6c0.7,2.2,1.5,4.8,2.2,7c0,0.4,0.4,0.7,0,1.1c-1.8-1.1-3.3-2.2-4.8-3.7
		c-1.1-0.7-1.8-1.8-2.9-1.8c-1.1,0-1.8,1.1-2.9,1.8c-1.5,1.1-3.3,2.2-4.8,3.7c0-1.1,0.4-1.8,0.7-2.6c0.7-1.8,1.1-3.7,1.8-5.5
		c0.4-0.7,0-1.1-0.7-1.8c-2.2-1.5-4.4-3.3-6.6-4.8l0,0c0.4-0.4,0.7,0,1.1,0c2.6,0,4.8,0,7.4,0c0.7,0,1.1-0.4,1.5-1.1
		c0.7-2.6,1.5-4.8,2.2-7.4c0-0.4,0-0.4,0.4-0.7c0.7,2.6,1.8,5.5,2.6,8.1c0.4,0.7,0.4,1.1,1.5,1.1c2.6,0,4.8,0,7.4,0
		c0.4,0,0.7,0,1.1,0c0,0,0,0,0,0.4c-2.2,1.5-4.4,3.3-6.6,4.8C265.4,438.1,265,438.4,265.4,439.6z M296.7,410.1
		c-6.3,3.3-12.9,5.9-19.9,7.7c-8.5,2.2-16.9,2.6-25.4,1.8c-19.1-1.8-35.7-9.2-49.3-22.8c-8.8-8.8-15.5-18.8-19.5-30.5
		c-0.4-0.7-0.7-1.1-1.5-1.1c-7.4,0-14.7,0-22.4,0c-0.4,0-0.4,0-0.7,0c1.1-2.2,1.8-4.4,2.9-6.6c1.5-3.7,2.9-7,4.4-10.7
		c0.4-0.7,0.7-1.1,1.5-1.1c3.3,0,7,0,10.3,0c0.7,0,1.1,0,0.7-0.7c-0.4-2.2-0.4-4.4-0.4-7c0-0.7-0.4-1.1-1.1-1.1
		c-5.9,0-11.8,0-17.7,0c-1.1,0-1.1,0-0.7-1.1c2.6-5.5,4.8-11,7-16.6c0.4-0.7,0.7-1.1,1.5-1.1c4,0,8.1,0,12.1,0
		c0.7,0,1.1-0.4,1.5-1.1c4.8-17.7,14.3-32,28.7-43c9.6-7.7,20.6-12.5,32.7-15.1c7-1.5,14.3-1.8,21.3-1.5c11.8,0.7,23.2,4,33.5,9.6
		c1.1,0.7,1.1,0.7,0,1.5c-7,4.4-13.2,9.9-18.4,16.2c-0.4,0.7-0.7,0.7-1.8,0.4c-7-2.2-14-3.3-21.3-2.9c-22.1,1.1-40.8,15.5-48.9,35
		c-0.4,1.1-0.4,1.1,0.7,1.1c11.4,0,22.8,0,34.2,0c1.5,0,1.5,0,1.5,1.5c0,5.2,0,10.7,0,15.8c0,1.1-0.4,1.1-1.1,1.1
		c-12.5,0-25.4,0-37.9,0c-1.5,0-1.5,0-1.5,1.5c0,2.2,0.4,4.4,0.4,6.3c0,0.7,0.4,0.7,1.1,0.7c1.8,0,3.7,0,5.2,0c10.3,0,21,0,31.3,0
		c0.7,0,1.1,0.4,1.1,1.1c0,5.5,0,10.7,0,16.2c0,0.7-0.4,1.1-1.1,1.1c-9.9,0-20.2,0-30.2,0c-1.5,0-1.5,0-0.7,1.1
		c7.7,13.6,19.1,22.4,34.2,26.9c7,1.8,14.3,2.2,21.7,1.5c3.7-0.4,7.7-1.5,11-2.6c0.7-0.4,1.1-0.4,1.8,0.4
		c5.5,6.3,11.8,11.8,18.8,16.2C297.8,409.8,297.8,409.8,296.7,410.1z M325,437.7c-0.7,0.4-0.7,1.1-0.7,1.8c0.7,2.6,1.8,5.2,2.2,8.1
		c-1.5-1.1-3.3-2.2-4.8-3.7c-1.1-0.7-1.8-1.8-2.9-1.8c-1.1,0-1.8,1.1-2.6,1.8c-1.5,1.1-3.3,2.2-4.8,3.3c0,0,0,0-0.4,0
		c0.7-1.8,1.5-4,1.8-5.9c0.4-1.1,1.1-2.2,0.7-3.3c-0.4-0.7-1.8-1.5-2.6-2.2c-1.5-1.1-3.3-2.2-4.8-3.7c0.4-0.4,0.7-0.4,1.1-0.4
		c2.6,0,4.8,0,7.4,0c0.7,0,1.1-0.4,1.5-1.1c0.7-2.2,1.5-4.8,2.2-7c0-0.4,0.4-0.7,0.4-1.1c0.7,2.6,1.8,5.2,2.6,7.7
		c0.4,1.8,0.4,1.8,2.2,1.8c2.2,0,4.4,0,6.6,0c0.4,0,0.7,0,1.1,0C329.8,434.4,327.2,436.2,325,437.7z M388.3,425.6
		c-1.8,1.5-3.7,2.6-5.5,4c-0.7,0.4-1.1,1.1-0.7,2.2c0.7,2.2,1.5,4.4,2.2,7c0,0.4,0.4,0.4,0,1.1c-1.5-1.1-2.9-2.2-4.4-3.3
		c-0.7-0.7-1.5-1.1-2.6-1.8c-0.7-0.4-1.1-0.4-1.5,0c-1.8,1.5-4,2.9-5.9,4.4c-0.4,0.4-0.4,0.7-1.1,0.4c0.4-1.5,0.7-2.9,1.5-4.4
		c0.4-1.1,0.7-2.2,1.1-3.3c0.4-1.1,0-1.5-0.7-1.8c-1.8-1.5-4-2.9-5.9-4c-0.4,0-0.7-0.4-0.7-0.7c1.8,0,3.7,0,5.5,0c0.7,0,1.8,0,2.6,0
		c1.1,0,1.5-0.4,1.8-1.1c0.7-2.2,1.5-4,2.2-6.3c0-0.4,0-1.1,0.7-1.5c0.7,2.6,1.8,5.2,2.6,7.7c0.4,0.7,0.7,1.1,1.5,1.1
		c2.6,0,5.5,0,8.1,0C389,425.2,388.7,425.2,388.3,425.6z M340.5,415.3c-41.9,0-75.4-33.8-75.8-75.8c0-41.6,33.5-75.8,75.8-75.8
		c41.9,0,75.8,33.8,75.8,75.8C416.3,381.8,382.4,415.3,340.5,415.3z M427.3,386.9c-0.7,0.7-1.8,1.5-2.6,1.8
		c-0.7,0.4-0.7,0.7-0.4,1.5c0.7,2.6,1.8,5.5,2.6,8.1c0,0,0,0-0.4,0.4c-2.2-1.5-4.4-3.3-6.6-4.8c-0.7-0.7-1.1-0.4-1.8,0
		c-1.8,1.5-4,2.9-5.9,4.4c-0.4,0-0.4,0.4-0.7,0.4c0.7-2.2,1.5-4.4,1.8-6.3c1.1-2.9,1.1-2.9-1.5-4.8c-1.8-1.1-3.3-2.6-5.2-3.7
		c0.4-0.4,0.7-0.4,0.7-0.4c2.6,0,5.2,0,7.4,0c0.7,0,1.1,0,1.5-1.1c0.7-2.6,1.5-4.8,2.2-7.4c0-0.4,0-0.4,0.4-0.7
		c0.7,1.8,1.1,3.7,1.8,5.9c0.4,1.1,0.4,2.6,1.1,2.9c0.7,0.7,2.2,0,2.9,0c1.8,0,4,0,5.9,0c0,0,0,0,0.4,0
		C430.2,384.7,428.8,385.8,427.3,386.9z M441.3,324c-1.8,1.5-3.7,2.6-5.5,4c-0.7,0.4-0.7,0.7-0.4,1.5c0.7,2.6,1.8,5.2,2.6,8.1
		c0,0,0,0-0.4,0.4c-2.2-1.5-4-2.9-6.3-4.4c-1.5-1.1-1.5-1.1-2.9,0c-1.8,1.1-3.7,2.6-5.2,3.7c-0.4,0.4-0.4,0.4-1.1,0.4
		c0-0.4,0-0.7,0.4-1.1c0.7-2.2,1.5-4.8,2.2-7c0.4-0.7,0-1.1-0.4-1.5c-2.2-1.5-4.4-2.9-6.3-4.4c0,0-0.4-0.4-0.4-0.7c2.6,0,4.8,0,7,0
		c2.6,0,2.6,0,3.3-2.2c0.7-2.2,1.5-4.4,2.2-6.6c0.4,0.4,0.4,0.7,0.4,1.1c0.7,2.2,1.5,4.8,2.2,7c0.4,0.7,0.4,0.7,1.1,0.7
		c2.6,0,4.8,0,7.4,0c0.4,0,0.7,0,1.1,0c0,0,0,0,0,0.4C442.4,323.3,442,323.7,441.3,324z"/>
	<path class="st5" d="M340.5,270.3c-37.9,0-69.5,30.9-69.5,69.5c0,38.3,30.9,69.5,69.9,69.5c38.3-0.4,69.2-31.3,69.2-69.9
		C410,301.2,378.7,270.3,340.5,270.3z M340.5,394.7c-30.2,0-54.8-24.7-54.8-54.8c0-30.2,24.7-54.8,54.8-54.8
		c30.2,0,54.8,24.7,54.8,54.8C395.3,370.4,370.6,394.7,340.5,394.7z"/>
	<path class="st5" d="M371.7,340.2c-1.8-1.8-4-2.6-6.6-3.3c-0.4,0-0.7,0-0.7-0.4c0-0.4,0.4-0.4,0.4-0.4c3.7-2.2,5.5-5.5,6.3-9.9
		c0.7-5.9-2.2-11.4-7.4-14.3c-3.7-1.8-7.7-2.6-11.8-2.9c-0.7,0-1.1-0.4-1.1-1.1c0-3.7,0-7.7,0-11.4c0-0.7-0.4-1.1-1.1-1.1
		c-1.8,0-4,0-5.9,0c-0.7,0-1.1,0.4-1.1,1.1c0,3.7,0,7.7,0,11.4c0,0.7-0.4,1.1-1.1,1.1c-1.5,0-2.9,0-4.8,0c-0.7,0-1.1-0.4-1.1-1.1
		c0-3.7,0-7.4,0-11c0-0.7-0.4-1.1-1.1-1.1c-1.8,0-4,0-5.9,0c-0.7,0-1.1,0.4-1.1,1.1c0,3.7,0,7.4,0,11.4c0,1.1-0.4,1.1-1.1,1.1
		c-4.8,0-9.6,0-14.3,0c-0.7,0-1.1,0.4-1.1,1.1c0,2.2,0,4.4,0,6.6c0,0.7,0.4,1.1,1.1,1.1c1.5,0,3.3,0,4.8,0c3.3,0,4.8,1.5,4.8,4.8
		c0,5.9,0,11.8,0,17.7s0,11.8,0,17.7c0,2.2-1.1,3.3-3.3,3.3c-1.5,0-3.3,0-4.8,0c-0.7,0-1.1,0-1.1,0.7c-0.4,2.6-0.7,5.2-1.5,7.7
		c0,1.1,0,1.1,1.1,1.1c4.8,0,9.6,0,14.3,0c1.1,0,1.5,0.4,1.5,1.1c0,3.7,0,7.7,0,11.4c0,0.7,0.4,1.1,1.1,1.1c1.8,0,4,0,5.9,0
		c0.7,0,1.1-0.4,1.1-1.1c0-3.7,0-7.7,0-11.4c0-0.7,0.4-1.1,1.1-1.1c1.5,0,2.9,0,4.8,0c0.7,0,1.1,0.4,1.1,1.1c0,3.7,0,7.4,0,11
		c0,1.1,0.4,1.5,1.5,1.1c1.8,0,3.7,0,5.2,0s1.5,0,1.5-1.5c0-3.7,0-7.4,0-11c0-0.7,0.4-1.1,1.1-1.1c1.1,0,2.2,0,3.3-0.4
		c3.7-0.4,7-1.1,10.3-2.6s6.3-3.7,8.1-7c2.2-4.4,2.6-8.8,1.8-13.6C375.1,344.6,373.6,342.4,371.7,340.2z M337.2,318.1
		c3.3,0,6.6,0,9.9,0.4c2.6,0.4,4.8,1.1,6.6,3.3c3.3,3.7,1.8,9.6-2.6,11.4c-4.4,1.5-9.2,1.8-14,1.8c-0.7,0-0.7-0.4-0.7-1.1
		c0-2.6,0-4.8,0-7.4c0-2.6,0-4.8,0-7.4C336.1,318.1,336.4,318.1,337.2,318.1z M356.3,357.9c-1.8,1.5-4.4,2.2-6.6,2.2
		c-4,0.4-8.1,0.7-12.1,0.7c-1.1,0-1.1-0.4-1.1-1.1c0-2.6,0-5.2,0-8.1c0-2.6,0-5.5,0-8.1c0-0.7,0.4-1.1,1.1-1.1c3.7,0,7.7,0,11.4,0.4
		c2.6,0.4,5.2,1.1,7.4,2.6C360.3,348.7,360.7,354.9,356.3,357.9z"/>
</g>
</svg>
