<?xml version="1.0" encoding="utf-8"?>
<!-- Generator: Adobe Illustrator 21.0.2, SVG Export Plug-In . SVG Version: 6.00 Build 0)  -->
<svg version="1.1" id="Layer_1" xmlns="http://www.w3.org/2000/svg" xmlns:xlink="http://www.w3.org/1999/xlink" x="0px" y="0px"
	 width="744px" height="631.5px" viewBox="0 0 744 631.5" style="enable-background:new 0 0 744 631.5;" xml:space="preserve">
<style type="text/css">
	.st0{fill:#FFFFFF;}
	.st1{fill:#FFB600;}
	.st2{fill:#3076B5;}
	.st3{fill:#F2F2F2;}
	.st4{fill:#CDD6E0;}
	.st5{fill:#ACB3BA;}
	.st6{fill:#F6C12D;}
	.st7{fill:#DD8E18;}
	.st8{fill:#40596B;}
	.st9{fill:#F9B54C;}
</style>
<title>SVG</title>
<g>
	<path class="st0" d="M528.4,255.7h29c4.1,0,7.5,3.4,7.5,7.5l0,0c0,4.1-3.4,7.5-7.5,7.5h-29c-4.1,0-7.5-3.4-7.5-7.5l0,0
		C520.9,259,524.3,255.7,528.4,255.7z"/>
	<path class="st1" d="M142.4,544.7H217c6.1,0,11,4.9,11,11l0,0c0,6.1-4.9,11-11,11h-74.6c-6.1,0-11-4.9-11-11l0,0
		C131.4,549.6,136.3,544.7,142.4,544.7z"/>
	<path class="st1" d="M271,399.3c-2.7-0.4-5.4-0.5-8.2-0.5c-20,0-39.9,0-59.9,0h-72.4c0,0-14.1,0-18.7,12.1
		c-2.7,7.1-0.9,15.2,4.5,20.5c4.6,4.5,12.9,3.4,18.9,5.3c4.1,1.4,8.2,7.4,4.5,10.7c-4,3.7-19.5,2-24.8,2
		c-22.9,0.1-45.8-2.7-68.6-0.8c0,0-15.6,1.4-20.3,12.1c-6.1,14,2.4,29.8,20.9,29.7c24.1-0.1,48.2-0.1,72.2,0h130.7
		c16.1,0,34.4,2.4,49.5-3.5c20.3-7.9,17.1-30.8-3.3-37.1c-6.6-2-13.8-1.7-20.7-1.1c-3,0.3-6,0.5-8.9-0.2s-5.5-2.8-5.6-5.4
		c-0.1-2.4,2-4.6,4.5-5.7c4.7-2,10.3-0.9,14.8-3.3c10-5.4,12.1-16.8,6.8-25.5C283.2,402.8,277.6,400.3,271,399.3z"/>
	<path class="st1" d="M509.9,319.7c1.1-1.6,3.7-1.5,8.3-1.7c17-1,34.8,0.7,51.9,0.7h62.5c3.7,0,7.6,0,11,1.4c5,2.2,8.4,6.8,9,12.2
		c0.7,5.7-1.9,12-7.5,14.7c-6.6,3.1-14.8,0.7-21.9,2.5c-6.6,1.7-11.7,7.3-12.3,13.4c-0.6,6.1,3.4,12.4,9.6,15.1
		c4.8,2,10.3,1.9,15.6,1.8l27.1-0.7c5.6-0.1,11.4-0.2,16.3,2.2c5.6,2.8,8.8,8.9,8,15.1c-1,5.9-5.9,11-12.1,13
		c-4.8,1.6-10.4,1.5-14.7,4c-4.6,2.8-6.8,8.3-5.4,13.6c1.5,5,6,9,11.3,10.8c7.5,2.5,15.8,1.1,23.8,0.2s16.8-1.1,23.1,3.3
		c4.6,3.1,7,8.5,6.4,14c-0.8,5.2-4.8,10-10.3,12c-4,1.5-8.5,1.5-12.9,1.5l-159.5-0.1l-14.3-75l-7.1-37.5c-2-10.5-4.9-20.9-6.3-31.5
		C509.2,322.2,509.3,320.6,509.9,319.7z"/>
	<path class="st2" d="M547.6,623.2c-25.1,0-44.9-20.9-44.9-44.9v-10.5h8.4v10.5c0.3,20.8,17.5,37.3,38.2,37
		c20.3-0.3,36.7-16.7,37-37v-49.1c0-19.9,16.7-36.6,36.6-36.6s36.6,16.7,36.6,36.6v10.5h-8.4v-10.5c0-15.6-12.7-28.2-28.2-28.2
		c-15.6,0-28.2,12.6-28.2,28.2v49.1C593.6,602.2,572.7,623.2,547.6,623.2z"/>
	<path class="st2" d="M541.3,264.7H203.8c-8.6,0.2-15.5,7.1-15.7,15.7v242.4h365.7V277.3c0.3-6.7-4.9-12.3-11.6-12.5
		C542,264.7,541.6,264.7,541.3,264.7z"/>
	<path class="st3" d="M188.2,521.8v29.3c0.2,8.6,7.1,15.5,15.7,15.7h334.4c8.6-0.2,15.5-7.1,15.7-15.7v-29.3H188.2z"/>
	<circle class="st2" cx="371" cy="544.8" r="8.4"/>
	<rect x="301" y="566.7" class="st4" width="140" height="40.7"/>
	<path class="st3" d="M467.2,630.5H274.9v-19.8c0-2.1,1-3.1,3.1-3.1h187c2.1,0,3.1,1,3.1,3.1v19.8H467.2z"/>
	<rect x="301" y="566.7" class="st5" width="140" height="11.5"/>
	<rect x="212.2" y="286.7" class="st0" width="316.6" height="213.2"/>
	<rect x="231" y="306.5" class="st6" width="279" height="81.5"/>
	<rect x="231" y="403.7" class="st3" width="74.2" height="62.7"/>
	<rect x="333.4" y="403.7" class="st4" width="74.2" height="62.7"/>
	<rect x="435.8" y="403.7" class="st7" width="74.2" height="62.7"/>
	<polygon class="st8" points="480.7,438.2 491.2,478.9 501.6,468.5 511,478.9 520.4,469.5 510,459.1 520.4,449.7 	"/>
	<path class="st3" d="M689.7,565.7v29.2c0.3,19.6-15.3,35.8-34.9,36.1c-19.6,0.3-35.8-15.3-36.1-34.9c0-0.4,0-0.8,0-1.2v-32.4
		c0-2.1,1-4.2,1-6.3c4.2-13.6,15.7-24,31.3-26.1h6.3c8.3,0.8,16.1,4.5,22,10.4c4.3,4.4,7.5,9.8,9.4,15.7c0,2.1,1,4.2,1,6.3
		C689.7,563.6,689.7,564.6,689.7,565.7z"/>
	<path class="st0" d="M688.7,556.3h-31.4v-26.1H651v26.1h-31.3c0,2.1-1,4.2-1,6.3h70C689.7,560.5,688.7,558.4,688.7,556.3z"/>
	<path class="st1" d="M585.2,505.8v-6.2h-2.9c-0.2-0.6-0.5-1.2-0.8-1.8l2-2l-4.5-4.5l-2,2c-0.6-0.3-1.2-0.5-1.8-0.8v-2.9H569v2.9
		c-0.6,0.2-1.2,0.5-1.8,0.8l-2-2l-4.5,4.5l2,2c-0.3,0.6-0.5,1.2-0.8,1.8H559v6.2h2.9c0.2,0.6,0.5,1.2,0.8,1.8l-2,2l4.5,4.5l2-2
		c0.6,0.3,1.2,0.5,1.8,0.8v2.9h6.2v-2.9c0.6-0.2,1.2-0.5,1.8-0.8l2,2l4.5-4.5l-2-2c0.3-0.6,0.5-1.2,0.8-1.8H585.2z M572.2,510.6
		c-4.4,0-7.9-3.6-7.9-7.9s3.6-7.9,7.9-7.9s7.9,3.6,7.9,7.9S576.6,510.6,572.2,510.6L572.2,510.6L572.2,510.6z"/>
	<path class="st9" d="M123.9,537.1v-7h-3.4c-0.2-0.7-0.5-1.4-0.9-2l2.3-2.4l-5.1-5.1l-2.4,2.2c-0.6-0.3-1.3-0.6-2-0.9v-3.4h-7.2v3.4
		c-0.7,0.2-1.4,0.5-2,0.9l-2.3-2.4l-5.1,5.1l2.3,2.4c-0.3,0.6-0.6,1.3-0.9,2h-3.3v7.1h3.4c0.2,0.7,0.5,1.4,0.9,2l-2.3,2.4l5.1,5.1
		l2.3-2.4c0.6,0.3,1.3,0.6,2,0.9v3.3h7.1v-3.4c0.7-0.2,1.4-0.5,2-0.9l2.3,2.4l5.1-5.1l-2.3-2.4c0.3-0.6,0.6-1.3,0.9-2L123.9,537.1z
		 M109.1,542.7c-5,0-9.1-4.1-9.1-9.1s4.1-9.1,9.1-9.1s9.1,4.1,9.1,9.1l0,0C118.1,538.6,114.1,542.7,109.1,542.7L109.1,542.7z"/>
	<path class="st0" d="M104.4,511.8v-9.1h-4.3c-0.3-0.9-0.7-1.8-1.1-2.6l3-3l-6.6-6.5l-3,3c-0.8-0.4-1.7-0.8-2.6-1.1v-4.3h-9.2v4.3
		c-0.9,0.3-1.8,0.7-2.6,1.1l-3-3l-6.5,6.5l3,3c-0.4,0.8-0.8,1.7-1.1,2.6h-4.2v9.1h4.3c0.3,0.9,0.7,1.8,1.1,2.6l-3,3l6.6,6.5l3-3
		c0.8,0.4,1.7,0.8,2.6,1.1v4.2H90v-4.3c0.9-0.3,1.8-0.7,2.6-1.1l3,3l6.6-6.5l-3-3c0.4-0.8,0.8-1.7,1.1-2.6L104.4,511.8z M85.3,519
		c-6.5,0-11.7-5.2-11.7-11.7s5.2-11.7,11.7-11.7S97,500.8,97,507.3S91.8,519,85.3,519L85.3,519z"/>
	<path class="st1" d="M578.2,218.4v-7h-3.4c-0.2-0.7-0.5-1.4-0.9-2l2.3-2.4l-5.1-5.1l-2.3,2.4c-0.6-0.3-1.3-0.6-2-0.9V200h-7.1v3.4
		c-0.7,0.2-1.4,0.5-2,0.9l-2.4-2.4l-5.1,5.1l2.3,2.4c-0.3,0.6-0.6,1.3-0.9,2h-3.3v7.1h3.4c0.2,0.7,0.5,1.4,0.9,2l-2.3,2.4l5.1,5.1
		l2.3-2.4c0.6,0.3,1.3,0.6,2,0.9v3.3h7.1v-3.4c0.7-0.2,1.4-0.5,2-0.9l2.4,2.3l5.1-5.1l-2.3-2.4c0.3-0.6,0.6-1.3,0.9-2L578.2,218.4z
		 M563.3,224c-5,0-9.1-4.1-9.1-9.1s4.1-9.1,9.1-9.1s9.1,4.1,9.1,9.1l0,0C572.4,219.9,568.3,224,563.3,224z"/>
	<path class="st1" d="M149,319.6c0,8.4-6.8,15.1-15.1,15.1H87.7c-8.4,0-15.1-6.7-15.2-15.1c0-4.8,2.3-9.4,6.2-12.2
		c-0.1-0.8-0.1-1.6-0.1-2.3c0-11.7,9.5-21.3,21.3-21.3c8.8,0,16.7,5.4,19.9,13.7c1.7-0.7,3.5-1,5.3-1c5.9,0,11.2,3.4,13.7,8.7
		C144.8,307.3,149,313.1,149,319.6L149,319.6z M144.7,319.6c0-4.9-3.3-9.2-8.1-10.4c-0.7-0.2-1.2-0.7-1.5-1.3
		c-2.1-5.6-8.3-8.4-13.9-6.3c-0.6,0.2-1.2,0.5-1.8,0.8c-1,0.6-2.4,0.3-3-0.8c-0.1-0.2-0.2-0.4-0.2-0.6c-2.2-9.1-11.4-14.6-20.5-12.4
		c-8.7,2.1-14.2,10.6-12.6,19.4c0.2,0.9-0.2,1.8-1,2.2c-5.1,3-6.8,9.7-3.8,14.8c1.9,3.3,5.5,5.3,9.3,5.3h46.2
		C139.9,330.4,144.7,325.5,144.7,319.6L144.7,319.6z M142.5,318.5c-0.6,0-1.1,0.5-1.1,1.1l0,0c0,4.2-3.4,7.6-7.6,7.6h-6.5
		c-0.6,0-1.1,0.5-1.1,1.1s0.5,1.1,1.1,1.1h6.5c5.4,0,9.7-4.4,9.7-9.7C143.6,319,143.1,318.5,142.5,318.5L142.5,318.5z M132.1,309
		l0.8,2.1c0.1,0.3,0.4,0.6,0.7,0.7l2.2,0.6c1.1,0.3,2.1,0.9,3,1.6c0.4,0.4,1.1,0.3,1.5-0.1l0,0c0.4-0.4,0.3-1.1-0.1-1.5l0,0
		c-1.1-1-2.5-1.6-3.9-2l-1.6-0.4l-0.6-1.6c-1.4-3.8-5-6.3-9.1-6.4c-1.8,0-3.5,0.5-5,1.4c-0.5,0.3-0.7,1-0.4,1.5s1,0.7,1.5,0.4
		c1.2-0.7,2.5-1.1,3.9-1.1C128.1,304.1,130.9,306,132.1,309L132.1,309z"/>
	<path class="st0" d="M232.6,233.3c0.5,0,0.9-0.4,0.9-0.9v-9.7h9.2c0.5,0,1-0.4,1-0.9s-0.4-1-0.9-1l0,0h-9.2V212
		c0-0.5-0.4-0.9-1-0.9c-0.5,0-0.9,0.4-0.9,0.9v8.8h-8.8c-0.5,0-1,0.4-1,0.9s0.4,1,0.9,1l0,0h8.8v9.7
		C231.7,232.9,232.1,233.3,232.6,233.3z"/>
	<path class="st0" d="M680.6,502.3c0.5,0,0.9-0.4,1-1v-9.7h9.2c0.5,0,1-0.4,1-0.9s-0.4-1-0.9-1l0,0h-9.2v-8.8c0-0.5-0.4-1-1-1
		s-1,0.4-1,1v8.8h-8.8c-0.5,0-1,0.4-1,0.9s0.4,1,0.9,1l0,0h8.8v9.7C679.7,501.9,680.1,502.3,680.6,502.3z"/>
	<path class="st0" d="M598.2,339.9c0.8,0,1.4-0.6,1.4-1.4l0,0v-14.3h13.7c0.8,0,1.4-0.6,1.4-1.4c0-0.8-0.6-1.4-1.4-1.4h-13.7v-13
		c0-0.8-0.6-1.4-1.4-1.4c-0.8,0-1.4,0.6-1.4,1.4v13h-13c-0.8,0-1.4,0.6-1.4,1.4s0.6,1.4,1.4,1.4h13v14.3
		C596.8,339.2,597.4,339.9,598.2,339.9L598.2,339.9L598.2,339.9z"/>
	<path class="st2" d="M71.2,385.9c0.8,0,1.4-0.6,1.4-1.4v-14.3h13.7c0.8,0,1.4-0.6,1.4-1.4s-0.6-1.4-1.4-1.4l0,0H72.6v-13
		c0-0.8-0.6-1.4-1.4-1.4s-1.4,0.6-1.4,1.4v13h-13c-0.8,0-1.4,0.6-1.4,1.4s0.6,1.4,1.4,1.4l0,0h13v14.3
		C69.8,385.2,70.4,385.9,71.2,385.9L71.2,385.9z"/>
	<path class="st2" d="M81.4,245.7h36c4.1,0,7.5,3.4,7.5,7.5l0,0c0,4.1-3.4,7.5-7.5,7.5h-36c-4.1,0-7.5-3.4-7.5-7.5l0,0
		C73.9,249,77.3,245.7,81.4,245.7z"/>
	<path class="st2" d="M718.7,390.4c0,8.4-6.8,15.1-15.1,15.1h-46.2c-8.4,0-15.1-6.7-15.2-15.1c0-4.8,2.3-9.4,6.2-12.2
		c-0.1-0.8-0.1-1.6-0.1-2.3c0-11.7,9.5-21.3,21.3-21.3c8.8,0,16.7,5.4,19.9,13.7c1.7-0.7,3.5-1,5.3-1c5.9,0,11.2,3.4,13.7,8.7
		C714.5,378.1,718.7,383.9,718.7,390.4L718.7,390.4z M714.4,390.4c0-4.9-3.3-9.2-8.1-10.4c-0.7-0.2-1.2-0.7-1.5-1.3
		c-2.1-5.6-8.3-8.4-13.9-6.3c-0.6,0.2-1.2,0.5-1.8,0.8c-1,0.6-2.4,0.3-3-0.8c-0.1-0.2-0.2-0.4-0.2-0.6c-2.2-9.1-11.4-14.6-20.5-12.4
		c-8.7,2.1-14.2,10.6-12.6,19.4c0.2,0.9-0.2,1.8-1,2.2c-5.1,3-6.8,9.7-3.8,14.8c1.9,3.3,5.5,5.3,9.3,5.3h46.2
		C709.6,401.2,714.4,396.3,714.4,390.4L714.4,390.4z M712.2,389.3c-0.6,0-1.1,0.5-1.1,1.1l0,0c0,4.2-3.4,7.6-7.6,7.6H697
		c-0.6,0-1.1,0.5-1.1,1.1s0.5,1.1,1.1,1.1h6.5c5.4,0,9.7-4.4,9.7-9.7C713.3,389.8,712.8,389.3,712.2,389.3L712.2,389.3z
		 M701.8,379.8l0.8,2.1c0.1,0.3,0.4,0.6,0.7,0.7l2.2,0.6c1.1,0.3,2.1,0.9,3,1.6c0.4,0.4,1.1,0.3,1.5-0.1l0,0
		c0.4-0.4,0.3-1.1-0.1-1.5l0,0c-1.1-1-2.5-1.6-3.9-2l-1.6-0.4l-0.6-1.6c-1.4-3.8-5-6.3-9.1-6.4c-1.8,0-3.5,0.5-5,1.4
		c-0.5,0.3-0.7,1-0.4,1.5s1,0.7,1.5,0.4c1.2-0.7,2.5-1.1,3.9-1.1C697.8,374.9,700.6,376.8,701.8,379.8L701.8,379.8z"/>
	<g>
		<path class="st1" d="M371.9,203.8c-0.2-1.2-0.5-2.4-0.9-3.6c-1.4-4.4-3.7-8.4-6.8-11.8c-2.6-2.9-5.7-5.2-9.2-7
			c-2.6-1.3-5.2-2.2-8-2.8c-1.4-0.3-2.7-0.4-4.1-0.5c-1.6-0.1-3.2-0.1-4.8,0.1c-1.6,0.1-3.1,0.4-4.6,0.8c-1.7,0.4-3.4,1-5,1.7
			c-0.1,0.1-0.3,0.1-0.4,0c-2.1-0.9-4.2-1.5-6.4-2c-2-0.4-4-0.6-5.8-0.6c-2.8,0-5.3,0.3-7.8,0.9c-1.9,0.5-3.7,1.1-5.5,1.9
			c-4.8,2.2-8.8,5.4-12,9.5c-3.4,4.4-5.5,9.4-6.3,15c-0.2,1.3-0.3,2.5-0.3,3.8c0,1.7,0.1,3.5,0.4,5.2c0.2,1.6,0.6,3.2,1.1,4.8
			c1.3,4.2,3.5,7.9,6.4,11.2c1.8,2,3.8,3.8,6,5.3c4.9,3.3,10.3,5.1,16.2,5.4c2.4,0.1,4.9,0,7.3-0.5c2.3-0.4,4.5-1.1,6.6-2
			c0.2-0.1,0.4-0.1,0.6,0c1.2,0.5,2.5,1,3.7,1.3c2.4,0.7,4.8,1.1,7.2,1.2c2,0.1,3.9,0,5.9-0.3c1.3-0.2,2.6-0.5,3.8-0.8
			c2.8-0.8,5.5-1.9,8-3.4c3.8-2.3,6.9-5.3,9.5-8.9c2.7-3.9,4.4-8.1,5.3-12.7c0.2-1.1,0.3-2.1,0.4-3.2
			C372.6,209.1,372.4,206.4,371.9,203.8z M356.2,190.5c0.7,0,1.3,0,2,0c0.3,0,0.4-0.1,0.4-0.3c0.2-0.6,0.4-1.2,0.6-1.9
			c0-0.1,0.1-0.2,0.2-0.3c0.2,0.8,0.5,1.5,0.7,2.2c0.1,0.2,0.2,0.2,0.3,0.2c0.7,0,1.3,0,2,0c0.1,0,0.2,0,0.3,0
			c-0.1,0.2-0.3,0.3-0.4,0.4c-0.4,0.3-0.9,0.7-1.4,1c-0.2,0.1-0.2,0.2-0.2,0.5c0.2,0.7,0.5,1.4,0.7,2.2c0,0,0,0-0.1,0
			c-0.6-0.4-1.2-0.9-1.8-1.3c-0.2-0.2-0.4-0.2-0.6,0c-0.5,0.4-1,0.7-1.5,1.1c-0.1,0.1-0.2,0.2-0.3,0.2c0.2-0.5,0.3-1,0.5-1.5
			c0-0.2,0.1-0.3,0.1-0.5c0.2-0.5,0.2-0.5-0.3-0.8c-0.5-0.3-0.9-0.7-1.4-1c-0.1-0.1-0.2-0.1-0.2-0.2
			C356,190.5,356.1,190.5,356.2,190.5z M343.4,183.9c0.2,0,0.3-0.1,0.4-0.3c0.2-0.7,0.5-1.4,0.8-2.1c0.1,0.4,0.2,0.7,0.4,1.1
			c0.1,0.4,0.2,0.7,0.4,1.1c0,0.2,0.1,0.2,0.3,0.2c0.8,0,1.5,0,2.3,0c0,0,0,0.1,0,0.1c-0.3,0.2-0.6,0.4-0.9,0.7
			c-0.3,0.2-0.6,0.5-0.9,0.7c-0.2,0.1-0.3,0.3-0.2,0.5c0.2,0.6,0.4,1.3,0.6,1.9c0,0.1,0.1,0.1,0,0.2c-0.2-0.1-0.4-0.2-0.6-0.4
			c-0.4-0.3-0.9-0.6-1.3-1c-0.2-0.1-0.3-0.1-0.4,0c-0.5,0.4-1.1,0.8-1.6,1.2c-0.1,0.1-0.1,0.1-0.3,0.1c0.1-0.4,0.2-0.7,0.3-1.1
			c0.1-0.4,0.2-0.8,0.4-1.1c0.1-0.2,0-0.3-0.1-0.4c-0.6-0.4-1.1-0.8-1.7-1.2c-0.1,0-0.1-0.1-0.1-0.2
			C341.9,183.9,342.7,183.8,343.4,183.9z M325.3,184.3c0.7,0,1.4,0,2,0c0.2,0,0.3-0.1,0.4-0.3c0.2-0.7,0.4-1.3,0.6-2
			c0-0.1,0-0.1,0.1-0.2c0.1,0.4,0.3,0.9,0.4,1.3c0.1,0.3,0.2,0.6,0.3,0.9c0,0.2,0.1,0.2,0.3,0.2c0.8,0,1.5,0,2.4,0
			c-0.2,0.2-0.4,0.3-0.5,0.4c-0.4,0.3-0.9,0.7-1.3,0.9c-0.3,0.2-0.3,0.3-0.2,0.6c0.2,0.6,0.4,1.2,0.6,1.8c0,0.1,0.1,0.1,0,0.2
			c-0.6-0.4-1.2-0.9-1.8-1.3c-0.2-0.2-0.3-0.2-0.5,0c-0.6,0.4-1.2,0.9-1.8,1.3c0,0,0,0-0.1,0c0.2-0.6,0.4-1.3,0.6-1.9
			c0.2-0.5,0.2-0.5-0.3-0.8c-0.5-0.4-1.1-0.8-1.6-1.2C325.1,184.2,325.2,184.3,325.3,184.3z M310.8,183.9c0.2,0,0.3,0,0.4-0.2
			c0.2-0.7,0.5-1.5,0.7-2.2c0.2,0.2,0.2,0.5,0.3,0.7c0.2,0.5,0.3,1,0.5,1.5c0.1,0.2,0.1,0.2,0.3,0.2c0.7,0,1.3,0,2,0
			c0.1,0,0.2,0,0.3,0c0,0.2-0.1,0.2-0.2,0.2c-0.5,0.4-1,0.8-1.6,1.1c-0.2,0.1-0.3,0.3-0.2,0.5c0.2,0.7,0.5,1.4,0.7,2.1
			c-0.1,0-0.2-0.1-0.3-0.1c-0.6-0.4-1.1-0.8-1.7-1.2c-0.2-0.1-0.3-0.1-0.4,0c-0.6,0.5-1.2,0.9-1.9,1.4c0-0.3,0.1-0.6,0.2-0.8
			c0.1-0.5,0.3-1,0.5-1.5c0.1-0.2,0-0.3-0.1-0.4c-0.6-0.4-1.1-0.8-1.7-1.2c-0.1,0-0.1-0.1-0.2-0.2
			C309.3,183.9,310.1,183.9,310.8,183.9z M295.7,191.7c0.1,0,0.3,0,0.4,0c0.2,0,0.3-0.1,0.3-0.2c0.2-0.7,0.4-1.3,0.6-2
			c0-0.1,0-0.2,0.2-0.2c0.2,0.7,0.5,1.5,0.7,2.2c0.1,0.2,0.1,0.2,0.3,0.2c0.7,0,1.3,0,2,0c0.1,0,0.2,0,0.3,0
			c-0.1,0.1-0.2,0.2-0.3,0.2c-0.5,0.4-1.1,0.8-1.6,1.1c-0.2,0.1-0.2,0.2-0.1,0.4c0.2,0.6,0.4,1.3,0.6,1.9c0,0.1,0.1,0.2,0.1,0.4
			c-0.5-0.4-0.9-0.7-1.4-1c-0.3-0.2-0.5-0.5-0.8-0.5c-0.3,0-0.5,0.3-0.7,0.5c-0.4,0.3-0.9,0.6-1.3,0.9c0,0,0,0-0.1,0
			c0-0.3,0.2-0.6,0.3-0.9c0.1-0.4,0.3-0.9,0.4-1.3c0.1-0.2,0-0.3-0.1-0.4c-0.6-0.4-1.1-0.8-1.7-1.2c-0.1,0-0.1-0.1-0.1-0.2
			C294.5,191.7,295.1,191.7,295.7,191.7z M287.5,209.5c0.2-0.5,0.3-1,0.5-1.4c0.1-0.3,0.2-0.5,0.3-0.8c0.1-0.2,0-0.3-0.1-0.4
			c-0.5-0.4-1.1-0.8-1.6-1.2c-0.1-0.1-0.2-0.1-0.2-0.2c0.1-0.1,0.2,0,0.3,0c0.7,0,1.4,0,2,0c0.2,0,0.3-0.1,0.4-0.3
			c0.2-0.7,0.4-1.3,0.6-2c0-0.1,0-0.2,0.1-0.2c0.1,0,0.1,0.1,0.1,0.2c0.2,0.7,0.4,1.3,0.7,2c0.1,0.2,0.1,0.2,0.3,0.2
			c0.8,0,1.5,0,2.3,0c0,0.1-0.1,0.2-0.2,0.3c-0.5,0.4-1,0.8-1.6,1.1c-0.2,0.1-0.2,0.2-0.2,0.5c0.2,0.6,0.4,1.3,0.6,1.9
			c0,0.1,0.1,0.1,0,0.3c-0.6-0.5-1.2-0.9-1.8-1.3c-0.2-0.1-0.3-0.1-0.5,0c-0.5,0.4-1,0.8-1.6,1.2
			C287.7,209.4,287.6,209.5,287.5,209.5z M295.8,222.3c-0.5,0.4-1.1,0.8-1.7,1.2c-0.2,0.1-0.2,0.2-0.1,0.4c0.2,0.7,0.5,1.4,0.7,2.1
			c0,0,0,0.1,0,0.2c-0.4-0.3-0.8-0.5-1.1-0.8c-0.3-0.2-0.5-0.4-0.8-0.5c-0.1-0.1-0.2-0.1-0.4,0c-0.6,0.4-1.2,0.9-1.7,1.3
			c0,0-0.1,0.1-0.2,0c0.2-0.7,0.4-1.4,0.7-2.1c0.1-0.3,0.1-0.4-0.2-0.6c-0.6-0.4-1.2-0.9-1.8-1.3c0,0,0,0,0-0.1c0.7,0,1.5,0,2.2,0
			c0.2,0,0.4-0.1,0.4-0.3c0.2-0.7,0.5-1.5,0.7-2.3c0.2,0.7,0.4,1.3,0.6,1.9c0.2,0.7,0.2,0.7,0.9,0.7c0.6,0,1.2,0,1.9,0
			C296,222.2,295.9,222.3,295.8,222.3z M307.3,233.5c-0.5,0.4-1,0.7-1.5,1.1c-0.2,0.1-0.2,0.3-0.1,0.4c0.2,0.7,0.4,1.3,0.7,2
			c0,0,0,0.1,0,0.2c-0.2,0-0.2-0.1-0.3-0.2c-0.5-0.4-1.1-0.8-1.6-1.2c-0.2-0.1-0.3-0.1-0.4,0c-0.5,0.4-1.1,0.8-1.6,1.2
			c-0.1,0.1-0.1,0.1-0.3,0.1c0.1-0.4,0.3-0.8,0.4-1.3c0.1-0.3,0.2-0.6,0.3-0.9c0.1-0.2,0-0.3-0.2-0.5c-0.6-0.4-1.1-0.8-1.7-1.2
			c0,0-0.1-0.1-0.1-0.1c0,0,0,0,0-0.1c0.7,0,1.4,0,2.2,0c0.3,0,0.4-0.1,0.5-0.4c0.2-0.7,0.4-1.4,0.7-2.1c0.1,0,0.1,0.1,0.1,0.2
			c0.2,0.7,0.4,1.3,0.6,2c0.1,0.2,0.2,0.3,0.4,0.3c0.7,0,1.3,0,2,0c0.1,0,0.2,0,0.3,0C307.5,233.4,307.4,233.5,307.3,233.5z
			 M322.1,237.3c0.2,0.6,0.4,1.3,0.6,1.9c0,0.1,0.1,0.2,0,0.3c-0.5-0.3-0.9-0.6-1.3-1c-0.3-0.2-0.5-0.5-0.8-0.5
			c-0.3,0-0.5,0.3-0.8,0.5c-0.4,0.3-0.9,0.6-1.3,1c0-0.3,0.1-0.5,0.2-0.7c0.2-0.5,0.3-1,0.5-1.5c0.1-0.2,0-0.3-0.2-0.5
			c-0.6-0.4-1.2-0.9-1.8-1.3c0,0,0,0,0,0c0.1-0.1,0.2,0,0.3,0c0.7,0,1.3,0,2,0c0.2,0,0.3-0.1,0.4-0.3c0.2-0.7,0.4-1.3,0.6-2
			c0-0.1,0-0.1,0.1-0.2c0.2,0.7,0.5,1.5,0.7,2.2c0.1,0.2,0.1,0.3,0.4,0.3c0.7,0,1.3,0,2,0c0.1,0,0.2,0,0.3,0c0,0,0,0,0,0.1
			c-0.6,0.4-1.2,0.9-1.8,1.3C322.1,236.9,322,237,322.1,237.3z M330.6,229.3c-1.7,0.9-3.5,1.6-5.4,2.1c-2.3,0.6-4.6,0.7-6.9,0.5
			c-5.2-0.5-9.7-2.5-13.4-6.2c-2.4-2.4-4.2-5.1-5.3-8.3c-0.1-0.2-0.2-0.3-0.4-0.3c-2,0-4,0-6.1,0c-0.1,0-0.1,0-0.2,0
			c0.3-0.6,0.5-1.2,0.8-1.8c0.4-1,0.8-1.9,1.2-2.9c0.1-0.2,0.2-0.3,0.4-0.3c0.9,0,1.9,0,2.8,0c0.2,0,0.3,0,0.2-0.2
			c-0.1-0.6-0.1-1.2-0.1-1.9c0-0.2-0.1-0.3-0.3-0.3c-1.6,0-3.2,0-4.8,0c-0.3,0-0.3,0-0.2-0.3c0.7-1.5,1.3-3,1.9-4.5
			c0.1-0.2,0.2-0.3,0.4-0.3c1.1,0,2.2,0,3.3,0c0.2,0,0.3-0.1,0.4-0.3c1.3-4.8,3.9-8.7,7.8-11.7c2.6-2.1,5.6-3.4,8.9-4.1
			c1.9-0.4,3.9-0.5,5.8-0.4c3.2,0.2,6.3,1.1,9.1,2.6c0.3,0.2,0.3,0.2,0,0.4c-1.9,1.2-3.6,2.7-5,4.4c-0.1,0.2-0.2,0.2-0.5,0.1
			c-1.9-0.6-3.8-0.9-5.8-0.8c-6,0.3-11.1,4.2-13.3,9.5c-0.1,0.3-0.1,0.3,0.2,0.3c3.1,0,6.2,0,9.3,0c0.4,0,0.4,0,0.4,0.4
			c0,1.4,0,2.9,0,4.3c0,0.3-0.1,0.3-0.3,0.3c-3.4,0-6.9,0-10.3,0c-0.4,0-0.4,0-0.4,0.4c0,0.6,0.1,1.2,0.1,1.7c0,0.2,0.1,0.2,0.3,0.2
			c0.5,0,1,0,1.4,0c2.8,0,5.7,0,8.5,0c0.2,0,0.3,0.1,0.3,0.3c0,1.5,0,2.9,0,4.4c0,0.2-0.1,0.3-0.3,0.3c-2.7,0-5.5,0-8.2,0
			c-0.4,0-0.4,0-0.2,0.3c2.1,3.7,5.2,6.1,9.3,7.3c1.9,0.5,3.9,0.6,5.9,0.4c1-0.1,2.1-0.4,3-0.7c0.2-0.1,0.3-0.1,0.5,0.1
			c1.5,1.7,3.2,3.2,5.1,4.4C330.9,229.2,330.9,229.2,330.6,229.3z M338.3,236.8c-0.2,0.1-0.2,0.3-0.2,0.5c0.2,0.7,0.5,1.4,0.6,2.2
			c-0.4-0.3-0.9-0.6-1.3-1c-0.3-0.2-0.5-0.5-0.8-0.5c-0.3,0-0.5,0.3-0.7,0.5c-0.4,0.3-0.9,0.6-1.3,0.9c0,0,0,0-0.1,0
			c0.2-0.5,0.4-1.1,0.5-1.6c0.1-0.3,0.3-0.6,0.2-0.9c-0.1-0.2-0.5-0.4-0.7-0.6c-0.4-0.3-0.9-0.6-1.3-1c0.1-0.1,0.2-0.1,0.3-0.1
			c0.7,0,1.3,0,2,0c0.2,0,0.3-0.1,0.4-0.3c0.2-0.6,0.4-1.3,0.6-1.9c0-0.1,0.1-0.2,0.1-0.3c0.2,0.7,0.5,1.4,0.7,2.1
			c0.1,0.5,0.1,0.5,0.6,0.5c0.6,0,1.2,0,1.8,0c0.1,0,0.2,0,0.3,0C339.6,235.9,338.9,236.4,338.3,236.8z M355.5,233.5
			c-0.5,0.4-1,0.7-1.5,1.1c-0.2,0.1-0.3,0.3-0.2,0.6c0.2,0.6,0.4,1.2,0.6,1.9c0,0.1,0.1,0.1,0,0.3c-0.4-0.3-0.8-0.6-1.2-0.9
			c-0.2-0.2-0.4-0.3-0.7-0.5c-0.2-0.1-0.3-0.1-0.4,0c-0.5,0.4-1.1,0.8-1.6,1.2c-0.1,0.1-0.1,0.2-0.3,0.1c0.1-0.4,0.2-0.8,0.4-1.2
			c0.1-0.3,0.2-0.6,0.3-0.9c0.1-0.3,0-0.4-0.2-0.5c-0.5-0.4-1.1-0.8-1.6-1.1c-0.1,0-0.2-0.1-0.2-0.2c0.5,0,1,0,1.5,0
			c0.2,0,0.5,0,0.7,0c0.3,0,0.4-0.1,0.5-0.3c0.2-0.6,0.4-1.1,0.6-1.7c0-0.1,0-0.3,0.2-0.4c0.2,0.7,0.5,1.4,0.7,2.1
			c0.1,0.2,0.2,0.3,0.4,0.3c0.7,0,1.5,0,2.2,0C355.7,233.4,355.6,233.4,355.5,233.5z M342.5,230.7c-11.4,0-20.5-9.2-20.6-20.6
			c0-11.3,9.1-20.6,20.6-20.6c11.4,0,20.6,9.2,20.6,20.6C363.1,221.6,353.9,230.7,342.5,230.7z M366.1,223c-0.2,0.2-0.5,0.4-0.7,0.5
			c-0.2,0.1-0.2,0.2-0.1,0.4c0.2,0.7,0.5,1.5,0.7,2.2c0,0,0,0-0.1,0.1c-0.6-0.4-1.2-0.9-1.8-1.3c-0.2-0.2-0.3-0.1-0.5,0
			c-0.5,0.4-1.1,0.8-1.6,1.2c-0.1,0-0.1,0.1-0.2,0.1c0.2-0.6,0.4-1.2,0.5-1.7c0.3-0.8,0.3-0.8-0.4-1.3c-0.5-0.3-0.9-0.7-1.4-1
			c0.1-0.1,0.2-0.1,0.2-0.1c0.7,0,1.4,0,2,0c0.2,0,0.3,0,0.4-0.3c0.2-0.7,0.4-1.3,0.6-2c0-0.1,0-0.1,0.1-0.2c0.2,0.5,0.3,1,0.5,1.6
			c0.1,0.3,0.1,0.7,0.3,0.8c0.2,0.2,0.6,0,0.8,0c0.5,0,1.1,0,1.6,0c0,0,0,0,0.1,0C366.9,222.4,366.5,222.7,366.1,223z M369.9,205.9
			c-0.5,0.4-1,0.7-1.5,1.1c-0.2,0.1-0.2,0.2-0.1,0.4c0.2,0.7,0.5,1.4,0.7,2.2c0,0,0,0-0.1,0.1c-0.6-0.4-1.1-0.8-1.7-1.2
			c-0.4-0.3-0.4-0.3-0.8,0c-0.5,0.3-1,0.7-1.4,1c-0.1,0.1-0.1,0.1-0.3,0.1c0-0.1,0-0.2,0.1-0.3c0.2-0.6,0.4-1.3,0.6-1.9
			c0.1-0.2,0-0.3-0.1-0.4c-0.6-0.4-1.2-0.8-1.7-1.2c0,0-0.1-0.1-0.1-0.2c0.7,0,1.3,0,1.9,0c0.7,0,0.7,0,0.9-0.6
			c0.2-0.6,0.4-1.2,0.6-1.8c0.1,0.1,0.1,0.2,0.1,0.3c0.2,0.6,0.4,1.3,0.6,1.9c0.1,0.2,0.1,0.2,0.3,0.2c0.7,0,1.3,0,2,0
			c0.1,0,0.2,0,0.3,0c0,0,0,0,0,0.1C370.2,205.7,370.1,205.8,369.9,205.9z"/>
		<path class="st1" d="M342.5,191.3c-10.3,0-18.9,8.4-18.9,18.9c0,10.4,8.4,18.9,19,18.9c10.4-0.1,18.8-8.5,18.8-19
			C361.4,199.7,352.9,191.3,342.5,191.3z M342.5,225.1c-8.2,0-14.9-6.7-14.9-14.9c0-8.2,6.7-14.9,14.9-14.9
			c8.2,0,14.9,6.7,14.9,14.9C357.4,218.5,350.7,225.1,342.5,225.1z"/>
		<path class="st1" d="M351,210.3c-0.5-0.5-1.1-0.7-1.8-0.9c-0.1,0-0.2,0-0.2-0.1c0-0.1,0.1-0.1,0.1-0.1c1-0.6,1.5-1.5,1.7-2.7
			c0.2-1.6-0.6-3.1-2-3.9c-1-0.5-2.1-0.7-3.2-0.8c-0.2,0-0.3-0.1-0.3-0.3c0-1,0-2.1,0-3.1c0-0.2-0.1-0.3-0.3-0.3c-0.5,0-1.1,0-1.6,0
			c-0.2,0-0.3,0.1-0.3,0.3c0,1,0,2.1,0,3.1c0,0.2-0.1,0.3-0.3,0.3c-0.4,0-0.8,0-1.3,0c-0.2,0-0.3-0.1-0.3-0.3c0-1,0-2,0-3
			c0-0.2-0.1-0.3-0.3-0.3c-0.5,0-1.1,0-1.6,0c-0.2,0-0.3,0.1-0.3,0.3c0,1,0,2,0,3.1c0,0.3-0.1,0.3-0.3,0.3c-1.3,0-2.6,0-3.9,0
			c-0.2,0-0.3,0.1-0.3,0.3c0,0.6,0,1.2,0,1.8c0,0.2,0.1,0.3,0.3,0.3c0.4,0,0.9,0,1.3,0c0.9,0,1.3,0.4,1.3,1.3c0,1.6,0,3.2,0,4.8
			c0,1.6,0,3.2,0,4.8c0,0.6-0.3,0.9-0.9,0.9c-0.4,0-0.9,0-1.3,0c-0.2,0-0.3,0-0.3,0.2c-0.1,0.7-0.2,1.4-0.4,2.1c0,0.3,0,0.3,0.3,0.3
			c1.3,0,2.6,0,3.9,0c0.3,0,0.4,0.1,0.4,0.3c0,1,0,2.1,0,3.1c0,0.2,0.1,0.3,0.3,0.3c0.5,0,1.1,0,1.6,0c0.2,0,0.3-0.1,0.3-0.3
			c0-1,0-2.1,0-3.1c0-0.2,0.1-0.3,0.3-0.3c0.4,0,0.8,0,1.3,0c0.2,0,0.3,0.1,0.3,0.3c0,1,0,2,0,3c0,0.3,0.1,0.4,0.4,0.3
			c0.5,0,1,0,1.4,0c0.4,0,0.4,0,0.4-0.4c0-1,0-2,0-3c0-0.2,0.1-0.3,0.3-0.3c0.3,0,0.6,0,0.9-0.1c1-0.1,1.9-0.3,2.8-0.7
			c0.9-0.4,1.7-1,2.2-1.9c0.6-1.2,0.7-2.4,0.5-3.7C351.9,211.5,351.5,210.9,351,210.3z M341.6,204.3c0.9,0,1.8,0,2.7,0.1
			c0.7,0.1,1.3,0.3,1.8,0.9c0.9,1,0.5,2.6-0.7,3.1c-1.2,0.4-2.5,0.5-3.8,0.5c-0.2,0-0.2-0.1-0.2-0.3c0-0.7,0-1.3,0-2
			c0-0.7,0-1.3,0-2C341.3,204.3,341.4,204.3,341.6,204.3z M346.8,215.1c-0.5,0.4-1.2,0.6-1.8,0.6c-1.1,0.1-2.2,0.2-3.3,0.2
			c-0.3,0-0.3-0.1-0.3-0.3c0-0.7,0-1.4,0-2.2c0-0.7,0-1.5,0-2.2c0-0.2,0.1-0.3,0.3-0.3c1,0,2.1,0,3.1,0.1c0.7,0.1,1.4,0.3,2,0.7
			C347.9,212.6,348,214.3,346.8,215.1z"/>
	</g>
	<g>
		<path class="st1" d="M328.2,272.2c-34.5,0-62.6-28.1-62.6-62.6c0-34.5,28.1-62.6,62.6-62.6s62.6,28.1,62.6,62.6
			C390.9,244.1,362.8,272.2,328.2,272.2z M328.2,154.1c-30.6,0-55.5,24.9-55.5,55.5c0,30.6,24.9,55.5,55.5,55.5s55.5-24.9,55.5-55.5
			C383.8,179,358.9,154.1,328.2,154.1z"/>
	</g>
	<g>
		<path class="st1" d="M474,250.4c-0.1-0.5-0.2-1-0.4-1.5c-0.6-1.9-1.5-3.5-2.9-5c-1.1-1.2-2.4-2.2-3.9-2.9
			c-1.1-0.5-2.2-0.9-3.4-1.2c-0.6-0.1-1.2-0.2-1.7-0.2c-0.7,0-1.3,0-2,0c-0.7,0.1-1.3,0.2-1.9,0.3c-0.7,0.2-1.4,0.4-2.1,0.7
			c-0.1,0-0.1,0-0.2,0c-0.9-0.4-1.8-0.6-2.7-0.8c-0.8-0.2-1.7-0.2-2.4-0.3c-1.2,0-2.2,0.1-3.3,0.4c-0.8,0.2-1.6,0.5-2.3,0.8
			c-2,0.9-3.7,2.3-5.1,4c-1.4,1.9-2.3,4-2.6,6.3c-0.1,0.5-0.1,1.1-0.1,1.6c0,0.7,0,1.4,0.2,2.2c0.1,0.7,0.3,1.3,0.5,2
			c0.6,1.8,1.5,3.3,2.7,4.7c0.7,0.8,1.6,1.6,2.5,2.2c2.1,1.4,4.3,2.2,6.8,2.3c1,0.1,2,0,3.1-0.2c0.9-0.2,1.9-0.5,2.8-0.8
			c0.1,0,0.2,0,0.3,0c0.5,0.2,1,0.4,1.6,0.6c1,0.3,2,0.4,3,0.5c0.8,0,1.7,0,2.5-0.1c0.5-0.1,1.1-0.2,1.6-0.3
			c1.2-0.3,2.3-0.8,3.3-1.4c1.6-1,2.9-2.2,4-3.7c1.1-1.6,1.9-3.4,2.2-5.3c0.1-0.4,0.1-0.9,0.2-1.3
			C474.2,252.6,474.2,251.5,474,250.4z M467.4,244.8c0.3,0,0.5,0,0.8,0c0.1,0,0.2,0,0.2-0.1c0.1-0.3,0.2-0.5,0.2-0.8
			c0,0,0-0.1,0.1-0.1c0.1,0.3,0.2,0.6,0.3,0.9c0,0.1,0.1,0.1,0.1,0.1c0.3,0,0.6,0,0.8,0c0,0,0.1,0,0.1,0c-0.1,0.1-0.1,0.1-0.2,0.2
			c-0.2,0.1-0.4,0.3-0.6,0.4c-0.1,0.1-0.1,0.1-0.1,0.2c0.1,0.3,0.2,0.6,0.3,0.9c0,0,0,0,0,0c-0.3-0.2-0.5-0.4-0.7-0.6
			c-0.1-0.1-0.2-0.1-0.2,0c-0.2,0.2-0.4,0.3-0.6,0.5c0,0-0.1,0.1-0.1,0.1c0.1-0.2,0.1-0.4,0.2-0.6c0-0.1,0-0.1,0.1-0.2
			c0.1-0.2,0.1-0.2-0.1-0.3c-0.2-0.1-0.4-0.3-0.6-0.4c0,0-0.1,0-0.1-0.1C467.3,244.8,467.3,244.8,467.4,244.8z M462,242
			c0.1,0,0.1,0,0.2-0.1c0.1-0.3,0.2-0.6,0.3-0.9c0.1,0.2,0.1,0.3,0.2,0.5c0.1,0.2,0.1,0.3,0.1,0.5c0,0.1,0.1,0.1,0.1,0.1
			c0.3,0,0.6,0,1,0c0,0,0,0,0,0c-0.1,0.1-0.2,0.2-0.4,0.3c-0.1,0.1-0.2,0.2-0.4,0.3c-0.1,0.1-0.1,0.1-0.1,0.2
			c0.1,0.3,0.2,0.5,0.3,0.8c0,0,0,0.1,0,0.1c-0.1,0-0.2-0.1-0.2-0.2c-0.2-0.1-0.4-0.3-0.6-0.4c-0.1,0-0.1-0.1-0.2,0
			c-0.2,0.2-0.5,0.3-0.7,0.5c0,0-0.1,0.1-0.1,0.1c0-0.2,0.1-0.3,0.1-0.4c0.1-0.2,0.1-0.3,0.2-0.5c0-0.1,0-0.1-0.1-0.2
			c-0.2-0.2-0.5-0.3-0.7-0.5c0,0-0.1,0,0-0.1C461.4,242,461.7,242,462,242z M454.4,242.2c0.3,0,0.6,0,0.9,0c0.1,0,0.1,0,0.2-0.1
			c0.1-0.3,0.2-0.6,0.3-0.8c0,0,0-0.1,0.1-0.1c0.1,0.2,0.1,0.4,0.2,0.6c0,0.1,0.1,0.2,0.1,0.4c0,0.1,0.1,0.1,0.1,0.1
			c0.3,0,0.6,0,1,0c-0.1,0.1-0.1,0.1-0.2,0.2c-0.2,0.1-0.4,0.3-0.6,0.4c-0.1,0.1-0.1,0.1-0.1,0.3c0.1,0.3,0.2,0.5,0.3,0.8
			c0,0,0,0.1,0,0.1c-0.3-0.2-0.5-0.4-0.8-0.5c-0.1-0.1-0.1-0.1-0.2,0c-0.2,0.2-0.5,0.4-0.8,0.5c0,0,0,0,0,0c0.1-0.3,0.2-0.5,0.3-0.8
			c0.1-0.2,0.1-0.2-0.1-0.4c-0.2-0.2-0.5-0.3-0.7-0.5C454.3,242.2,454.4,242.2,454.4,242.2z M448.3,242c0.1,0,0.1,0,0.1-0.1
			c0.1-0.3,0.2-0.6,0.3-0.9c0.1,0.1,0.1,0.2,0.1,0.3c0.1,0.2,0.1,0.4,0.2,0.6c0,0.1,0.1,0.1,0.1,0.1c0.3,0,0.6,0,0.8,0
			c0,0,0.1,0,0.1,0c0,0.1,0,0.1-0.1,0.1c-0.2,0.2-0.4,0.3-0.7,0.5c-0.1,0.1-0.1,0.1-0.1,0.2c0.1,0.3,0.2,0.6,0.3,0.9
			c-0.1,0-0.1,0-0.1-0.1c-0.2-0.2-0.5-0.3-0.7-0.5c-0.1,0-0.1,0-0.2,0c-0.3,0.2-0.5,0.4-0.8,0.6c0-0.1,0.1-0.2,0.1-0.3
			c0.1-0.2,0.1-0.4,0.2-0.6c0-0.1,0-0.1-0.1-0.2c-0.2-0.2-0.5-0.3-0.7-0.5c0,0-0.1,0-0.1-0.1C447.7,242,448,242,448.3,242z
			 M442,245.3c0.1,0,0.1,0,0.2,0c0.1,0,0.1,0,0.1-0.1c0.1-0.3,0.2-0.6,0.3-0.8c0,0,0-0.1,0.1-0.1c0.1,0.3,0.2,0.6,0.3,0.9
			c0,0.1,0.1,0.1,0.1,0.1c0.3,0,0.6,0,0.8,0c0,0,0.1,0,0.1,0c0,0.1-0.1,0.1-0.1,0.1c-0.2,0.2-0.4,0.3-0.7,0.5
			c-0.1,0-0.1,0.1-0.1,0.2c0.1,0.3,0.2,0.5,0.3,0.8c0,0,0,0.1,0,0.2c-0.2-0.2-0.4-0.3-0.6-0.4c-0.1-0.1-0.2-0.2-0.3-0.2
			c-0.1,0-0.2,0.1-0.3,0.2c-0.2,0.1-0.4,0.3-0.5,0.4c0,0,0,0,0,0c0-0.1,0.1-0.3,0.1-0.4c0.1-0.2,0.1-0.4,0.2-0.5
			c0-0.1,0-0.1-0.1-0.2c-0.2-0.2-0.5-0.3-0.7-0.5c0,0-0.1,0-0.1-0.1C441.5,245.3,441.7,245.3,442,245.3z M438.5,252.8
			c0.1-0.2,0.1-0.4,0.2-0.6c0-0.1,0.1-0.2,0.1-0.3c0-0.1,0-0.1-0.1-0.2c-0.2-0.2-0.5-0.3-0.7-0.5c0,0-0.1,0-0.1-0.1c0,0,0.1,0,0.1,0
			c0.3,0,0.6,0,0.9,0c0.1,0,0.1,0,0.1-0.1c0.1-0.3,0.2-0.5,0.3-0.8c0,0,0-0.1,0-0.1c0.1,0,0,0,0,0.1c0.1,0.3,0.2,0.6,0.3,0.8
			c0,0.1,0.1,0.1,0.1,0.1c0.3,0,0.6,0,1,0c0,0.1-0.1,0.1-0.1,0.1c-0.2,0.2-0.4,0.3-0.7,0.5c-0.1,0.1-0.1,0.1-0.1,0.2
			c0.1,0.3,0.2,0.5,0.3,0.8c0,0,0,0.1,0,0.1c-0.3-0.2-0.5-0.4-0.8-0.6c-0.1-0.1-0.1-0.1-0.2,0c-0.2,0.2-0.4,0.3-0.7,0.5
			C438.6,252.8,438.6,252.8,438.5,252.8z M442,258.2c-0.2,0.2-0.5,0.3-0.7,0.5c-0.1,0-0.1,0.1,0,0.2c0.1,0.3,0.2,0.6,0.3,0.9
			c0,0,0,0,0,0.1c-0.2-0.1-0.3-0.2-0.5-0.3c-0.1-0.1-0.2-0.1-0.3-0.2c-0.1,0-0.1,0-0.2,0c-0.2,0.2-0.5,0.4-0.7,0.5c0,0,0,0-0.1,0
			c0.1-0.3,0.2-0.6,0.3-0.9c0-0.1,0-0.2-0.1-0.2c-0.3-0.2-0.5-0.4-0.7-0.5c0,0,0,0,0,0c0.3,0,0.6,0,0.9,0c0.1,0,0.1,0,0.2-0.1
			c0.1-0.3,0.2-0.6,0.3-0.9c0.1,0.3,0.2,0.5,0.3,0.8c0.1,0.3,0.1,0.3,0.4,0.3C441.6,258.1,441.8,258.1,442,258.2
			C442.1,258.1,442.1,258.1,442,258.2z M446.8,262.9c-0.2,0.2-0.4,0.3-0.6,0.5c-0.1,0.1-0.1,0.1-0.1,0.2c0.1,0.3,0.2,0.6,0.3,0.8
			c0,0,0,0,0,0.1c-0.1,0-0.1,0-0.1-0.1c-0.2-0.2-0.4-0.3-0.7-0.5c-0.1-0.1-0.1,0-0.2,0c-0.2,0.2-0.4,0.3-0.7,0.5
			c0,0-0.1,0.1-0.1,0.1c0.1-0.2,0.1-0.4,0.2-0.5c0-0.1,0.1-0.3,0.1-0.4c0-0.1,0-0.1-0.1-0.2c-0.2-0.2-0.5-0.3-0.7-0.5c0,0,0,0-0.1,0
			c0,0,0,0,0,0c0.3,0,0.6,0,0.9,0c0.1,0,0.2,0,0.2-0.2c0.1-0.3,0.2-0.6,0.3-0.9c0.1,0,0.1,0.1,0.1,0.1c0.1,0.3,0.2,0.5,0.3,0.8
			c0,0.1,0.1,0.1,0.2,0.1c0.3,0,0.6,0,0.8,0c0,0,0.1,0,0.1,0C446.9,262.8,446.9,262.8,446.8,262.9z M453,264.4
			c0.1,0.3,0.2,0.5,0.3,0.8c0,0,0,0.1,0,0.1c-0.2-0.1-0.4-0.3-0.6-0.4c-0.1-0.1-0.2-0.2-0.3-0.2c-0.1,0-0.2,0.1-0.3,0.2
			c-0.2,0.1-0.4,0.3-0.6,0.4c0-0.1,0-0.2,0.1-0.3c0.1-0.2,0.1-0.4,0.2-0.6c0-0.1,0-0.1-0.1-0.2c-0.3-0.2-0.5-0.4-0.8-0.5
			c0,0,0,0,0,0c0,0,0.1,0,0.1,0c0.3,0,0.6,0,0.8,0c0.1,0,0.1,0,0.2-0.1c0.1-0.3,0.2-0.6,0.3-0.8c0,0,0-0.1,0.1-0.1
			c0.1,0.3,0.2,0.6,0.3,0.9c0,0.1,0.1,0.1,0.1,0.1c0.3,0,0.6,0,0.8,0c0,0,0.1,0,0.1,0c0,0,0,0,0,0c-0.3,0.2-0.5,0.4-0.8,0.6
			C453,264.3,453,264.3,453,264.4z M456.6,261.1c-0.7,0.4-1.5,0.7-2.3,0.9c-1,0.2-1.9,0.3-2.9,0.2c-2.2-0.2-4.1-1.1-5.6-2.6
			c-1-1-1.8-2.2-2.2-3.5c0-0.1-0.1-0.1-0.2-0.1c-0.8,0-1.7,0-2.5,0c0,0,0,0-0.1,0c0.1-0.3,0.2-0.5,0.3-0.8c0.2-0.4,0.4-0.8,0.5-1.2
			c0-0.1,0.1-0.1,0.2-0.1c0.4,0,0.8,0,1.2,0c0.1,0,0.1,0,0.1-0.1c-0.1-0.3,0-0.5,0-0.8c0-0.1,0-0.1-0.1-0.1c-0.7,0-1.4,0-2,0
			c-0.1,0-0.1,0-0.1-0.1c0.3-0.6,0.5-1.3,0.8-1.9c0-0.1,0.1-0.1,0.2-0.1c0.5,0,0.9,0,1.4,0c0.1,0,0.1,0,0.1-0.1
			c0.5-2,1.6-3.6,3.3-4.9c1.1-0.9,2.4-1.4,3.7-1.7c0.8-0.2,1.6-0.2,2.4-0.2c1.4,0.1,2.6,0.5,3.8,1.1c0.1,0.1,0.1,0.1,0,0.2
			c-0.8,0.5-1.5,1.1-2.1,1.8c-0.1,0.1-0.1,0.1-0.2,0.1c-0.8-0.3-1.6-0.4-2.4-0.3c-2.5,0.1-4.7,1.7-5.6,4c-0.1,0.1-0.1,0.1,0.1,0.1
			c1.3,0,2.6,0,3.9,0c0.2,0,0.2,0,0.2,0.2c0,0.6,0,1.2,0,1.8c0,0.1,0,0.1-0.1,0.1c-1.4,0-2.9,0-4.3,0c-0.2,0-0.2,0-0.2,0.2
			c0,0.2,0,0.5,0.1,0.7c0,0.1,0,0.1,0.1,0.1c0.2,0,0.4,0,0.6,0c1.2,0,2.4,0,3.6,0c0.1,0,0.1,0,0.1,0.1c0,0.6,0,1.2,0,1.8
			c0,0.1,0,0.1-0.1,0.1c-1.2,0-2.3,0-3.5,0c-0.1,0-0.2,0-0.1,0.1c0.9,1.6,2.2,2.6,3.9,3.1c0.8,0.2,1.6,0.3,2.5,0.2
			c0.4-0.1,0.9-0.2,1.3-0.3c0.1,0,0.1,0,0.2,0.1c0.6,0.7,1.3,1.3,2.1,1.8C456.7,261.1,456.7,261.1,456.6,261.1z M459.9,264.3
			c-0.1,0.1-0.1,0.1-0.1,0.2c0.1,0.3,0.2,0.6,0.3,0.9c-0.2-0.1-0.4-0.3-0.6-0.4c-0.1-0.1-0.2-0.2-0.3-0.2c-0.1,0-0.2,0.1-0.3,0.2
			c-0.2,0.1-0.4,0.3-0.5,0.4c0,0,0,0,0,0c0.1-0.2,0.1-0.4,0.2-0.7c0-0.1,0.1-0.3,0.1-0.4c0-0.1-0.2-0.2-0.3-0.2
			c-0.2-0.1-0.4-0.3-0.6-0.4c0,0,0.1,0,0.1,0c0.3,0,0.6,0,0.8,0c0.1,0,0.1,0,0.2-0.1c0.1-0.3,0.2-0.5,0.3-0.8c0,0,0-0.1,0.1-0.1
			c0.1,0.3,0.2,0.6,0.3,0.9c0.1,0.2,0.1,0.2,0.3,0.2c0.3,0,0.5,0,0.8,0c0,0,0.1,0,0.1,0C460.4,263.9,460.1,264.1,459.9,264.3z
			 M467.1,262.9c-0.2,0.2-0.4,0.3-0.6,0.5c-0.1,0.1-0.1,0.1-0.1,0.2c0.1,0.3,0.2,0.5,0.3,0.8c0,0,0,0.1,0,0.1
			c-0.2-0.1-0.3-0.2-0.5-0.4c-0.1-0.1-0.2-0.1-0.3-0.2c-0.1-0.1-0.1,0-0.2,0c-0.2,0.2-0.4,0.3-0.7,0.5c0,0-0.1,0.1-0.1,0.1
			c0.1-0.2,0.1-0.3,0.2-0.5c0-0.1,0.1-0.3,0.1-0.4c0-0.1,0-0.2-0.1-0.2c-0.2-0.2-0.4-0.3-0.7-0.5c0,0-0.1,0-0.1-0.1
			c0.2,0,0.4,0,0.6,0c0.1,0,0.2,0,0.3,0c0.1,0,0.2,0,0.2-0.1c0.1-0.2,0.2-0.5,0.2-0.7c0,0,0-0.1,0.1-0.2c0.1,0.3,0.2,0.6,0.3,0.9
			c0,0.1,0.1,0.1,0.2,0.1c0.3,0,0.6,0,0.9,0C467.1,262.8,467.1,262.8,467.1,262.9z M461.6,261.7c-4.8,0-8.6-3.9-8.6-8.6
			c0-4.7,3.8-8.6,8.6-8.6c4.8,0,8.6,3.9,8.6,8.6C470.3,257.9,466.4,261.7,461.6,261.7z M471.5,258.5c-0.1,0.1-0.2,0.1-0.3,0.2
			c-0.1,0-0.1,0.1,0,0.2c0.1,0.3,0.2,0.6,0.3,0.9c0,0,0,0,0,0c-0.3-0.2-0.5-0.4-0.8-0.6c-0.1-0.1-0.1-0.1-0.2,0
			c-0.2,0.2-0.5,0.3-0.7,0.5c0,0,0,0-0.1,0.1c0.1-0.3,0.2-0.5,0.2-0.7c0.1-0.3,0.1-0.3-0.2-0.5c-0.2-0.1-0.4-0.3-0.6-0.4
			c0,0,0.1,0,0.1,0c0.3,0,0.6,0,0.9,0c0.1,0,0.1,0,0.2-0.1c0.1-0.3,0.2-0.6,0.3-0.8c0,0,0-0.1,0.1-0.1c0.1,0.2,0.1,0.4,0.2,0.7
			c0,0.1,0,0.3,0.1,0.3c0.1,0.1,0.2,0,0.4,0c0.2,0,0.5,0,0.7,0c0,0,0,0,0,0C471.9,258.2,471.7,258.3,471.5,258.5z M473.1,251.3
			c-0.2,0.2-0.4,0.3-0.6,0.4c-0.1,0.1-0.1,0.1-0.1,0.2c0.1,0.3,0.2,0.6,0.3,0.9c0,0,0,0,0,0c-0.2-0.2-0.5-0.3-0.7-0.5
			c-0.2-0.1-0.2-0.1-0.3,0c-0.2,0.1-0.4,0.3-0.6,0.4c0,0-0.1,0.1-0.1,0.1c0-0.1,0-0.1,0-0.1c0.1-0.3,0.2-0.5,0.3-0.8
			c0-0.1,0-0.1-0.1-0.2c-0.2-0.2-0.5-0.3-0.7-0.5c0,0,0,0,0-0.1c0.3,0,0.5,0,0.8,0c0.3,0,0.3,0,0.4-0.3c0.1-0.3,0.2-0.5,0.3-0.8
			c0,0,0,0.1,0.1,0.1c0.1,0.3,0.2,0.5,0.3,0.8c0,0.1,0.1,0.1,0.1,0.1c0.3,0,0.6,0,0.8,0c0,0,0.1,0,0.1,0c0,0,0,0,0,0
			C473.2,251.2,473.2,251.2,473.1,251.3z"/>
		<path class="st1" d="M461.6,245.1c-4.3,0-7.9,3.5-7.9,7.9c0,4.4,3.5,7.9,8,7.9c4.4,0,7.9-3.6,7.9-8
			C469.6,248.7,466,245.1,461.6,245.1z M461.6,259.3c-3.5,0-6.3-2.8-6.3-6.3c0-3.5,2.8-6.3,6.3-6.3c3.5,0,6.3,2.8,6.3,6.3
			C467.9,256.6,465.1,259.3,461.6,259.3z"/>
		<path class="st1" d="M465.2,253.1c-0.2-0.2-0.5-0.3-0.8-0.4c0,0-0.1,0-0.1,0c0,0,0,0,0.1-0.1c0.4-0.3,0.6-0.6,0.7-1.1
			c0.1-0.7-0.2-1.3-0.9-1.6c-0.4-0.2-0.9-0.3-1.3-0.4c-0.1,0-0.1,0-0.1-0.1c0-0.4,0-0.9,0-1.3c0-0.1,0-0.1-0.1-0.1
			c-0.2,0-0.5,0-0.7,0c-0.1,0-0.1,0-0.1,0.1c0,0.4,0,0.9,0,1.3c0,0.1,0,0.1-0.1,0.1c-0.2,0-0.4,0-0.5,0c-0.1,0-0.1,0-0.1-0.1
			c0-0.4,0-0.8,0-1.3c0-0.1,0-0.1-0.1-0.1c-0.2,0-0.5,0-0.7,0c-0.1,0-0.1,0-0.1,0.1c0,0.4,0,0.9,0,1.3c0,0.1,0,0.1-0.1,0.1
			c-0.5,0-1.1,0-1.6,0c-0.1,0-0.1,0-0.1,0.1c0,0.3,0,0.5,0,0.8c0,0.1,0,0.1,0.1,0.1c0.2,0,0.4,0,0.6,0c0.4,0,0.6,0.2,0.6,0.6
			c0,0.7,0,1.3,0,2c0,0.7,0,1.4,0,2c0,0.3-0.1,0.4-0.4,0.4c-0.2,0-0.4,0-0.5,0c-0.1,0-0.1,0-0.1,0.1c0,0.3-0.1,0.6-0.1,0.9
			c0,0.1,0,0.1,0.1,0.1c0.5,0,1.1,0,1.6,0c0.1,0,0.2,0,0.2,0.1c0,0.4,0,0.9,0,1.3c0,0.1,0,0.1,0.1,0.1c0.2,0,0.4,0,0.7,0
			c0.1,0,0.1,0,0.1-0.1c0-0.4,0-0.9,0-1.3c0-0.1,0-0.1,0.1-0.1c0.2,0,0.4,0,0.5,0c0.1,0,0.1,0,0.1,0.1c0,0.4,0,0.8,0,1.3
			c0,0.1,0,0.1,0.1,0.1c0.2,0,0.4,0,0.6,0c0.2,0,0.2,0,0.2-0.2c0-0.4,0-0.8,0-1.3c0-0.1,0-0.1,0.1-0.1c0.1,0,0.3,0,0.4,0
			c0.4,0,0.8-0.1,1.2-0.3c0.4-0.2,0.7-0.4,0.9-0.8c0.2-0.5,0.3-1,0.2-1.5C465.6,253.6,465.4,253.4,465.2,253.1z M461.2,250.6
			c0.4,0,0.7,0,1.1,0c0.3,0,0.6,0.1,0.8,0.4c0.4,0.4,0.2,1.1-0.3,1.3c-0.5,0.2-1.1,0.2-1.6,0.2c-0.1,0-0.1-0.1-0.1-0.1
			c0-0.3,0-0.6,0-0.8c0-0.3,0-0.5,0-0.8C461.1,250.6,461.2,250.6,461.2,250.6z M463.4,255.2c-0.2,0.2-0.5,0.2-0.8,0.3
			c-0.5,0.1-0.9,0.1-1.4,0.1c-0.1,0-0.1,0-0.1-0.1c0-0.3,0-0.6,0-0.9c0-0.3,0-0.6,0-0.9c0-0.1,0-0.1,0.1-0.1c0.4,0,0.9,0,1.3,0
			c0.3,0,0.6,0.1,0.8,0.3C463.9,254.1,463.9,254.8,463.4,255.2z"/>
	</g>
	<g>
		<path class="st1" d="M455.6,279.1c-14.5,0-26.3-11.8-26.3-26.3c0-14.5,11.8-26.3,26.3-26.3c14.5,0,26.3,11.8,26.3,26.3
			C481.9,267.3,470.1,279.1,455.6,279.1z M455.6,229.5c-12.9,0-23.3,10.5-23.3,23.3c0,12.9,10.5,23.3,23.3,23.3
			c12.9,0,23.3-10.5,23.3-23.3C478.9,240,468.5,229.5,455.6,229.5z"/>
	</g>
	<g>
		<path class="st1" d="M447.6,37.6c-0.1-0.7-0.3-1.4-0.5-2.1c-0.8-2.5-2.1-4.8-3.9-6.8c-1.5-1.7-3.3-3-5.3-4c-1.5-0.7-3-1.3-4.6-1.6
			c-0.8-0.2-1.6-0.3-2.4-0.3c-0.9-0.1-1.8,0-2.7,0c-0.9,0.1-1.8,0.2-2.7,0.4c-1,0.2-1.9,0.6-2.9,1c-0.1,0-0.1,0-0.2,0
			c-1.2-0.5-2.4-0.9-3.7-1.1c-1.2-0.2-2.3-0.3-3.3-0.3c-1.6,0-3.1,0.2-4.5,0.5c-1.1,0.3-2.1,0.6-3.2,1.1c-2.8,1.3-5.1,3.1-6.9,5.5
			c-2,2.6-3.2,5.4-3.6,8.6c-0.1,0.7-0.2,1.5-0.2,2.2c0,1,0.1,2,0.2,3c0.1,0.9,0.4,1.8,0.6,2.7c0.8,2.4,2,4.6,3.7,6.5
			c1,1.2,2.2,2.2,3.4,3.1c2.8,1.9,5.9,3,9.3,3.1c1.4,0.1,2.8,0,4.2-0.3c1.3-0.2,2.6-0.6,3.8-1.2c0.1-0.1,0.2-0.1,0.3,0
			c0.7,0.3,1.4,0.6,2.2,0.8c1.4,0.4,2.7,0.6,4.2,0.7c1.1,0,2.3,0,3.4-0.2c0.7-0.1,1.5-0.3,2.2-0.5c1.6-0.4,3.2-1.1,4.6-2
			c2.2-1.3,4-3,5.5-5.1c1.6-2.2,2.6-4.7,3-7.3c0.1-0.6,0.2-1.2,0.2-1.8C448,40.7,447.9,39.2,447.6,37.6z M438.5,30
			c0.4,0,0.7,0,1.1,0c0.2,0,0.2,0,0.3-0.2c0.1-0.4,0.2-0.7,0.3-1.1c0-0.1,0-0.1,0.1-0.2c0.1,0.4,0.3,0.9,0.4,1.3
			c0,0.1,0.1,0.1,0.2,0.1c0.4,0,0.8,0,1.1,0c0.1,0,0.1,0,0.2,0c-0.1,0.1-0.2,0.2-0.3,0.2c-0.3,0.2-0.5,0.4-0.8,0.6
			c-0.1,0.1-0.1,0.1-0.1,0.3c0.1,0.4,0.3,0.8,0.4,1.2c0,0,0,0,0,0c-0.3-0.3-0.7-0.5-1-0.8c-0.1-0.1-0.2-0.1-0.3,0
			c-0.3,0.2-0.6,0.4-0.9,0.6c-0.1,0-0.1,0.1-0.2,0.1c0.1-0.3,0.2-0.6,0.3-0.9c0-0.1,0.1-0.2,0.1-0.3c0.1-0.3,0.1-0.3-0.1-0.4
			c-0.3-0.2-0.5-0.4-0.8-0.6c0,0-0.1-0.1-0.1-0.1C438.4,30,438.5,30,438.5,30z M431.2,26.2c0.1,0,0.2,0,0.2-0.2
			c0.1-0.4,0.3-0.8,0.4-1.2c0.1,0.2,0.1,0.4,0.2,0.6c0.1,0.2,0.1,0.4,0.2,0.6c0,0.1,0.1,0.1,0.2,0.1c0.4,0,0.9,0,1.3,0c0,0,0,0,0,0
			c-0.2,0.1-0.3,0.2-0.5,0.4c-0.2,0.1-0.3,0.3-0.5,0.4c-0.1,0.1-0.2,0.1-0.1,0.3c0.1,0.4,0.2,0.7,0.4,1.1c0,0,0,0.1,0,0.1
			c-0.1,0-0.2-0.1-0.3-0.2c-0.3-0.2-0.5-0.4-0.8-0.5c-0.1-0.1-0.1-0.1-0.2,0c-0.3,0.2-0.6,0.5-0.9,0.7c0,0-0.1,0.1-0.2,0.1
			c0.1-0.2,0.1-0.4,0.2-0.6c0.1-0.2,0.1-0.4,0.2-0.7c0-0.1,0-0.2-0.1-0.2c-0.3-0.2-0.7-0.5-1-0.7c0,0-0.1,0-0.1-0.1
			C430.3,26.2,430.8,26.2,431.2,26.2z M420.8,26.4c0.4,0,0.8,0,1.2,0c0.1,0,0.2,0,0.2-0.1c0.1-0.4,0.2-0.8,0.4-1.1
			c0,0,0-0.1,0.1-0.1c0.1,0.3,0.2,0.5,0.2,0.8c0.1,0.2,0.1,0.3,0.2,0.5c0,0.1,0.1,0.1,0.2,0.1c0.4,0,0.9,0,1.4,0
			c-0.1,0.1-0.2,0.2-0.3,0.2c-0.3,0.2-0.5,0.4-0.8,0.5c-0.2,0.1-0.2,0.2-0.1,0.4c0.1,0.4,0.2,0.7,0.4,1.1c0,0,0,0.1,0,0.1
			c-0.3-0.3-0.7-0.5-1-0.8c-0.1-0.1-0.2-0.1-0.3,0c-0.3,0.3-0.7,0.5-1,0.8c0,0,0,0,0,0c0.1-0.4,0.2-0.7,0.4-1.1
			c0.1-0.3,0.1-0.3-0.2-0.5c-0.3-0.2-0.6-0.5-0.9-0.7C420.7,26.4,420.7,26.4,420.8,26.4z M412.5,26.2c0.1,0,0.2,0,0.2-0.1
			c0.1-0.4,0.3-0.8,0.4-1.3c0.1,0.1,0.1,0.3,0.2,0.4c0.1,0.3,0.2,0.6,0.3,0.9c0,0.1,0.1,0.1,0.2,0.1c0.4,0,0.8,0,1.2,0
			c0.1,0,0.1,0,0.2,0c0,0.1-0.1,0.1-0.1,0.1c-0.3,0.2-0.6,0.4-0.9,0.7c-0.1,0.1-0.1,0.2-0.1,0.3c0.1,0.4,0.3,0.8,0.4,1.2
			c-0.1,0-0.1,0-0.2-0.1c-0.3-0.2-0.6-0.5-0.9-0.7c-0.1-0.1-0.1-0.1-0.2,0c-0.4,0.3-0.7,0.5-1.1,0.8c0-0.2,0.1-0.3,0.1-0.5
			c0.1-0.3,0.2-0.6,0.3-0.8c0-0.1,0-0.2-0.1-0.2c-0.3-0.2-0.6-0.5-1-0.7c0,0-0.1,0-0.1-0.1C411.6,26.2,412,26.2,412.5,26.2z
			 M403.8,30.7c0.1,0,0.2,0,0.2,0c0.1,0,0.2,0,0.2-0.1c0.1-0.4,0.2-0.8,0.4-1.1c0,0,0-0.1,0.1-0.1c0.1,0.4,0.3,0.8,0.4,1.3
			c0,0.1,0.1,0.1,0.2,0.1c0.4,0,0.8,0,1.2,0c0.1,0,0.1,0,0.2,0c0,0.1-0.1,0.1-0.1,0.1c-0.3,0.2-0.6,0.4-0.9,0.7
			c-0.1,0.1-0.1,0.1-0.1,0.2c0.1,0.4,0.2,0.7,0.4,1.1c0,0.1,0,0.1,0.1,0.2c-0.3-0.2-0.5-0.4-0.8-0.6c-0.1-0.1-0.3-0.3-0.4-0.3
			c-0.2,0-0.3,0.2-0.4,0.3c-0.3,0.2-0.5,0.4-0.7,0.5c0,0,0,0,0,0c0-0.2,0.1-0.4,0.2-0.5c0.1-0.2,0.2-0.5,0.2-0.7
			c0-0.1,0-0.2-0.1-0.2c-0.3-0.2-0.7-0.5-1-0.7c0,0-0.1,0-0.1-0.1C403,30.7,403.4,30.7,403.8,30.7z M399,40.9
			c0.1-0.3,0.2-0.5,0.3-0.8c0-0.1,0.1-0.3,0.1-0.4c0-0.1,0-0.2-0.1-0.2c-0.3-0.2-0.6-0.5-0.9-0.7c0,0-0.1-0.1-0.1-0.1
			c0-0.1,0.1,0,0.1,0c0.4,0,0.8,0,1.2,0c0.1,0,0.2,0,0.2-0.2c0.1-0.4,0.2-0.8,0.4-1.1c0,0,0-0.1,0.1-0.1c0.1,0,0,0.1,0.1,0.1
			c0.1,0.4,0.3,0.8,0.4,1.1c0,0.1,0.1,0.1,0.2,0.1c0.4,0,0.9,0,1.3,0c0,0.1-0.1,0.1-0.1,0.1c-0.3,0.2-0.6,0.4-0.9,0.7
			c-0.1,0.1-0.1,0.1-0.1,0.3c0.1,0.4,0.2,0.7,0.4,1.1c0,0,0,0.1,0,0.2c-0.4-0.3-0.7-0.5-1.1-0.8c-0.1-0.1-0.2-0.1-0.3,0
			c-0.3,0.2-0.6,0.4-0.9,0.7C399.2,40.9,399.1,40.9,399,40.9z M403.8,48.3c-0.3,0.2-0.6,0.5-1,0.7c-0.1,0.1-0.1,0.1-0.1,0.2
			c0.1,0.4,0.3,0.8,0.4,1.2c0,0,0,0.1,0,0.1c-0.2-0.2-0.4-0.3-0.7-0.5c-0.1-0.1-0.3-0.2-0.4-0.3c-0.1-0.1-0.1-0.1-0.2,0
			c-0.3,0.2-0.7,0.5-1,0.7c0,0,0,0.1-0.1,0c0.1-0.4,0.3-0.8,0.4-1.2c0.1-0.2,0-0.2-0.1-0.3c-0.3-0.2-0.7-0.5-1-0.7c0,0,0,0,0,0
			c0.4,0,0.8,0,1.3,0c0.1,0,0.2,0,0.2-0.2c0.1-0.4,0.3-0.8,0.4-1.3c0.1,0.4,0.2,0.7,0.3,1.1c0.1,0.4,0.1,0.4,0.5,0.4
			c0.4,0,0.7,0,1.1,0C403.9,48.2,403.9,48.3,403.8,48.3z M410.4,54.8c-0.3,0.2-0.6,0.4-0.9,0.6c-0.1,0.1-0.1,0.1-0.1,0.3
			c0.1,0.4,0.3,0.8,0.4,1.1c0,0,0,0.1,0,0.1c-0.1,0-0.1-0.1-0.2-0.1c-0.3-0.2-0.6-0.4-0.9-0.7c-0.1-0.1-0.2-0.1-0.3,0
			c-0.3,0.2-0.6,0.5-0.9,0.7c0,0-0.1,0.1-0.2,0.1c0.1-0.3,0.2-0.5,0.2-0.7c0.1-0.2,0.1-0.4,0.2-0.5c0.1-0.1,0-0.2-0.1-0.3
			c-0.3-0.2-0.6-0.5-1-0.7c0,0-0.1,0-0.1-0.1c0,0,0,0,0,0c0.4,0,0.8,0,1.2,0c0.2,0,0.3,0,0.3-0.2c0.1-0.4,0.2-0.8,0.4-1.2
			c0.1,0,0.1,0.1,0.1,0.1c0.1,0.4,0.3,0.7,0.4,1.1c0,0.1,0.1,0.1,0.2,0.1c0.4,0,0.8,0,1.1,0c0.1,0,0.1,0,0.2,0
			C410.6,54.7,410.5,54.7,410.4,54.8z M418.9,56.9c0.1,0.4,0.2,0.7,0.4,1.1c0,0.1,0,0.1,0,0.2c-0.3-0.2-0.5-0.4-0.8-0.5
			c-0.1-0.1-0.3-0.3-0.4-0.3c-0.2,0-0.3,0.2-0.4,0.3c-0.3,0.2-0.5,0.4-0.8,0.6c0-0.2,0.1-0.3,0.1-0.4c0.1-0.3,0.2-0.6,0.3-0.9
			c0-0.1,0-0.2-0.1-0.3c-0.3-0.2-0.7-0.5-1-0.8c0,0,0,0,0,0c0,0,0.1,0,0.2,0c0.4,0,0.8,0,1.1,0c0.1,0,0.2,0,0.2-0.2
			c0.1-0.4,0.2-0.8,0.4-1.1c0,0,0-0.1,0.1-0.1c0.1,0.4,0.3,0.8,0.4,1.3c0,0.1,0.1,0.2,0.2,0.1c0.4,0,0.8,0,1.2,0c0.1,0,0.1,0,0.2,0
			c0,0,0,0,0,0c-0.4,0.3-0.7,0.5-1.1,0.8C418.9,56.7,418.9,56.8,418.9,56.9z M423.8,52.3c-1,0.5-2,0.9-3.1,1.2
			c-1.3,0.3-2.6,0.4-4,0.3c-3-0.3-5.6-1.4-7.7-3.5c-1.4-1.4-2.4-3-3.1-4.8c0-0.1-0.1-0.1-0.2-0.1c-1.2,0-2.3,0-3.5,0
			c0,0-0.1,0-0.1,0c0.2-0.4,0.3-0.7,0.5-1c0.2-0.6,0.5-1.1,0.7-1.7c0.1-0.1,0.1-0.2,0.3-0.2c0.5,0,1.1,0,1.6,0c0.1,0,0.1,0,0.1-0.1
			c-0.1-0.4,0-0.7,0-1.1c0-0.1,0-0.2-0.2-0.2c-0.9,0-1.9,0-2.8,0c-0.1,0-0.2,0-0.1-0.2c0.4-0.9,0.7-1.7,1.1-2.6
			c0-0.1,0.1-0.2,0.2-0.2c0.6,0,1.3,0,1.9,0c0.1,0,0.2,0,0.2-0.1c0.7-2.7,2.2-5,4.5-6.7c1.5-1.2,3.2-2,5.1-2.4
			c1.1-0.2,2.2-0.3,3.3-0.2c1.9,0.1,3.6,0.6,5.3,1.5c0.2,0.1,0.2,0.1,0,0.2c-1.1,0.7-2.1,1.5-2.9,2.5c-0.1,0.1-0.1,0.1-0.3,0.1
			c-1.1-0.4-2.2-0.5-3.3-0.5c-3.4,0.2-6.4,2.4-7.6,5.4c-0.1,0.2-0.1,0.2,0.1,0.2c1.8,0,3.6,0,5.3,0c0.2,0,0.2,0,0.2,0.2
			c0,0.8,0,1.6,0,2.5c0,0.2,0,0.2-0.2,0.2c-2,0-3.9,0-5.9,0c-0.2,0-0.2,0-0.2,0.2c0,0.3,0,0.7,0.1,1c0,0.1,0.1,0.1,0.1,0.1
			c0.3,0,0.6,0,0.8,0c1.6,0,3.3,0,4.9,0c0.1,0,0.2,0,0.2,0.2c0,0.8,0,1.7,0,2.5c0,0.1,0,0.2-0.2,0.2c-1.6,0-3.2,0-4.7,0
			c-0.2,0-0.2,0-0.1,0.2c1.2,2.1,3,3.5,5.4,4.2c1.1,0.3,2.2,0.4,3.4,0.2c0.6-0.1,1.2-0.2,1.8-0.4c0.1,0,0.2,0,0.3,0.1
			c0.8,1,1.8,1.8,2.9,2.5C424,52.2,424,52.2,423.8,52.3z M428.3,56.6c-0.1,0.1-0.1,0.2-0.1,0.3c0.1,0.4,0.3,0.8,0.4,1.2
			c-0.3-0.2-0.5-0.4-0.8-0.5c-0.1-0.1-0.3-0.3-0.4-0.3c-0.2,0-0.3,0.2-0.4,0.3c-0.2,0.2-0.5,0.4-0.7,0.5c0,0,0,0-0.1,0
			c0.1-0.3,0.2-0.6,0.3-0.9c0.1-0.2,0.2-0.3,0.1-0.5c-0.1-0.1-0.3-0.2-0.4-0.3c-0.2-0.2-0.5-0.4-0.8-0.6c0.1,0,0.1,0,0.2,0
			c0.4,0,0.8,0,1.2,0c0.1,0,0.2,0,0.2-0.2c0.1-0.4,0.2-0.7,0.4-1.1c0-0.1,0-0.1,0.1-0.2c0.1,0.4,0.3,0.8,0.4,1.2
			c0.1,0.3,0.1,0.3,0.3,0.3c0.4,0,0.7,0,1.1,0c0.1,0,0.1,0,0.2,0C429,56.1,428.6,56.4,428.3,56.6z M438.1,54.7
			c-0.3,0.2-0.6,0.4-0.9,0.6c-0.1,0.1-0.2,0.2-0.1,0.3c0.1,0.4,0.2,0.7,0.4,1.1c0,0,0,0.1,0,0.1c-0.2-0.2-0.5-0.3-0.7-0.5
			c-0.1-0.1-0.3-0.2-0.4-0.3c-0.1-0.1-0.2-0.1-0.3,0c-0.3,0.2-0.6,0.5-0.9,0.7c0,0-0.1,0.1-0.2,0.1c0.1-0.2,0.1-0.4,0.2-0.7
			c0.1-0.2,0.1-0.4,0.2-0.5c0.1-0.1,0-0.2-0.1-0.3c-0.3-0.2-0.6-0.4-0.9-0.7c0,0-0.1,0-0.1-0.1c0.3,0,0.6,0,0.9,0c0.1,0,0.3,0,0.4,0
			c0.2,0,0.2,0,0.3-0.2c0.1-0.3,0.2-0.7,0.3-1c0-0.1,0-0.1,0.1-0.2c0.1,0.4,0.3,0.8,0.4,1.2c0,0.1,0.1,0.2,0.3,0.2
			c0.4,0,0.8,0,1.3,0C438.2,54.7,438.2,54.7,438.1,54.7z M430.7,53.1c-6.5,0-11.8-5.3-11.8-11.8c0-6.5,5.3-11.8,11.8-11.8
			c6.6,0,11.8,5.3,11.8,11.8C442.5,47.9,437.2,53.1,430.7,53.1z M444.2,48.7c-0.1,0.1-0.3,0.2-0.4,0.3c-0.1,0.1-0.1,0.1-0.1,0.2
			c0.1,0.4,0.3,0.8,0.4,1.3c0,0,0,0,0,0c-0.3-0.3-0.7-0.5-1-0.8c-0.1-0.1-0.2-0.1-0.3,0c-0.3,0.2-0.6,0.5-0.9,0.7c0,0-0.1,0-0.1,0.1
			c0.1-0.4,0.2-0.7,0.3-1c0.2-0.5,0.2-0.5-0.2-0.7c-0.3-0.2-0.5-0.4-0.8-0.6c0-0.1,0.1,0,0.1,0c0.4,0,0.8,0,1.2,0
			c0.1,0,0.2,0,0.2-0.2c0.1-0.4,0.2-0.8,0.4-1.1c0,0,0-0.1,0.1-0.1c0.1,0.3,0.2,0.6,0.3,0.9c0.1,0.2,0.1,0.4,0.2,0.5
			c0.1,0.1,0.3,0,0.5,0c0.3,0,0.6,0,0.9,0c0,0,0,0,0,0C444.7,48.4,444.5,48.5,444.2,48.7z M446.4,38.8c-0.3,0.2-0.6,0.4-0.9,0.6
			c-0.1,0.1-0.1,0.1-0.1,0.2c0.1,0.4,0.3,0.8,0.4,1.2c0,0,0,0,0,0c-0.3-0.2-0.6-0.5-1-0.7c-0.2-0.2-0.2-0.2-0.4,0
			c-0.3,0.2-0.5,0.4-0.8,0.6c0,0-0.1,0.1-0.1,0.1c0-0.1,0-0.1,0-0.2c0.1-0.4,0.2-0.7,0.4-1.1c0-0.1,0-0.2-0.1-0.2
			c-0.3-0.2-0.7-0.5-1-0.7c0,0-0.1,0-0.1-0.1c0.4,0,0.7,0,1.1,0c0.4,0,0.4,0,0.5-0.4c0.1-0.3,0.2-0.7,0.3-1c0.1,0,0.1,0.1,0.1,0.2
			c0.1,0.4,0.3,0.7,0.4,1.1c0,0.1,0.1,0.1,0.2,0.1c0.4,0,0.8,0,1.2,0c0.1,0,0.1,0,0.2,0c0,0,0,0,0,0
			C446.6,38.7,446.5,38.8,446.4,38.8z"/>
		<path class="st1" d="M430.7,30.5c-5.9,0-10.9,4.8-10.9,10.9c0,6,4.9,10.9,10.9,10.8c6,0,10.8-4.9,10.8-10.9
			C441.5,35.3,436.6,30.4,430.7,30.5z M430.7,49.9c-4.7,0-8.6-3.8-8.6-8.6c0-4.7,3.8-8.6,8.6-8.6c4.7,0,8.6,3.8,8.6,8.6
			C439.3,46.1,435.4,49.9,430.7,49.9z"/>
		<path class="st1" d="M435.5,41.4c-0.3-0.3-0.7-0.4-1-0.5c0,0-0.1,0-0.1-0.1c0,0,0-0.1,0.1-0.1c0.6-0.4,0.9-0.9,1-1.6
			c0.1-0.9-0.3-1.8-1.2-2.2c-0.6-0.3-1.2-0.4-1.8-0.5c-0.1,0-0.2-0.1-0.2-0.2c0-0.6,0-1.2,0-1.8c0-0.1,0-0.2-0.2-0.2
			c-0.3,0-0.6,0-0.9,0c-0.1,0-0.2,0-0.2,0.2c0,0.6,0,1.2,0,1.8c0,0.1,0,0.2-0.2,0.2c-0.2,0-0.5,0-0.7,0c-0.1,0-0.2,0-0.2-0.2
			c0-0.6,0-1.2,0-1.7c0-0.1,0-0.2-0.2-0.2c-0.3,0-0.6,0-0.9,0c-0.1,0-0.2,0-0.2,0.2c0,0.6,0,1.2,0,1.8c0,0.2,0,0.2-0.2,0.2
			c-0.7,0-1.5,0-2.2,0c-0.1,0-0.2,0-0.2,0.2c0,0.4,0,0.7,0,1.1c0,0.1,0,0.2,0.2,0.2c0.3,0,0.5,0,0.8,0c0.5,0,0.8,0.3,0.8,0.8
			c0,0.9,0,1.8,0,2.7c0,0.9,0,1.9,0,2.8c0,0.4-0.2,0.5-0.5,0.5c-0.2,0-0.5,0-0.7,0c-0.1,0-0.1,0-0.2,0.1c-0.1,0.4-0.1,0.8-0.2,1.2
			c0,0.1,0,0.2,0.1,0.2c0.7,0,1.5,0,2.2,0c0.2,0,0.2,0,0.2,0.2c0,0.6,0,1.2,0,1.8c0,0.1,0,0.2,0.2,0.2c0.3,0,0.6,0,0.9,0
			c0.1,0,0.2,0,0.2-0.2c0-0.6,0-1.2,0-1.8c0-0.1,0-0.2,0.2-0.2c0.2,0,0.5,0,0.7,0c0.1,0,0.2,0,0.2,0.2c0,0.6,0,1.2,0,1.7
			c0,0.2,0.1,0.2,0.2,0.2c0.3,0,0.6,0,0.8,0c0.2,0,0.2,0,0.2-0.2c0-0.6,0-1.2,0-1.7c0-0.1,0-0.2,0.2-0.2c0.2,0,0.4,0,0.5,0
			c0.6,0,1.1-0.2,1.6-0.4c0.5-0.2,1-0.6,1.2-1.1c0.3-0.7,0.4-1.4,0.3-2.1C436.1,42.1,435.9,41.7,435.5,41.4z M430.2,37.9
			c0.5,0,1,0,1.5,0.1c0.4,0.1,0.8,0.2,1.1,0.5c0.5,0.6,0.3,1.5-0.4,1.8c-0.7,0.3-1.5,0.3-2.2,0.3c-0.1,0-0.1-0.1-0.1-0.2
			c0-0.4,0-0.8,0-1.1c0-0.4,0-0.7,0-1.1C430,38,430,37.9,430.2,37.9z M433.1,44.2c-0.3,0.2-0.7,0.3-1,0.4c-0.6,0.1-1.3,0.1-1.9,0.1
			c-0.2,0-0.2-0.1-0.2-0.2c0-0.4,0-0.8,0-1.2c0-0.4,0-0.8,0-1.3c0-0.1,0-0.2,0.1-0.2c0.6,0,1.2,0,1.8,0.1c0.4,0.1,0.8,0.2,1.2,0.4
			C433.8,42.7,433.8,43.7,433.1,44.2z"/>
	</g>
	<g>
		<path class="st1" d="M422.5,77c-19.9,0-36-16.2-36-36c0-19.9,16.2-36,36-36s36,16.2,36,36C458.5,60.9,442.3,77,422.5,77z
			 M422.5,9.1c-17.6,0-31.9,14.3-31.9,31.9c0,17.6,14.3,31.9,31.9,31.9s31.9-14.3,31.9-31.9C454.4,23.4,440.1,9.1,422.5,9.1z"/>
	</g>
	<g>
		<path class="st1" d="M492.6,173.9c0-0.3-0.1-0.5-0.2-0.8c-0.3-1-0.8-1.8-1.5-2.6c-0.6-0.6-1.2-1.1-2-1.5c-0.6-0.3-1.1-0.5-1.8-0.6
			c-0.3-0.1-0.6-0.1-0.9-0.1c-0.3,0-0.7,0-1,0c-0.3,0-0.7,0.1-1,0.2c-0.4,0.1-0.7,0.2-1.1,0.4c0,0-0.1,0-0.1,0
			c-0.4-0.2-0.9-0.3-1.4-0.4c-0.4-0.1-0.9-0.1-1.3-0.1c-0.6,0-1.2,0.1-1.7,0.2c-0.4,0.1-0.8,0.2-1.2,0.4c-1,0.5-1.9,1.2-2.6,2.1
			c-0.7,1-1.2,2.1-1.4,3.3c0,0.3-0.1,0.6-0.1,0.8c0,0.4,0,0.8,0.1,1.1c0.1,0.4,0.1,0.7,0.2,1c0.3,0.9,0.8,1.7,1.4,2.4
			c0.4,0.4,0.8,0.8,1.3,1.2c1.1,0.7,2.2,1.1,3.5,1.2c0.5,0,1.1,0,1.6-0.1c0.5-0.1,1-0.2,1.4-0.4c0,0,0.1,0,0.1,0
			c0.3,0.1,0.5,0.2,0.8,0.3c0.5,0.1,1,0.2,1.6,0.3c0.4,0,0.9,0,1.3-0.1c0.3,0,0.6-0.1,0.8-0.2c0.6-0.2,1.2-0.4,1.7-0.7
			c0.8-0.5,1.5-1.1,2.1-1.9c0.6-0.8,1-1.8,1.2-2.8c0-0.2,0.1-0.5,0.1-0.7C492.8,175.1,492.7,174.5,492.6,173.9z M489.2,171
			c0.1,0,0.3,0,0.4,0c0.1,0,0.1,0,0.1-0.1c0-0.1,0.1-0.3,0.1-0.4c0,0,0,0,0-0.1c0.1,0.2,0.1,0.3,0.2,0.5c0,0,0,0.1,0.1,0.1
			c0.1,0,0.3,0,0.4,0c0,0,0,0,0.1,0c0,0-0.1,0.1-0.1,0.1c-0.1,0.1-0.2,0.1-0.3,0.2c0,0-0.1,0.1,0,0.1c0.1,0.2,0.1,0.3,0.2,0.5
			c0,0,0,0,0,0c-0.1-0.1-0.3-0.2-0.4-0.3c0,0-0.1,0-0.1,0c-0.1,0.1-0.2,0.2-0.3,0.2c0,0,0,0-0.1,0c0-0.1,0.1-0.2,0.1-0.3
			c0,0,0-0.1,0-0.1c0-0.1,0-0.1-0.1-0.2C489.4,171.2,489.3,171.2,489.2,171C489.2,171.1,489.2,171.1,489.2,171
			C489.2,171,489.2,171,489.2,171z M486.4,169.6C486.5,169.6,486.5,169.6,486.4,169.6c0.1-0.2,0.2-0.4,0.3-0.5
			c0,0.1,0.1,0.2,0.1,0.2c0,0.1,0.1,0.2,0.1,0.2c0,0,0,0.1,0.1,0.1c0.2,0,0.3,0,0.5,0c0,0,0,0,0,0c-0.1,0-0.1,0.1-0.2,0.1
			c-0.1,0-0.1,0.1-0.2,0.1c0,0-0.1,0.1,0,0.1c0.1,0.1,0.1,0.3,0.1,0.4c0,0,0,0,0,0c0,0-0.1-0.1-0.1-0.1c-0.1-0.1-0.2-0.1-0.3-0.2
			c0,0-0.1,0-0.1,0c-0.1,0.1-0.2,0.2-0.4,0.3c0,0,0,0-0.1,0c0-0.1,0-0.2,0.1-0.2c0-0.1,0.1-0.2,0.1-0.2c0,0,0-0.1,0-0.1
			c-0.1-0.1-0.2-0.2-0.4-0.3c0,0,0,0,0,0C486.1,169.6,486.3,169.6,486.4,169.6z M482.5,169.7c0.1,0,0.3,0,0.4,0c0,0,0.1,0,0.1-0.1
			c0-0.1,0.1-0.3,0.1-0.4c0,0,0,0,0,0c0,0.1,0.1,0.2,0.1,0.3c0,0.1,0,0.1,0.1,0.2c0,0,0,0.1,0.1,0.1c0.2,0,0.3,0,0.5,0
			c0,0-0.1,0.1-0.1,0.1c-0.1,0.1-0.2,0.1-0.3,0.2c-0.1,0-0.1,0.1,0,0.1c0,0.1,0.1,0.3,0.1,0.4c0,0,0,0,0,0.1
			c-0.1-0.1-0.3-0.2-0.4-0.3c0,0-0.1,0-0.1,0c-0.1,0.1-0.3,0.2-0.4,0.3c0,0,0,0,0,0c0-0.1,0.1-0.3,0.1-0.4c0-0.1,0-0.1-0.1-0.2
			C482.7,169.8,482.6,169.8,482.5,169.7C482.4,169.6,482.5,169.7,482.5,169.7z M479.3,169.6C479.4,169.6,479.4,169.6,479.3,169.6
			c0.1-0.2,0.2-0.4,0.2-0.5c0,0,0,0.1,0.1,0.2c0,0.1,0.1,0.2,0.1,0.3c0,0,0,0.1,0.1,0c0.1,0,0.3,0,0.4,0c0,0,0,0,0.1,0
			c0,0,0,0,0,0.1c-0.1,0.1-0.2,0.2-0.3,0.2c0,0-0.1,0.1,0,0.1c0.1,0.2,0.1,0.3,0.2,0.5c0,0,0,0-0.1,0c-0.1-0.1-0.2-0.2-0.4-0.3
			c0,0-0.1,0-0.1,0c-0.1,0.1-0.3,0.2-0.4,0.3c0-0.1,0-0.1,0-0.2c0-0.1,0.1-0.2,0.1-0.3c0,0,0-0.1,0-0.1c-0.1-0.1-0.2-0.2-0.4-0.3
			c0,0,0,0,0,0C479,169.6,479.2,169.6,479.3,169.6z M476,171.3C476.1,171.3,476.1,171.3,476,171.3c0.1,0,0.2,0,0.2-0.1
			c0-0.1,0.1-0.3,0.1-0.4c0,0,0,0,0,0c0.1,0.2,0.1,0.3,0.2,0.5c0,0,0,0.1,0.1,0.1c0.1,0,0.3,0,0.4,0c0,0,0,0,0.1,0c0,0,0,0-0.1,0.1
			c-0.1,0.1-0.2,0.2-0.3,0.2c0,0,0,0,0,0.1c0,0.1,0.1,0.3,0.1,0.4c0,0,0,0,0,0.1c-0.1-0.1-0.2-0.1-0.3-0.2c-0.1,0-0.1-0.1-0.2-0.1
			c-0.1,0-0.1,0.1-0.2,0.1c-0.1,0.1-0.2,0.1-0.3,0.2c0,0,0,0,0,0c0-0.1,0-0.1,0.1-0.2c0-0.1,0.1-0.2,0.1-0.3c0,0,0-0.1,0-0.1
			c-0.1-0.1-0.2-0.2-0.4-0.3c0,0,0,0,0,0C475.8,171.3,475.9,171.3,476,171.3z M474.2,175.2c0-0.1,0.1-0.2,0.1-0.3
			c0-0.1,0-0.1,0.1-0.2c0,0,0-0.1,0-0.1c-0.1-0.1-0.2-0.2-0.4-0.3c0,0,0,0,0,0c0,0,0,0,0.1,0c0.1,0,0.3,0,0.4,0c0,0,0.1,0,0.1-0.1
			c0-0.1,0.1-0.3,0.1-0.4c0,0,0,0,0,0c0,0,0,0,0,0c0,0.1,0.1,0.3,0.1,0.4c0,0,0,0.1,0.1,0c0.2,0,0.3,0,0.5,0c0,0,0,0,0,0.1
			c-0.1,0.1-0.2,0.2-0.3,0.2c0,0-0.1,0.1,0,0.1c0,0.1,0.1,0.3,0.1,0.4c0,0,0,0,0,0.1c-0.1-0.1-0.3-0.2-0.4-0.3c0,0-0.1,0-0.1,0
			C474.5,175,474.4,175,474.2,175.2C474.3,175.1,474.3,175.2,474.2,175.2z M476.1,178c-0.1,0.1-0.2,0.2-0.4,0.3c0,0,0,0,0,0.1
			c0.1,0.2,0.1,0.3,0.1,0.5c0,0,0,0,0,0c-0.1-0.1-0.2-0.1-0.2-0.2c-0.1,0-0.1-0.1-0.2-0.1c0,0-0.1,0-0.1,0c-0.1,0.1-0.3,0.2-0.4,0.3
			c0,0,0,0,0,0c0-0.2,0.1-0.3,0.1-0.5c0-0.1,0-0.1,0-0.1c-0.1-0.1-0.3-0.2-0.4-0.3c0,0,0,0,0,0c0.2,0,0.3,0,0.5,0
			c0.1,0,0.1,0,0.1-0.1c0-0.2,0.1-0.3,0.2-0.5c0,0.1,0.1,0.3,0.1,0.4c0,0.2,0,0.2,0.2,0.2C475.8,177.9,476,177.9,476.1,178
			C476.1,177.9,476.1,177.9,476.1,178z M478.6,180.4c-0.1,0.1-0.2,0.2-0.3,0.2c0,0,0,0.1,0,0.1c0,0.1,0.1,0.3,0.1,0.4c0,0,0,0,0,0
			c0,0-0.1,0-0.1,0c-0.1-0.1-0.2-0.2-0.3-0.3c0,0-0.1,0-0.1,0c-0.1,0.1-0.2,0.2-0.3,0.3c0,0,0,0-0.1,0c0-0.1,0.1-0.2,0.1-0.3
			c0-0.1,0-0.1,0.1-0.2c0-0.1,0-0.1,0-0.1c-0.1-0.1-0.2-0.2-0.4-0.3c0,0,0,0,0,0c0,0,0,0,0,0c0.2,0,0.3,0,0.5,0c0.1,0,0.1,0,0.1-0.1
			c0-0.2,0.1-0.3,0.1-0.4c0,0,0,0,0,0c0,0.1,0.1,0.3,0.1,0.4c0,0,0,0.1,0.1,0.1C478.3,180.3,478.4,180.3,478.6,180.4
			C478.6,180.3,478.6,180.3,478.6,180.4C478.6,180.4,478.6,180.4,478.6,180.4z M481.8,181.2c0,0.1,0.1,0.3,0.1,0.4c0,0,0,0,0,0.1
			c-0.1-0.1-0.2-0.1-0.3-0.2c-0.1,0-0.1-0.1-0.2-0.1c-0.1,0-0.1,0.1-0.2,0.1c-0.1,0.1-0.2,0.1-0.3,0.2c0-0.1,0-0.1,0-0.1
			c0-0.1,0.1-0.2,0.1-0.3c0,0,0-0.1,0-0.1c-0.1-0.1-0.3-0.2-0.4-0.3c0,0,0,0,0,0c0,0,0,0,0.1,0c0.1,0,0.3,0,0.4,0c0,0,0.1,0,0.1-0.1
			c0-0.1,0.1-0.3,0.1-0.4c0,0,0,0,0,0c0.1,0.2,0.1,0.3,0.2,0.5c0,0,0,0.1,0.1,0.1c0.1,0,0.3,0,0.4,0c0,0,0,0,0.1,0c0,0,0,0,0,0
			c-0.1,0.1-0.3,0.2-0.4,0.3C481.8,181.1,481.8,181.2,481.8,181.2z M483.6,179.5c-0.4,0.2-0.8,0.4-1.2,0.5c-0.5,0.1-1,0.2-1.5,0.1
			c-1.1-0.1-2.1-0.5-2.9-1.3c-0.5-0.5-0.9-1.1-1.2-1.8c0,0,0-0.1-0.1-0.1c-0.4,0-0.9,0-1.3,0c0,0,0,0,0,0c0.1-0.1,0.1-0.3,0.2-0.4
			c0.1-0.2,0.2-0.4,0.3-0.6c0,0,0-0.1,0.1-0.1c0.2,0,0.4,0,0.6,0c0,0,0.1,0,0,0c0-0.1,0-0.3,0-0.4c0-0.1,0-0.1-0.1-0.1
			c-0.4,0-0.7,0-1.1,0c-0.1,0-0.1,0,0-0.1c0.1-0.3,0.3-0.7,0.4-1c0,0,0-0.1,0.1-0.1c0.2,0,0.5,0,0.7,0c0,0,0.1,0,0.1-0.1
			c0.3-1,0.8-1.9,1.7-2.5c0.6-0.4,1.2-0.7,1.9-0.9c0.4-0.1,0.8-0.1,1.3-0.1c0.7,0,1.4,0.2,2,0.6c0.1,0,0.1,0,0,0.1
			c-0.4,0.3-0.8,0.6-1.1,1c0,0-0.1,0-0.1,0c-0.4-0.1-0.8-0.2-1.3-0.2c-1.3,0.1-2.4,0.9-2.9,2.1c0,0.1,0,0.1,0,0.1c0.7,0,1.3,0,2,0
			c0.1,0,0.1,0,0.1,0.1c0,0.3,0,0.6,0,0.9c0,0.1,0,0.1-0.1,0.1c-0.7,0-1.5,0-2.2,0c-0.1,0-0.1,0-0.1,0.1c0,0.1,0,0.3,0,0.4
			c0,0,0,0,0.1,0c0.1,0,0.2,0,0.3,0c0.6,0,1.2,0,1.9,0c0.1,0,0.1,0,0.1,0.1c0,0.3,0,0.6,0,1c0,0.1,0,0.1-0.1,0.1c-0.6,0-1.2,0-1.8,0
			c-0.1,0-0.1,0,0,0.1c0.5,0.8,1.1,1.3,2,1.6c0.4,0.1,0.8,0.1,1.3,0.1c0.2,0,0.4-0.1,0.7-0.2c0,0,0.1,0,0.1,0
			C482.8,178.8,483.2,179.1,483.6,179.5C483.7,179.4,483.7,179.4,483.6,179.5z M485.3,181.1c0,0,0,0.1,0,0.1
			c0.1,0.2,0.1,0.3,0.1,0.5c-0.1-0.1-0.2-0.1-0.3-0.2c-0.1,0-0.1-0.1-0.2-0.1c-0.1,0-0.1,0.1-0.2,0.1c-0.1,0.1-0.2,0.1-0.3,0.2
			c0,0,0,0,0,0c0-0.1,0.1-0.2,0.1-0.3c0-0.1,0.1-0.1,0-0.2c0-0.1-0.1-0.1-0.2-0.1c-0.1-0.1-0.2-0.1-0.3-0.2c0,0,0,0,0.1,0
			c0.1,0,0.3,0,0.4,0c0,0,0.1,0,0.1-0.1c0-0.1,0.1-0.3,0.1-0.4c0,0,0,0,0-0.1c0.1,0.2,0.1,0.3,0.1,0.4c0,0.1,0,0.1,0.1,0.1
			c0.1,0,0.3,0,0.4,0c0,0,0,0,0.1,0C485.6,180.9,485.5,181,485.3,181.1z M489.1,180.4c-0.1,0.1-0.2,0.2-0.3,0.2c0,0-0.1,0.1,0,0.1
			c0.1,0.1,0.1,0.3,0.1,0.4c0,0,0,0,0,0.1c-0.1-0.1-0.2-0.1-0.3-0.2c0,0-0.1-0.1-0.1-0.1c0,0-0.1,0-0.1,0c-0.1,0.1-0.2,0.2-0.3,0.3
			c0,0,0,0-0.1,0c0-0.1,0.1-0.2,0.1-0.3c0-0.1,0-0.1,0.1-0.2c0-0.1,0-0.1,0-0.1c-0.1-0.1-0.2-0.2-0.3-0.2c0,0,0,0,0,0
			c0.1,0,0.2,0,0.3,0c0.1,0,0.1,0,0.2,0c0.1,0,0.1,0,0.1-0.1c0-0.1,0.1-0.2,0.1-0.4c0,0,0-0.1,0-0.1c0.1,0.2,0.1,0.3,0.1,0.5
			c0,0.1,0,0.1,0.1,0.1C488.8,180.3,488.9,180.3,489.1,180.4C489.1,180.4,489.1,180.4,489.1,180.4z M486.2,179.8
			c-2.5,0-4.5-2-4.5-4.5c0-2.5,2-4.5,4.5-4.5c2.5,0,4.5,2,4.5,4.5C490.7,177.8,488.7,179.8,486.2,179.8z M491.4,178.1
			c-0.1,0-0.1,0.1-0.2,0.1c0,0,0,0,0,0.1c0.1,0.2,0.1,0.3,0.2,0.5c0,0,0,0,0,0c-0.1-0.1-0.3-0.2-0.4-0.3c0,0-0.1,0-0.1,0
			c-0.1,0.1-0.2,0.2-0.4,0.3c0,0,0,0-0.1,0c0-0.1,0.1-0.3,0.1-0.4c0.1-0.2,0.1-0.2-0.1-0.3c-0.1-0.1-0.2-0.1-0.3-0.2c0,0,0,0,0.1,0
			c0.1,0,0.3,0,0.4,0c0,0,0.1,0,0.1-0.1c0-0.1,0.1-0.3,0.1-0.4c0,0,0,0,0,0c0,0.1,0.1,0.2,0.1,0.3c0,0.1,0,0.1,0.1,0.2
			c0,0,0.1,0,0.2,0c0.1,0,0.2,0,0.4,0c0,0,0,0,0,0C491.5,178,491.5,178,491.4,178.1z M492.2,174.4c-0.1,0.1-0.2,0.2-0.3,0.2
			c0,0,0,0.1,0,0.1c0.1,0.2,0.1,0.3,0.2,0.5c0,0,0,0,0,0c-0.1-0.1-0.2-0.2-0.4-0.3c-0.1-0.1-0.1-0.1-0.2,0c-0.1,0.1-0.2,0.2-0.3,0.2
			c0,0,0,0-0.1,0c0,0,0,0,0-0.1c0-0.1,0.1-0.3,0.1-0.4c0,0,0-0.1,0-0.1c-0.1-0.1-0.3-0.2-0.4-0.3c0,0,0,0,0,0c0.1,0,0.3,0,0.4,0
			c0.1,0,0.1,0,0.2-0.1c0-0.1,0.1-0.3,0.1-0.4c0,0,0,0,0,0.1c0,0.1,0.1,0.3,0.1,0.4c0,0,0,0.1,0.1,0.1
			C491.9,174.3,492.1,174.3,492.2,174.4C492.2,174.3,492.3,174.3,492.2,174.4C492.3,174.3,492.3,174.3,492.2,174.4
			C492.3,174.3,492.2,174.3,492.2,174.4z"/>
		<path class="st1" d="M486.2,171.2c-2.3,0-4.1,1.8-4.1,4.1c0,2.3,1.8,4.1,4.1,4.1c2.3,0,4.1-1.8,4.1-4.1
			C490.4,173,488.5,171.2,486.2,171.2z M486.2,178.6c-1.8,0-3.3-1.5-3.3-3.3c0-1.8,1.5-3.3,3.3-3.3c1.8,0,3.3,1.5,3.3,3.3
			C489.5,177.1,488,178.6,486.2,178.6z"/>
		<path class="st1" d="M488.1,175.3c-0.1-0.1-0.2-0.2-0.4-0.2c0,0,0,0,0,0c0,0,0,0,0,0c0.2-0.1,0.3-0.3,0.4-0.6
			c0-0.4-0.1-0.7-0.4-0.8c-0.2-0.1-0.5-0.2-0.7-0.2c-0.1,0-0.1,0-0.1-0.1c0-0.2,0-0.5,0-0.7c0-0.1,0-0.1-0.1-0.1c-0.1,0-0.2,0-0.4,0
			c-0.1,0-0.1,0-0.1,0.1c0,0.2,0,0.4,0,0.7c0,0,0,0.1-0.1,0.1c-0.1,0-0.2,0-0.3,0c-0.1,0-0.1,0-0.1-0.1c0-0.2,0-0.4,0-0.7
			c0,0,0-0.1-0.1-0.1c-0.1,0-0.2,0-0.4,0c-0.1,0-0.1,0-0.1,0.1c0,0.2,0,0.4,0,0.7c0,0.1,0,0.1-0.1,0.1c-0.3,0-0.6,0-0.9,0
			c0,0-0.1,0-0.1,0.1c0,0.1,0,0.3,0,0.4c0,0,0,0.1,0.1,0.1c0.1,0,0.2,0,0.3,0c0.2,0,0.3,0.1,0.3,0.3c0,0.3,0,0.7,0,1
			c0,0.4,0,0.7,0,1.1c0,0.1-0.1,0.2-0.2,0.2c-0.1,0-0.2,0-0.3,0c0,0-0.1,0-0.1,0.1c0,0.2,0,0.3-0.1,0.5c0,0.1,0,0.1,0.1,0.1
			c0.3,0,0.6,0,0.8,0c0.1,0,0.1,0,0.1,0.1c0,0.2,0,0.5,0,0.7c0,0.1,0,0.1,0.1,0.1c0.1,0,0.2,0,0.3,0c0.1,0,0.1,0,0.1-0.1
			c0-0.2,0-0.4,0-0.7c0,0,0-0.1,0.1-0.1c0.1,0,0.2,0,0.3,0c0.1,0,0.1,0,0.1,0.1c0,0.2,0,0.4,0,0.7c0,0.1,0,0.1,0.1,0.1
			c0.1,0,0.2,0,0.3,0c0.1,0,0.1,0,0.1-0.1c0-0.2,0-0.4,0-0.7c0,0,0-0.1,0.1-0.1c0.1,0,0.1,0,0.2,0c0.2,0,0.4-0.1,0.6-0.1
			c0.2-0.1,0.4-0.2,0.5-0.4c0.1-0.3,0.1-0.5,0.1-0.8C488.3,175.6,488.2,175.5,488.1,175.3z M486,174c0.2,0,0.4,0,0.6,0
			c0.2,0,0.3,0.1,0.4,0.2c0.2,0.2,0.1,0.6-0.2,0.7c-0.3,0.1-0.6,0.1-0.8,0.1c0,0,0,0,0-0.1c0-0.1,0-0.3,0-0.4
			C486,174.4,486,174.2,486,174C486,174,486,174,486,174z M487.2,176.4c-0.1,0.1-0.3,0.1-0.4,0.1c-0.2,0-0.5,0-0.7,0
			c-0.1,0-0.1,0-0.1-0.1c0-0.2,0-0.3,0-0.5c0-0.2,0-0.3,0-0.5c0,0,0-0.1,0.1-0.1c0.2,0,0.5,0,0.7,0c0.2,0,0.3,0.1,0.4,0.2
			C487.4,175.8,487.4,176.2,487.2,176.4z"/>
	</g>
	<g>
		<path class="st1" d="M483.1,188.8c-7.5,0-13.6-6.1-13.6-13.6c0-7.5,6.1-13.6,13.6-13.6s13.6,6.1,13.6,13.6
			C496.8,182.7,490.7,188.8,483.1,188.8z M483.1,163.1c-6.7,0-12.1,5.4-12.1,12.1c0,6.7,5.4,12.1,12.1,12.1s12.1-5.4,12.1-12.1
			C495.2,168.5,489.8,163.1,483.1,163.1z"/>
	</g>
	<g>
		<path class="st1" d="M430.1,135.8c0-0.2-0.1-0.5-0.2-0.7c-0.3-0.9-0.7-1.7-1.4-2.4c-0.5-0.6-1.2-1.1-1.9-1.4
			c-0.5-0.3-1.1-0.5-1.6-0.6c-0.3-0.1-0.6-0.1-0.8-0.1c-0.3,0-0.6,0-1,0c-0.3,0-0.6,0.1-0.9,0.2c-0.3,0.1-0.7,0.2-1,0.3
			c0,0-0.1,0-0.1,0c-0.4-0.2-0.9-0.3-1.3-0.4c-0.4-0.1-0.8-0.1-1.2-0.1c-0.6,0-1.1,0.1-1.6,0.2c-0.4,0.1-0.8,0.2-1.1,0.4
			c-1,0.4-1.8,1.1-2.5,1.9c-0.7,0.9-1.1,1.9-1.3,3.1c0,0.3-0.1,0.5-0.1,0.8c0,0.4,0,0.7,0.1,1.1c0.1,0.3,0.1,0.7,0.2,1
			c0.3,0.9,0.7,1.6,1.3,2.3c0.4,0.4,0.8,0.8,1.2,1.1c1,0.7,2.1,1,3.3,1.1c0.5,0,1,0,1.5-0.1c0.5-0.1,0.9-0.2,1.3-0.4
			c0,0,0.1,0,0.1,0c0.2,0.1,0.5,0.2,0.8,0.3c0.5,0.1,1,0.2,1.5,0.2c0.4,0,0.8,0,1.2-0.1c0.3,0,0.5-0.1,0.8-0.2
			c0.6-0.2,1.1-0.4,1.6-0.7c0.8-0.5,1.4-1.1,1.9-1.8c0.6-0.8,0.9-1.7,1.1-2.6c0-0.2,0.1-0.4,0.1-0.7
			C430.3,136.9,430.2,136.4,430.1,135.8z M426.9,133.1c0.1,0,0.3,0,0.4,0c0.1,0,0.1,0,0.1-0.1c0-0.1,0.1-0.3,0.1-0.4c0,0,0,0,0-0.1
			c0.1,0.2,0.1,0.3,0.1,0.5c0,0,0,0,0.1,0c0.1,0,0.3,0,0.4,0c0,0,0,0,0.1,0c0,0-0.1,0.1-0.1,0.1c-0.1,0.1-0.2,0.1-0.3,0.2
			c0,0,0,0.1,0,0.1c0.1,0.1,0.1,0.3,0.1,0.4c0,0,0,0,0,0c-0.1-0.1-0.2-0.2-0.4-0.3c0,0-0.1,0-0.1,0c-0.1,0.1-0.2,0.2-0.3,0.2
			c0,0,0,0-0.1,0c0-0.1,0.1-0.2,0.1-0.3c0,0,0-0.1,0-0.1c0-0.1,0-0.1-0.1-0.2C427.1,133.3,427,133.2,426.9,133.1
			C426.9,133.2,426.9,133.2,426.9,133.1C426.9,133.1,426.9,133.1,426.9,133.1z M424.3,131.8C424.4,131.8,424.4,131.8,424.3,131.8
			c0.1-0.2,0.2-0.3,0.2-0.5c0,0.1,0.1,0.1,0.1,0.2c0,0.1,0,0.2,0.1,0.2c0,0,0,0,0.1,0c0.2,0,0.3,0,0.5,0c0,0,0,0,0,0
			c-0.1,0-0.1,0.1-0.2,0.1c-0.1,0-0.1,0.1-0.2,0.1c0,0-0.1,0.1,0,0.1c0,0.1,0.1,0.3,0.1,0.4c0,0,0,0,0,0c0,0-0.1-0.1-0.1-0.1
			c-0.1-0.1-0.2-0.1-0.3-0.2c0,0-0.1,0-0.1,0c-0.1,0.1-0.2,0.2-0.3,0.2c0,0,0,0-0.1,0c0-0.1,0-0.1,0.1-0.2c0-0.1,0-0.2,0.1-0.2
			c0,0,0-0.1,0-0.1c-0.1-0.1-0.2-0.2-0.3-0.3c0,0,0,0,0,0C424,131.8,424.2,131.8,424.3,131.8z M420.7,131.8c0.1,0,0.3,0,0.4,0
			c0,0,0.1,0,0.1-0.1c0-0.1,0.1-0.3,0.1-0.4c0,0,0,0,0,0c0,0.1,0.1,0.2,0.1,0.3c0,0.1,0,0.1,0.1,0.2c0,0,0,0,0.1,0
			c0.2,0,0.3,0,0.5,0c0,0-0.1,0.1-0.1,0.1c-0.1,0.1-0.2,0.1-0.3,0.2c-0.1,0-0.1,0.1,0,0.1c0,0.1,0.1,0.3,0.1,0.4c0,0,0,0,0,0.1
			c-0.1-0.1-0.2-0.2-0.4-0.3c0,0-0.1,0-0.1,0c-0.1,0.1-0.2,0.2-0.4,0.3c0,0,0,0,0,0c0-0.1,0.1-0.3,0.1-0.4c0-0.1,0-0.1-0.1-0.2
			C420.8,132,420.7,131.9,420.7,131.8C420.6,131.8,420.6,131.8,420.7,131.8z M417.7,131.8C417.8,131.8,417.8,131.8,417.7,131.8
			c0.1-0.2,0.2-0.3,0.2-0.5c0,0,0,0.1,0.1,0.1c0,0.1,0.1,0.2,0.1,0.3c0,0,0,0,0.1,0c0.1,0,0.3,0,0.4,0c0,0,0,0,0.1,0c0,0,0,0,0,0
			c-0.1,0.1-0.2,0.2-0.3,0.2c0,0-0.1,0.1,0,0.1c0,0.1,0.1,0.3,0.1,0.4c0,0,0,0-0.1,0c-0.1-0.1-0.2-0.2-0.3-0.2c0,0-0.1,0-0.1,0
			c-0.1,0.1-0.3,0.2-0.4,0.3c0-0.1,0-0.1,0-0.2c0-0.1,0.1-0.2,0.1-0.3c0,0,0-0.1,0-0.1c-0.1-0.1-0.2-0.2-0.3-0.2c0,0,0,0,0,0
			C417.4,131.8,417.6,131.8,417.7,131.8z M414.6,133.4C414.7,133.4,414.7,133.4,414.6,133.4c0.1,0,0.1,0,0.2,0
			c0-0.1,0.1-0.3,0.1-0.4c0,0,0,0,0,0c0,0.1,0.1,0.3,0.1,0.4c0,0,0,0,0.1,0c0.1,0,0.3,0,0.4,0c0,0,0,0,0.1,0c0,0,0,0-0.1,0
			c-0.1,0.1-0.2,0.2-0.3,0.2c0,0,0,0,0,0.1c0,0.1,0.1,0.3,0.1,0.4c0,0,0,0,0,0.1c-0.1-0.1-0.2-0.1-0.3-0.2c-0.1,0-0.1-0.1-0.2-0.1
			c-0.1,0-0.1,0.1-0.2,0.1c-0.1,0.1-0.2,0.1-0.3,0.2c0,0,0,0,0,0c0-0.1,0-0.1,0.1-0.2c0-0.1,0.1-0.2,0.1-0.3c0,0,0-0.1,0-0.1
			c-0.1-0.1-0.2-0.2-0.3-0.3c0,0,0,0,0,0C414.4,133.4,414.5,133.4,414.6,133.4z M412.9,137c0-0.1,0.1-0.2,0.1-0.3
			c0-0.1,0-0.1,0.1-0.2c0,0,0-0.1,0-0.1c-0.1-0.1-0.2-0.2-0.3-0.2c0,0,0,0,0,0c0,0,0,0,0.1,0c0.1,0,0.3,0,0.4,0c0,0,0.1,0,0.1-0.1
			c0-0.1,0.1-0.3,0.1-0.4c0,0,0,0,0,0c0,0,0,0,0,0c0,0.1,0.1,0.3,0.1,0.4c0,0,0,0,0.1,0c0.2,0,0.3,0,0.5,0c0,0,0,0,0,0.1
			c-0.1,0.1-0.2,0.2-0.3,0.2c0,0,0,0,0,0.1c0,0.1,0.1,0.3,0.1,0.4c0,0,0,0,0,0.1c-0.1-0.1-0.3-0.2-0.4-0.3c0,0-0.1,0-0.1,0
			C413.2,136.8,413.1,136.9,412.9,137C413,137,413,137,412.9,137z M414.6,139.6c-0.1,0.1-0.2,0.2-0.3,0.2c0,0,0,0,0,0.1
			c0,0.1,0.1,0.3,0.1,0.4c0,0,0,0,0,0c-0.1-0.1-0.2-0.1-0.2-0.2c-0.1,0-0.1-0.1-0.2-0.1c0,0-0.1,0-0.1,0c-0.1,0.1-0.2,0.2-0.4,0.3
			c0,0,0,0,0,0c0-0.1,0.1-0.3,0.1-0.4c0-0.1,0-0.1,0-0.1c-0.1-0.1-0.2-0.2-0.4-0.3c0,0,0,0,0,0c0.2,0,0.3,0,0.5,0c0,0,0.1,0,0.1-0.1
			c0-0.1,0.1-0.3,0.1-0.5c0,0.1,0.1,0.3,0.1,0.4c0,0.1,0,0.1,0.2,0.1C414.4,139.6,414.6,139.6,414.6,139.6
			C414.7,139.6,414.7,139.6,414.6,139.6z M417,141.9c-0.1,0.1-0.2,0.2-0.3,0.2c0,0,0,0.1,0,0.1c0,0.1,0.1,0.3,0.1,0.4c0,0,0,0,0,0
			c0,0,0,0-0.1,0c-0.1-0.1-0.2-0.2-0.3-0.2c0,0-0.1,0-0.1,0c-0.1,0.1-0.2,0.2-0.3,0.2c0,0,0,0-0.1,0c0-0.1,0.1-0.2,0.1-0.3
			c0-0.1,0-0.1,0.1-0.2c0,0,0-0.1,0-0.1c-0.1-0.1-0.2-0.2-0.3-0.2c0,0,0,0,0,0c0,0,0,0,0,0c0.1,0,0.3,0,0.4,0c0.1,0,0.1,0,0.1-0.1
			c0-0.1,0.1-0.3,0.1-0.4c0,0,0,0,0,0c0,0.1,0.1,0.3,0.1,0.4c0,0,0,0.1,0.1,0.1C416.7,141.8,416.9,141.8,417,141.9
			C417,141.8,417,141.8,417,141.9C417,141.9,417,141.9,417,141.9z M420,142.6c0,0.1,0.1,0.3,0.1,0.4c0,0,0,0,0,0.1
			c-0.1-0.1-0.2-0.1-0.3-0.2c-0.1,0-0.1-0.1-0.2-0.1c-0.1,0-0.1,0.1-0.2,0.1c-0.1,0.1-0.2,0.1-0.3,0.2c0-0.1,0-0.1,0-0.1
			c0-0.1,0.1-0.2,0.1-0.3c0,0,0-0.1,0-0.1c-0.1-0.1-0.2-0.2-0.4-0.3c0,0,0,0,0,0c0,0,0,0,0.1,0c0.1,0,0.3,0,0.4,0c0,0,0.1,0,0.1-0.1
			c0-0.1,0.1-0.3,0.1-0.4c0,0,0,0,0,0c0,0.2,0.1,0.3,0.1,0.4c0,0,0,0.1,0.1,0.1c0.1,0,0.3,0,0.4,0c0,0,0,0,0.1,0c0,0,0,0,0,0
			C420.3,142.4,420.2,142.5,420,142.6C420,142.6,420,142.6,420,142.6z M421.7,141c-0.3,0.2-0.7,0.3-1.1,0.4
			c-0.5,0.1-0.9,0.1-1.4,0.1c-1.1-0.1-2-0.5-2.7-1.3c-0.5-0.5-0.9-1-1.1-1.7c0,0,0-0.1-0.1-0.1c-0.4,0-0.8,0-1.2,0c0,0,0,0,0,0
			c0.1-0.1,0.1-0.2,0.2-0.4c0.1-0.2,0.2-0.4,0.3-0.6c0,0,0-0.1,0.1-0.1c0.2,0,0.4,0,0.6,0c0,0,0.1,0,0,0c0-0.1,0-0.3,0-0.4
			c0,0,0-0.1-0.1-0.1c-0.3,0-0.7,0-1,0c-0.1,0-0.1,0,0-0.1c0.1-0.3,0.3-0.6,0.4-0.9c0,0,0-0.1,0.1-0.1c0.2,0,0.5,0,0.7,0
			c0,0,0.1,0,0.1-0.1c0.3-1,0.8-1.8,1.6-2.4c0.5-0.4,1.1-0.7,1.8-0.8c0.4-0.1,0.8-0.1,1.2-0.1c0.7,0,1.3,0.2,1.9,0.5
			c0.1,0,0.1,0,0,0.1c-0.4,0.2-0.7,0.5-1,0.9c0,0,0,0-0.1,0c-0.4-0.1-0.8-0.2-1.2-0.2c-1.2,0.1-2.3,0.8-2.7,1.9c0,0.1,0,0.1,0,0.1
			c0.6,0,1.3,0,1.9,0c0.1,0,0.1,0,0.1,0.1c0,0.3,0,0.6,0,0.9c0,0.1,0,0.1-0.1,0.1c-0.7,0-1.4,0-2.1,0c-0.1,0-0.1,0-0.1,0.1
			c0,0.1,0,0.2,0,0.4c0,0,0,0,0.1,0c0.1,0,0.2,0,0.3,0c0.6,0,1.2,0,1.7,0c0,0,0.1,0,0.1,0.1c0,0.3,0,0.6,0,0.9c0,0.1,0,0.1-0.1,0.1
			c-0.6,0-1.1,0-1.7,0c-0.1,0-0.1,0,0,0.1c0.4,0.8,1.1,1.3,1.9,1.5c0.4,0.1,0.8,0.1,1.2,0.1c0.2,0,0.4-0.1,0.6-0.2c0,0,0.1,0,0.1,0
			C421,140.4,421.3,140.7,421.7,141C421.8,141,421.8,141,421.7,141z M423.3,142.5c0,0,0,0.1,0,0.1c0,0.1,0.1,0.3,0.1,0.4
			c-0.1-0.1-0.2-0.1-0.3-0.2c-0.1,0-0.1-0.1-0.2-0.1c-0.1,0-0.1,0.1-0.2,0.1c-0.1,0.1-0.2,0.1-0.3,0.2c0,0,0,0,0,0
			c0-0.1,0.1-0.2,0.1-0.3c0-0.1,0.1-0.1,0-0.2c0,0-0.1-0.1-0.1-0.1c-0.1-0.1-0.2-0.1-0.3-0.2c0,0,0,0,0.1,0c0.1,0,0.3,0,0.4,0
			c0,0,0.1,0,0.1-0.1c0-0.1,0.1-0.3,0.1-0.4c0,0,0,0,0-0.1c0,0.1,0.1,0.3,0.1,0.4c0,0.1,0,0.1,0.1,0.1c0.1,0,0.2,0,0.4,0
			c0,0,0,0,0.1,0C423.6,142.4,423.4,142.5,423.3,142.5z M426.8,141.9c-0.1,0.1-0.2,0.2-0.3,0.2c0,0-0.1,0.1,0,0.1
			c0,0.1,0.1,0.3,0.1,0.4c0,0,0,0,0,0.1c-0.1-0.1-0.2-0.1-0.2-0.2c0,0-0.1-0.1-0.1-0.1c0,0-0.1,0-0.1,0c-0.1,0.1-0.2,0.2-0.3,0.2
			c0,0,0,0-0.1,0c0-0.1,0-0.2,0.1-0.2c0-0.1,0-0.1,0.1-0.2c0-0.1,0-0.1,0-0.1c-0.1-0.1-0.2-0.2-0.3-0.2c0,0,0,0,0,0
			c0.1,0,0.2,0,0.3,0c0,0,0.1,0,0.1,0c0.1,0,0.1,0,0.1-0.1c0-0.1,0.1-0.2,0.1-0.3c0,0,0-0.1,0-0.1c0,0.1,0.1,0.3,0.1,0.4
			c0,0,0,0.1,0.1,0.1C426.5,141.8,426.7,141.8,426.8,141.9C426.8,141.8,426.8,141.9,426.8,141.9z M424.2,141.3
			c-2.3,0-4.2-1.9-4.2-4.2c0-2.3,1.9-4.2,4.2-4.2c2.3,0,4.2,1.9,4.2,4.2C428.3,139.4,426.5,141.3,424.2,141.3z M429,139.7
			c0,0-0.1,0.1-0.1,0.1c0,0,0,0,0,0.1c0.1,0.1,0.1,0.3,0.1,0.4c0,0,0,0,0,0c-0.1-0.1-0.2-0.2-0.4-0.3c0,0-0.1,0-0.1,0
			c-0.1,0.1-0.2,0.2-0.3,0.2c0,0,0,0,0,0c0-0.1,0.1-0.2,0.1-0.3c0.1-0.2,0.1-0.2-0.1-0.3c-0.1-0.1-0.2-0.1-0.3-0.2c0,0,0,0,0,0
			c0.1,0,0.3,0,0.4,0c0,0,0.1,0,0.1-0.1c0-0.1,0.1-0.3,0.1-0.4c0,0,0,0,0,0c0,0.1,0.1,0.2,0.1,0.3c0,0.1,0,0.1,0.1,0.2
			c0,0,0.1,0,0.2,0c0.1,0,0.2,0,0.3,0c0,0,0,0,0,0C429.1,139.6,429,139.7,429,139.7z M429.7,136.2c-0.1,0.1-0.2,0.1-0.3,0.2
			c0,0,0,0,0,0.1c0,0.1,0.1,0.3,0.1,0.4c0,0,0,0,0,0c-0.1-0.1-0.2-0.2-0.3-0.2c-0.1-0.1-0.1-0.1-0.2,0c-0.1,0.1-0.2,0.1-0.3,0.2
			c0,0,0,0-0.1,0c0,0,0,0,0-0.1c0-0.1,0.1-0.3,0.1-0.4c0,0,0-0.1,0-0.1c-0.1-0.1-0.2-0.2-0.4-0.3c0,0,0,0,0,0c0.1,0,0.3,0,0.4,0
			c0.1,0,0.1,0,0.2-0.1c0-0.1,0.1-0.2,0.1-0.4c0,0,0,0,0,0.1c0,0.1,0.1,0.3,0.1,0.4c0,0,0,0.1,0.1,0
			C429.5,136.2,429.6,136.2,429.7,136.2C429.8,136.2,429.8,136.2,429.7,136.2C429.8,136.2,429.8,136.2,429.7,136.2
			C429.8,136.2,429.8,136.2,429.7,136.2z"/>
		<path class="st1" d="M424.2,133.3c-2.1,0-3.8,1.7-3.8,3.9c0,2.1,1.7,3.9,3.9,3.8c2.1,0,3.8-1.7,3.8-3.9
			C428,135,426.3,133.3,424.2,133.3z M424.2,140.2c-1.7,0-3-1.4-3-3c0-1.7,1.4-3,3-3c1.7,0,3,1.4,3,3
			C427.2,138.8,425.8,140.2,424.2,140.2z"/>
		<path class="st1" d="M425.9,137.2c-0.1-0.1-0.2-0.1-0.4-0.2c0,0,0,0,0,0c0,0,0,0,0,0c0.2-0.1,0.3-0.3,0.3-0.6
			c0-0.3-0.1-0.6-0.4-0.8c-0.2-0.1-0.4-0.1-0.7-0.2c0,0-0.1,0-0.1-0.1c0-0.2,0-0.4,0-0.6c0-0.1,0-0.1-0.1-0.1c-0.1,0-0.2,0-0.3,0
			c0,0-0.1,0-0.1,0.1c0,0.2,0,0.4,0,0.6c0,0,0,0.1-0.1,0.1c-0.1,0-0.2,0-0.3,0c-0.1,0-0.1,0-0.1-0.1c0-0.2,0-0.4,0-0.6
			c0,0,0-0.1-0.1-0.1c-0.1,0-0.2,0-0.3,0c0,0-0.1,0-0.1,0.1c0,0.2,0,0.4,0,0.6c0,0.1,0,0.1-0.1,0.1c-0.3,0-0.5,0-0.8,0
			c0,0-0.1,0-0.1,0.1c0,0.1,0,0.2,0,0.4c0,0,0,0.1,0.1,0.1c0.1,0,0.2,0,0.3,0c0.2,0,0.3,0.1,0.3,0.3c0,0.3,0,0.6,0,1
			c0,0.3,0,0.7,0,1c0,0.1-0.1,0.2-0.2,0.2c-0.1,0-0.2,0-0.3,0c0,0-0.1,0-0.1,0c0,0.1,0,0.3-0.1,0.4c0,0.1,0,0.1,0.1,0.1
			c0.3,0,0.5,0,0.8,0c0.1,0,0.1,0,0.1,0.1c0,0.2,0,0.4,0,0.6c0,0,0,0.1,0.1,0.1c0.1,0,0.2,0,0.3,0c0,0,0.1,0,0.1-0.1
			c0-0.2,0-0.4,0-0.6c0,0,0-0.1,0.1-0.1c0.1,0,0.2,0,0.3,0c0,0,0.1,0,0.1,0.1c0,0.2,0,0.4,0,0.6c0,0.1,0,0.1,0.1,0.1
			c0.1,0,0.2,0,0.3,0c0.1,0,0.1,0,0.1-0.1c0-0.2,0-0.4,0-0.6c0,0,0-0.1,0.1-0.1c0.1,0,0.1,0,0.2,0c0.2,0,0.4-0.1,0.6-0.1
			c0.2-0.1,0.3-0.2,0.4-0.4c0.1-0.2,0.1-0.5,0.1-0.8C426.1,137.4,426,137.3,425.9,137.2z M424,135.9c0.2,0,0.4,0,0.5,0
			c0.1,0,0.3,0.1,0.4,0.2c0.2,0.2,0.1,0.5-0.1,0.6c-0.3,0.1-0.5,0.1-0.8,0.1c0,0,0,0,0-0.1c0-0.1,0-0.3,0-0.4
			C423.9,136.2,423.9,136.1,424,135.9C423.9,135.9,423.9,135.9,424,135.9z M425,138.1c-0.1,0.1-0.2,0.1-0.4,0.1c-0.2,0-0.4,0-0.7,0
			c-0.1,0-0.1,0-0.1-0.1c0-0.1,0-0.3,0-0.4c0-0.1,0-0.3,0-0.4c0,0,0-0.1,0.1-0.1c0.2,0,0.4,0,0.6,0c0.1,0,0.3,0.1,0.4,0.1
			C425.3,137.6,425.3,138,425,138.1z"/>
	</g>
	<g>
		<path class="st1" d="M421.3,149.8c-7,0-12.8-5.7-12.8-12.8c0-7,5.7-12.8,12.8-12.8c7,0,12.8,5.7,12.8,12.8
			C434,144,428.3,149.8,421.3,149.8z M421.3,125.7c-6.2,0-11.3,5.1-11.3,11.3c0,6.2,5.1,11.3,11.3,11.3s11.3-5.1,11.3-11.3
			C432.6,130.8,427.5,125.7,421.3,125.7z"/>
	</g>
	<g>
		<path class="st1" d="M108.3,304.3c0-0.2-0.1-0.5-0.2-0.7c-0.3-0.9-0.7-1.7-1.4-2.4c-0.5-0.6-1.2-1.1-1.9-1.4
			c-0.5-0.3-1.1-0.5-1.6-0.6c-0.3-0.1-0.6-0.1-0.8-0.1c-0.3,0-0.6,0-1,0c-0.3,0-0.6,0.1-0.9,0.2c-0.3,0.1-0.7,0.2-1,0.3
			c0,0-0.1,0-0.1,0c-0.4-0.2-0.9-0.3-1.3-0.4c-0.4-0.1-0.8-0.1-1.2-0.1c-0.6,0-1.1,0.1-1.6,0.2c-0.4,0.1-0.8,0.2-1.1,0.4
			c-1,0.4-1.8,1.1-2.5,1.9c-0.7,0.9-1.1,1.9-1.3,3.1c0,0.3-0.1,0.5-0.1,0.8c0,0.4,0,0.7,0.1,1.1c0.1,0.3,0.1,0.7,0.2,1
			c0.3,0.9,0.7,1.6,1.3,2.3c0.4,0.4,0.8,0.8,1.2,1.1c1,0.7,2.1,1,3.3,1.1c0.5,0,1,0,1.5-0.1c0.5-0.1,0.9-0.2,1.3-0.4
			c0,0,0.1,0,0.1,0c0.2,0.1,0.5,0.2,0.8,0.3c0.5,0.1,1,0.2,1.5,0.2c0.4,0,0.8,0,1.2-0.1c0.3,0,0.5-0.1,0.8-0.2
			c0.6-0.2,1.1-0.4,1.6-0.7c0.8-0.5,1.4-1.1,1.9-1.8c0.6-0.8,0.9-1.7,1.1-2.6c0-0.2,0.1-0.4,0.1-0.7
			C108.5,305.4,108.4,304.9,108.3,304.3z M105.1,301.6c0.1,0,0.3,0,0.4,0c0.1,0,0.1,0,0.1-0.1c0-0.1,0.1-0.3,0.1-0.4c0,0,0,0,0-0.1
			c0.1,0.2,0.1,0.3,0.1,0.5c0,0,0,0,0.1,0c0.1,0,0.3,0,0.4,0c0,0,0,0,0.1,0c0,0-0.1,0.1-0.1,0.1c-0.1,0.1-0.2,0.1-0.3,0.2
			c0,0,0,0.1,0,0.1c0.1,0.1,0.1,0.3,0.1,0.4c0,0,0,0,0,0c-0.1-0.1-0.2-0.2-0.4-0.3c0,0-0.1,0-0.1,0c-0.1,0.1-0.2,0.2-0.3,0.2
			c0,0,0,0-0.1,0c0-0.1,0.1-0.2,0.1-0.3c0,0,0-0.1,0-0.1c0-0.1,0-0.1-0.1-0.2C105.3,301.8,105.2,301.8,105.1,301.6
			C105.1,301.7,105.1,301.7,105.1,301.6C105.1,301.6,105.1,301.6,105.1,301.6z M102.5,300.3C102.6,300.3,102.6,300.3,102.5,300.3
			c0.1-0.2,0.2-0.3,0.2-0.5c0,0.1,0.1,0.1,0.1,0.2c0,0.1,0,0.2,0.1,0.2c0,0,0,0,0.1,0c0.2,0,0.3,0,0.5,0c0,0,0,0,0,0
			c-0.1,0-0.1,0.1-0.2,0.1c-0.1,0-0.1,0.1-0.2,0.1c0,0-0.1,0.1,0,0.1c0,0.1,0.1,0.3,0.1,0.4c0,0,0,0,0,0c0,0-0.1-0.1-0.1-0.1
			c-0.1-0.1-0.2-0.1-0.3-0.2c0,0-0.1,0-0.1,0c-0.1,0.1-0.2,0.2-0.3,0.2c0,0,0,0-0.1,0c0-0.1,0-0.1,0.1-0.2c0-0.1,0-0.2,0.1-0.2
			c0,0,0-0.1,0-0.1c-0.1-0.1-0.2-0.2-0.3-0.3c0,0,0,0,0,0C102.2,300.3,102.4,300.3,102.5,300.3z M98.9,300.4c0.1,0,0.3,0,0.4,0
			c0,0,0.1,0,0.1-0.1c0-0.1,0.1-0.3,0.1-0.4c0,0,0,0,0,0c0,0.1,0.1,0.2,0.1,0.3c0,0.1,0,0.1,0.1,0.2c0,0,0,0,0.1,0
			c0.2,0,0.3,0,0.5,0c0,0-0.1,0.1-0.1,0.1c-0.1,0.1-0.2,0.1-0.3,0.2c-0.1,0-0.1,0.1,0,0.1c0,0.1,0.1,0.3,0.1,0.4c0,0,0,0,0,0.1
			c-0.1-0.1-0.2-0.2-0.4-0.3c0,0-0.1,0-0.1,0c-0.1,0.1-0.2,0.2-0.4,0.3c0,0,0,0,0,0c0-0.1,0.1-0.3,0.1-0.4c0-0.1,0-0.1-0.1-0.2
			C99,300.5,98.9,300.5,98.9,300.4C98.8,300.4,98.8,300.4,98.9,300.4z M95.9,300.3C95.9,300.3,96,300.3,95.9,300.3
			c0.1-0.2,0.2-0.3,0.2-0.5c0,0,0,0.1,0.1,0.1c0,0.1,0.1,0.2,0.1,0.3c0,0,0,0,0.1,0c0.1,0,0.3,0,0.4,0c0,0,0,0,0.1,0c0,0,0,0,0,0
			c-0.1,0.1-0.2,0.2-0.3,0.2c0,0-0.1,0.1,0,0.1c0,0.1,0.1,0.3,0.1,0.4c0,0,0,0-0.1,0c-0.1-0.1-0.2-0.2-0.3-0.2c0,0-0.1,0-0.1,0
			c-0.1,0.1-0.3,0.2-0.4,0.3c0-0.1,0-0.1,0-0.2c0-0.1,0.1-0.2,0.1-0.3c0,0,0-0.1,0-0.1c-0.1-0.1-0.2-0.2-0.3-0.2c0,0,0,0,0,0
			C95.6,300.3,95.8,300.3,95.9,300.3z M92.8,301.9C92.9,301.9,92.9,301.9,92.8,301.9c0.1,0,0.1,0,0.2,0c0-0.1,0.1-0.3,0.1-0.4
			c0,0,0,0,0,0c0,0.1,0.1,0.3,0.1,0.4c0,0,0,0,0.1,0c0.1,0,0.3,0,0.4,0c0,0,0,0,0.1,0c0,0,0,0-0.1,0c-0.1,0.1-0.2,0.2-0.3,0.2
			c0,0,0,0,0,0.1c0,0.1,0.1,0.3,0.1,0.4c0,0,0,0,0,0.1c-0.1-0.1-0.2-0.1-0.3-0.2c-0.1,0-0.1-0.1-0.2-0.1c-0.1,0-0.1,0.1-0.2,0.1
			c-0.1,0.1-0.2,0.1-0.3,0.2c0,0,0,0,0,0c0-0.1,0-0.1,0.1-0.2c0-0.1,0.1-0.2,0.1-0.3c0,0,0-0.1,0-0.1c-0.1-0.1-0.2-0.2-0.3-0.3
			c0,0,0,0,0,0C92.6,301.9,92.7,301.9,92.8,301.9z M91.1,305.5c0-0.1,0.1-0.2,0.1-0.3c0-0.1,0-0.1,0.1-0.2c0,0,0-0.1,0-0.1
			c-0.1-0.1-0.2-0.2-0.3-0.2c0,0,0,0,0,0c0,0,0,0,0.1,0c0.1,0,0.3,0,0.4,0c0,0,0.1,0,0.1-0.1c0-0.1,0.1-0.3,0.1-0.4c0,0,0,0,0,0
			c0,0,0,0,0,0c0,0.1,0.1,0.3,0.1,0.4c0,0,0,0,0.1,0c0.2,0,0.3,0,0.5,0c0,0,0,0,0,0.1c-0.1,0.1-0.2,0.2-0.3,0.2c0,0,0,0,0,0.1
			c0,0.1,0.1,0.3,0.1,0.4c0,0,0,0,0,0.1c-0.1-0.1-0.3-0.2-0.4-0.3c0,0-0.1,0-0.1,0C91.4,305.3,91.3,305.4,91.1,305.5
			C91.2,305.5,91.2,305.5,91.1,305.5z M92.8,308.1c-0.1,0.1-0.2,0.2-0.3,0.2c0,0,0,0,0,0.1c0,0.1,0.1,0.3,0.1,0.4c0,0,0,0,0,0
			c-0.1-0.1-0.2-0.1-0.2-0.2c-0.1,0-0.1-0.1-0.2-0.1c0,0-0.1,0-0.1,0c-0.1,0.1-0.2,0.2-0.4,0.3c0,0,0,0,0,0c0-0.1,0.1-0.3,0.1-0.4
			c0-0.1,0-0.1,0-0.1c-0.1-0.1-0.2-0.2-0.4-0.3c0,0,0,0,0,0c0.2,0,0.3,0,0.5,0c0,0,0.1,0,0.1-0.1c0-0.1,0.1-0.3,0.1-0.5
			c0,0.1,0.1,0.3,0.1,0.4c0,0.1,0,0.1,0.2,0.1C92.6,308.1,92.8,308.1,92.8,308.1C92.9,308.1,92.9,308.1,92.8,308.1z M95.2,310.4
			c-0.1,0.1-0.2,0.2-0.3,0.2c0,0,0,0.1,0,0.1c0,0.1,0.1,0.3,0.1,0.4c0,0,0,0,0,0c0,0,0,0-0.1,0c-0.1-0.1-0.2-0.2-0.3-0.2
			c0,0-0.1,0-0.1,0c-0.1,0.1-0.2,0.2-0.3,0.2c0,0,0,0-0.1,0c0-0.1,0.1-0.2,0.1-0.3c0-0.1,0-0.1,0.1-0.2c0,0,0-0.1,0-0.1
			c-0.1-0.1-0.2-0.2-0.3-0.2c0,0,0,0,0,0c0,0,0,0,0,0c0.1,0,0.3,0,0.4,0c0.1,0,0.1,0,0.1-0.1c0-0.1,0.1-0.3,0.1-0.4c0,0,0,0,0,0
			c0,0.1,0.1,0.3,0.1,0.4c0,0,0,0.1,0.1,0.1C94.9,310.3,95,310.3,95.2,310.4C95.2,310.3,95.2,310.3,95.2,310.4
			C95.2,310.4,95.2,310.4,95.2,310.4z M98.2,311.2c0,0.1,0.1,0.3,0.1,0.4c0,0,0,0,0,0.1c-0.1-0.1-0.2-0.1-0.3-0.2
			c-0.1,0-0.1-0.1-0.2-0.1c-0.1,0-0.1,0.1-0.2,0.1c-0.1,0.1-0.2,0.1-0.3,0.2c0-0.1,0-0.1,0-0.1c0-0.1,0.1-0.2,0.1-0.3
			c0,0,0-0.1,0-0.1c-0.1-0.1-0.2-0.2-0.4-0.3c0,0,0,0,0,0c0,0,0,0,0.1,0c0.1,0,0.3,0,0.4,0c0,0,0.1,0,0.1-0.1c0-0.1,0.1-0.3,0.1-0.4
			c0,0,0,0,0,0c0,0.2,0.1,0.3,0.1,0.4c0,0,0,0.1,0.1,0.1c0.1,0,0.3,0,0.4,0c0,0,0,0,0.1,0c0,0,0,0,0,0
			C98.5,310.9,98.4,311,98.2,311.2C98.2,311.1,98.2,311.1,98.2,311.2z M99.9,309.5c-0.3,0.2-0.7,0.3-1.1,0.4
			c-0.5,0.1-0.9,0.1-1.4,0.1c-1.1-0.1-2-0.5-2.7-1.3c-0.5-0.5-0.9-1-1.1-1.7c0,0,0-0.1-0.1-0.1c-0.4,0-0.8,0-1.2,0c0,0,0,0,0,0
			c0.1-0.1,0.1-0.2,0.2-0.4c0.1-0.2,0.2-0.4,0.3-0.6c0,0,0-0.1,0.1-0.1c0.2,0,0.4,0,0.6,0c0,0,0.1,0,0,0c0-0.1,0-0.3,0-0.4
			c0,0,0-0.1-0.1-0.1c-0.3,0-0.7,0-1,0c-0.1,0-0.1,0,0-0.1c0.1-0.3,0.3-0.6,0.4-0.9c0,0,0-0.1,0.1-0.1c0.2,0,0.5,0,0.7,0
			c0,0,0.1,0,0.1-0.1c0.3-1,0.8-1.8,1.6-2.4c0.5-0.4,1.1-0.7,1.8-0.8c0.4-0.1,0.8-0.1,1.2-0.1c0.7,0,1.3,0.2,1.9,0.5
			c0.1,0,0.1,0,0,0.1c-0.4,0.2-0.7,0.5-1,0.9c0,0,0,0-0.1,0c-0.4-0.1-0.8-0.2-1.2-0.2c-1.2,0.1-2.3,0.8-2.7,1.9c0,0.1,0,0.1,0,0.1
			c0.6,0,1.3,0,1.9,0c0.1,0,0.1,0,0.1,0.1c0,0.3,0,0.6,0,0.9c0,0.1,0,0.1-0.1,0.1c-0.7,0-1.4,0-2.1,0c-0.1,0-0.1,0-0.1,0.1
			c0,0.1,0,0.2,0,0.4c0,0,0,0,0.1,0c0.1,0,0.2,0,0.3,0c0.6,0,1.2,0,1.7,0c0,0,0.1,0,0.1,0.1c0,0.3,0,0.6,0,0.9c0,0.1,0,0.1-0.1,0.1
			c-0.6,0-1.1,0-1.7,0c-0.1,0-0.1,0,0,0.1c0.4,0.8,1.1,1.3,1.9,1.5c0.4,0.1,0.8,0.1,1.2,0.1c0.2,0,0.4-0.1,0.6-0.2c0,0,0.1,0,0.1,0
			C99.2,308.9,99.5,309.2,99.9,309.5C100,309.5,100,309.5,99.9,309.5z M101.5,311.1c0,0,0,0.1,0,0.1c0,0.1,0.1,0.3,0.1,0.4
			c-0.1-0.1-0.2-0.1-0.3-0.2c-0.1,0-0.1-0.1-0.2-0.1c-0.1,0-0.1,0.1-0.2,0.1c-0.1,0.1-0.2,0.1-0.3,0.2c0,0,0,0,0,0
			c0-0.1,0.1-0.2,0.1-0.3c0-0.1,0.1-0.1,0-0.2c0,0-0.1-0.1-0.1-0.1c-0.1-0.1-0.2-0.1-0.3-0.2c0,0,0,0,0.1,0c0.1,0,0.3,0,0.4,0
			c0,0,0.1,0,0.1-0.1c0-0.1,0.1-0.3,0.1-0.4c0,0,0,0,0-0.1c0,0.1,0.1,0.3,0.1,0.4c0,0.1,0,0.1,0.1,0.1c0.1,0,0.2,0,0.4,0
			c0,0,0,0,0.1,0C101.8,310.9,101.6,311,101.5,311.1z M105,310.4c-0.1,0.1-0.2,0.2-0.3,0.2c0,0-0.1,0.1,0,0.1c0,0.1,0.1,0.3,0.1,0.4
			c0,0,0,0,0,0.1c-0.1-0.1-0.2-0.1-0.2-0.2c0,0-0.1-0.1-0.1-0.1c0,0-0.1,0-0.1,0c-0.1,0.1-0.2,0.2-0.3,0.2c0,0,0,0-0.1,0
			c0-0.1,0-0.2,0.1-0.2c0-0.1,0-0.1,0.1-0.2c0-0.1,0-0.1,0-0.1c-0.1-0.1-0.2-0.2-0.3-0.2c0,0,0,0,0,0c0.1,0,0.2,0,0.3,0
			c0,0,0.1,0,0.1,0c0.1,0,0.1,0,0.1-0.1c0-0.1,0.1-0.2,0.1-0.3c0,0,0-0.1,0-0.1c0,0.1,0.1,0.3,0.1,0.4c0,0,0,0.1,0.1,0.1
			C104.7,310.3,104.9,310.3,105,310.4C105,310.4,105,310.4,105,310.4z M102.4,309.8c-2.3,0-4.2-1.9-4.2-4.2c0-2.3,1.9-4.2,4.2-4.2
			c2.3,0,4.2,1.9,4.2,4.2C106.5,308,104.7,309.8,102.4,309.8z M107.2,308.3c0,0-0.1,0.1-0.1,0.1c0,0,0,0,0,0.1
			c0.1,0.1,0.1,0.3,0.1,0.4c0,0,0,0,0,0c-0.1-0.1-0.2-0.2-0.4-0.3c0,0-0.1,0-0.1,0c-0.1,0.1-0.2,0.2-0.3,0.2c0,0,0,0,0,0
			c0-0.1,0.1-0.2,0.1-0.3c0.1-0.2,0.1-0.2-0.1-0.3c-0.1-0.1-0.2-0.1-0.3-0.2c0,0,0,0,0,0c0.1,0,0.3,0,0.4,0c0,0,0.1,0,0.1-0.1
			c0-0.1,0.1-0.3,0.1-0.4c0,0,0,0,0,0c0,0.1,0.1,0.2,0.1,0.3c0,0.1,0,0.1,0.1,0.2c0,0,0.1,0,0.2,0c0.1,0,0.2,0,0.3,0c0,0,0,0,0,0
			C107.3,308.1,107.2,308.2,107.2,308.3z M107.9,304.8c-0.1,0.1-0.2,0.1-0.3,0.2c0,0,0,0,0,0.1c0,0.1,0.1,0.3,0.1,0.4c0,0,0,0,0,0
			c-0.1-0.1-0.2-0.2-0.3-0.2c-0.1-0.1-0.1-0.1-0.2,0c-0.1,0.1-0.2,0.1-0.3,0.2c0,0,0,0-0.1,0c0,0,0,0,0-0.1c0-0.1,0.1-0.3,0.1-0.4
			c0,0,0-0.1,0-0.1c-0.1-0.1-0.2-0.2-0.4-0.3c0,0,0,0,0,0c0.1,0,0.3,0,0.4,0c0.1,0,0.1,0,0.2-0.1c0-0.1,0.1-0.2,0.1-0.4
			c0,0,0,0,0,0.1c0,0.1,0.1,0.3,0.1,0.4c0,0,0,0.1,0.1,0C107.7,304.7,107.8,304.7,107.9,304.8C108,304.7,108,304.7,107.9,304.8
			C108,304.7,108,304.7,107.9,304.8C108,304.7,108,304.7,107.9,304.8z"/>
		<path class="st1" d="M102.4,301.8c-2.1,0-3.8,1.7-3.8,3.9c0,2.1,1.7,3.9,3.9,3.8c2.1,0,3.8-1.7,3.8-3.9
			C106.2,303.5,104.5,301.8,102.4,301.8z M102.4,308.7c-1.7,0-3-1.4-3-3c0-1.7,1.4-3,3-3c1.7,0,3,1.4,3,3
			C105.4,307.3,104,308.7,102.4,308.7z"/>
		<path class="st1" d="M104.1,305.7c-0.1-0.1-0.2-0.1-0.4-0.2c0,0,0,0,0,0c0,0,0,0,0,0c0.2-0.1,0.3-0.3,0.3-0.6
			c0-0.3-0.1-0.6-0.4-0.8c-0.2-0.1-0.4-0.1-0.7-0.2c0,0-0.1,0-0.1-0.1c0-0.2,0-0.4,0-0.6c0-0.1,0-0.1-0.1-0.1c-0.1,0-0.2,0-0.3,0
			c0,0-0.1,0-0.1,0.1c0,0.2,0,0.4,0,0.6c0,0,0,0.1-0.1,0.1c-0.1,0-0.2,0-0.3,0c-0.1,0-0.1,0-0.1-0.1c0-0.2,0-0.4,0-0.6
			c0,0,0-0.1-0.1-0.1c-0.1,0-0.2,0-0.3,0c0,0-0.1,0-0.1,0.1c0,0.2,0,0.4,0,0.6c0,0.1,0,0.1-0.1,0.1c-0.3,0-0.5,0-0.8,0
			c0,0-0.1,0-0.1,0.1c0,0.1,0,0.2,0,0.4c0,0,0,0.1,0.1,0.1c0.1,0,0.2,0,0.3,0c0.2,0,0.3,0.1,0.3,0.3c0,0.3,0,0.6,0,1
			c0,0.3,0,0.7,0,1c0,0.1-0.1,0.2-0.2,0.2c-0.1,0-0.2,0-0.3,0c0,0-0.1,0-0.1,0c0,0.1,0,0.3-0.1,0.4c0,0.1,0,0.1,0.1,0.1
			c0.3,0,0.5,0,0.8,0c0.1,0,0.1,0,0.1,0.1c0,0.2,0,0.4,0,0.6c0,0,0,0.1,0.1,0.1c0.1,0,0.2,0,0.3,0c0,0,0.1,0,0.1-0.1
			c0-0.2,0-0.4,0-0.6c0,0,0-0.1,0.1-0.1c0.1,0,0.2,0,0.3,0c0,0,0.1,0,0.1,0.1c0,0.2,0,0.4,0,0.6c0,0.1,0,0.1,0.1,0.1
			c0.1,0,0.2,0,0.3,0c0.1,0,0.1,0,0.1-0.1c0-0.2,0-0.4,0-0.6c0,0,0-0.1,0.1-0.1c0.1,0,0.1,0,0.2,0c0.2,0,0.4-0.1,0.6-0.1
			c0.2-0.1,0.3-0.2,0.4-0.4c0.1-0.2,0.1-0.5,0.1-0.8C104.3,305.9,104.2,305.8,104.1,305.7z M102.2,304.4c0.2,0,0.4,0,0.5,0
			c0.1,0,0.3,0.1,0.4,0.2c0.2,0.2,0.1,0.5-0.1,0.6c-0.3,0.1-0.5,0.1-0.8,0.1c0,0,0,0,0-0.1c0-0.1,0-0.3,0-0.4
			C102.1,304.8,102.1,304.6,102.2,304.4C102.1,304.5,102.1,304.4,102.2,304.4z M103.2,306.6c-0.1,0.1-0.2,0.1-0.4,0.1
			c-0.2,0-0.4,0-0.7,0c-0.1,0-0.1,0-0.1-0.1c0-0.1,0-0.3,0-0.4c0-0.1,0-0.3,0-0.4c0,0,0-0.1,0.1-0.1c0.2,0,0.4,0,0.6,0
			c0.1,0,0.3,0.1,0.4,0.1C103.5,306.1,103.5,306.5,103.2,306.6z"/>
	</g>
	<g>
		<path class="st1" d="M99.4,318.3c-7,0-12.8-5.7-12.8-12.8c0-7,5.7-12.8,12.8-12.8s12.8,5.7,12.8,12.8
			C112.2,312.6,106.5,318.3,99.4,318.3z M99.4,294.2c-6.2,0-11.3,5.1-11.3,11.3c0,6.2,5.1,11.3,11.3,11.3s11.3-5.1,11.3-11.3
			C110.8,299.3,105.7,294.2,99.4,294.2z"/>
	</g>
	<g>
		<path class="st2" d="M678.8,375.8c0-0.2-0.1-0.5-0.2-0.7c-0.3-0.9-0.7-1.7-1.4-2.4c-0.5-0.6-1.2-1.1-1.9-1.4
			c-0.5-0.3-1.1-0.5-1.6-0.6c-0.3-0.1-0.6-0.1-0.8-0.1c-0.3,0-0.6,0-1,0c-0.3,0-0.6,0.1-0.9,0.2c-0.3,0.1-0.7,0.2-1,0.3
			c0,0-0.1,0-0.1,0c-0.4-0.2-0.9-0.3-1.3-0.4c-0.4-0.1-0.8-0.1-1.2-0.1c-0.6,0-1.1,0.1-1.6,0.2c-0.4,0.1-0.8,0.2-1.1,0.4
			c-1,0.4-1.8,1.1-2.5,1.9c-0.7,0.9-1.1,1.9-1.3,3.1c0,0.3-0.1,0.5-0.1,0.8c0,0.4,0,0.7,0.1,1.1c0.1,0.3,0.1,0.7,0.2,1
			c0.3,0.9,0.7,1.6,1.3,2.3c0.4,0.4,0.8,0.8,1.2,1.1c1,0.7,2.1,1,3.3,1.1c0.5,0,1,0,1.5-0.1c0.5-0.1,0.9-0.2,1.3-0.4
			c0,0,0.1,0,0.1,0c0.2,0.1,0.5,0.2,0.8,0.3c0.5,0.1,1,0.2,1.5,0.2c0.4,0,0.8,0,1.2-0.1c0.3,0,0.5-0.1,0.8-0.2
			c0.6-0.2,1.1-0.4,1.6-0.7c0.8-0.5,1.4-1.1,1.9-1.8c0.6-0.8,0.9-1.7,1.1-2.6c0-0.2,0.1-0.4,0.1-0.7
			C678.9,376.9,678.9,376.4,678.8,375.8z M675.6,373.1c0.1,0,0.3,0,0.4,0c0.1,0,0.1,0,0.1-0.1c0-0.1,0.1-0.3,0.1-0.4c0,0,0,0,0-0.1
			c0.1,0.2,0.1,0.3,0.1,0.5c0,0,0,0,0.1,0c0.1,0,0.3,0,0.4,0c0,0,0,0,0.1,0c0,0-0.1,0.1-0.1,0.1c-0.1,0.1-0.2,0.1-0.3,0.2
			c0,0,0,0.1,0,0.1c0.1,0.1,0.1,0.3,0.1,0.4c0,0,0,0,0,0c-0.1-0.1-0.2-0.2-0.4-0.3c0,0-0.1,0-0.1,0c-0.1,0.1-0.2,0.2-0.3,0.2
			c0,0,0,0-0.1,0c0-0.1,0.1-0.2,0.1-0.3c0,0,0-0.1,0-0.1c0-0.1,0-0.1-0.1-0.2C675.8,373.3,675.7,373.2,675.6,373.1
			C675.6,373.2,675.6,373.2,675.6,373.1C675.6,373.1,675.6,373.1,675.6,373.1z M673,371.8C673.1,371.8,673.1,371.8,673,371.8
			c0.1-0.2,0.2-0.3,0.2-0.5c0,0.1,0.1,0.1,0.1,0.2c0,0.1,0,0.2,0.1,0.2c0,0,0,0,0.1,0c0.2,0,0.3,0,0.5,0c0,0,0,0,0,0
			c-0.1,0-0.1,0.1-0.2,0.1c-0.1,0-0.1,0.1-0.2,0.1c0,0-0.1,0.1,0,0.1c0,0.1,0.1,0.3,0.1,0.4c0,0,0,0,0,0c0,0-0.1-0.1-0.1-0.1
			c-0.1-0.1-0.2-0.1-0.3-0.2c0,0-0.1,0-0.1,0c-0.1,0.1-0.2,0.2-0.3,0.2c0,0,0,0-0.1,0c0-0.1,0-0.1,0.1-0.2c0-0.1,0-0.2,0.1-0.2
			c0,0,0-0.1,0-0.1c-0.1-0.1-0.2-0.2-0.3-0.3c0,0,0,0,0,0C672.7,371.8,672.9,371.8,673,371.8z M669.3,371.8c0.1,0,0.3,0,0.4,0
			c0,0,0.1,0,0.1-0.1c0-0.1,0.1-0.3,0.1-0.4c0,0,0,0,0,0c0,0.1,0.1,0.2,0.1,0.3c0,0.1,0,0.1,0.1,0.2c0,0,0,0,0.1,0
			c0.2,0,0.3,0,0.5,0c0,0-0.1,0.1-0.1,0.1c-0.1,0.1-0.2,0.1-0.3,0.2c-0.1,0-0.1,0.1,0,0.1c0,0.1,0.1,0.3,0.1,0.4c0,0,0,0,0,0.1
			c-0.1-0.1-0.2-0.2-0.4-0.3c0,0-0.1,0-0.1,0c-0.1,0.1-0.2,0.2-0.4,0.3c0,0,0,0,0,0c0-0.1,0.1-0.3,0.1-0.4c0-0.1,0-0.1-0.1-0.2
			C669.5,372,669.4,371.9,669.3,371.8C669.3,371.8,669.3,371.8,669.3,371.8z M666.4,371.8C666.4,371.8,666.4,371.8,666.4,371.8
			c0.1-0.2,0.2-0.3,0.2-0.5c0,0,0,0.1,0.1,0.1c0,0.1,0.1,0.2,0.1,0.3c0,0,0,0,0.1,0c0.1,0,0.3,0,0.4,0c0,0,0,0,0.1,0c0,0,0,0,0,0
			c-0.1,0.1-0.2,0.2-0.3,0.2c0,0-0.1,0.1,0,0.1c0,0.1,0.1,0.3,0.1,0.4c0,0,0,0-0.1,0c-0.1-0.1-0.2-0.2-0.3-0.2c0,0-0.1,0-0.1,0
			c-0.1,0.1-0.3,0.2-0.4,0.3c0-0.1,0-0.1,0-0.2c0-0.1,0.1-0.2,0.1-0.3c0,0,0-0.1,0-0.1c-0.1-0.1-0.2-0.2-0.3-0.2c0,0,0,0,0,0
			C666.1,371.8,666.2,371.8,666.4,371.8z M663.3,373.4C663.3,373.4,663.4,373.4,663.3,373.4c0.1,0,0.1,0,0.2,0
			c0-0.1,0.1-0.3,0.1-0.4c0,0,0,0,0,0c0,0.1,0.1,0.3,0.1,0.4c0,0,0,0,0.1,0c0.1,0,0.3,0,0.4,0c0,0,0,0,0.1,0c0,0,0,0-0.1,0
			c-0.1,0.1-0.2,0.2-0.3,0.2c0,0,0,0,0,0.1c0,0.1,0.1,0.3,0.1,0.4c0,0,0,0,0,0.1c-0.1-0.1-0.2-0.1-0.3-0.2c-0.1,0-0.1-0.1-0.2-0.1
			c-0.1,0-0.1,0.1-0.2,0.1c-0.1,0.1-0.2,0.1-0.3,0.2c0,0,0,0,0,0c0-0.1,0-0.1,0.1-0.2c0-0.1,0.1-0.2,0.1-0.3c0,0,0-0.1,0-0.1
			c-0.1-0.1-0.2-0.2-0.3-0.3c0,0,0,0,0,0C663,373.4,663.2,373.4,663.3,373.4z M661.6,377c0-0.1,0.1-0.2,0.1-0.3c0-0.1,0-0.1,0.1-0.2
			c0,0,0-0.1,0-0.1c-0.1-0.1-0.2-0.2-0.3-0.2c0,0,0,0,0,0c0,0,0,0,0.1,0c0.1,0,0.3,0,0.4,0c0,0,0.1,0,0.1-0.1c0-0.1,0.1-0.3,0.1-0.4
			c0,0,0,0,0,0c0,0,0,0,0,0c0,0.1,0.1,0.3,0.1,0.4c0,0,0,0,0.1,0c0.2,0,0.3,0,0.5,0c0,0,0,0,0,0.1c-0.1,0.1-0.2,0.2-0.3,0.2
			c0,0,0,0,0,0.1c0,0.1,0.1,0.3,0.1,0.4c0,0,0,0,0,0.1c-0.1-0.1-0.3-0.2-0.4-0.3c0,0-0.1,0-0.1,0C661.9,376.8,661.8,376.9,661.6,377
			C661.7,377,661.7,377,661.6,377z M663.3,379.6c-0.1,0.1-0.2,0.2-0.3,0.2c0,0,0,0,0,0.1c0,0.1,0.1,0.3,0.1,0.4c0,0,0,0,0,0
			c-0.1-0.1-0.2-0.1-0.2-0.2c-0.1,0-0.1-0.1-0.2-0.1c0,0-0.1,0-0.1,0c-0.1,0.1-0.2,0.2-0.4,0.3c0,0,0,0,0,0c0-0.1,0.1-0.3,0.1-0.4
			c0-0.1,0-0.1,0-0.1c-0.1-0.1-0.2-0.2-0.4-0.3c0,0,0,0,0,0c0.2,0,0.3,0,0.5,0c0,0,0.1,0,0.1-0.1c0-0.1,0.1-0.3,0.1-0.5
			c0,0.1,0.1,0.3,0.1,0.4c0,0.1,0,0.1,0.2,0.1C663.1,379.6,663.2,379.6,663.3,379.6C663.4,379.6,663.3,379.6,663.3,379.6z
			 M665.6,381.9c-0.1,0.1-0.2,0.2-0.3,0.2c0,0,0,0.1,0,0.1c0,0.1,0.1,0.3,0.1,0.4c0,0,0,0,0,0c0,0,0,0-0.1,0
			c-0.1-0.1-0.2-0.2-0.3-0.2c0,0-0.1,0-0.1,0c-0.1,0.1-0.2,0.2-0.3,0.2c0,0,0,0-0.1,0c0-0.1,0.1-0.2,0.1-0.3c0-0.1,0-0.1,0.1-0.2
			c0,0,0-0.1,0-0.1c-0.1-0.1-0.2-0.2-0.3-0.2c0,0,0,0,0,0c0,0,0,0,0,0c0.1,0,0.3,0,0.4,0c0.1,0,0.1,0,0.1-0.1c0-0.1,0.1-0.3,0.1-0.4
			c0,0,0,0,0,0c0,0.1,0.1,0.3,0.1,0.4c0,0,0,0.1,0.1,0.1C665.4,381.8,665.5,381.8,665.6,381.9C665.7,381.8,665.7,381.8,665.6,381.9
			C665.7,381.9,665.7,381.9,665.6,381.9z M668.7,382.6c0,0.1,0.1,0.3,0.1,0.4c0,0,0,0,0,0.1c-0.1-0.1-0.2-0.1-0.3-0.2
			c-0.1,0-0.1-0.1-0.2-0.1c-0.1,0-0.1,0.1-0.2,0.1c-0.1,0.1-0.2,0.1-0.3,0.2c0-0.1,0-0.1,0-0.1c0-0.1,0.1-0.2,0.1-0.3
			c0,0,0-0.1,0-0.1c-0.1-0.1-0.2-0.2-0.4-0.3c0,0,0,0,0,0c0,0,0,0,0.1,0c0.1,0,0.3,0,0.4,0c0,0,0.1,0,0.1-0.1c0-0.1,0.1-0.3,0.1-0.4
			c0,0,0,0,0,0c0,0.2,0.1,0.3,0.1,0.4c0,0,0,0.1,0.1,0.1c0.1,0,0.3,0,0.4,0c0,0,0,0,0.1,0c0,0,0,0,0,0
			C668.9,382.4,668.8,382.5,668.7,382.6C668.7,382.6,668.6,382.6,668.7,382.6z M670.4,381c-0.3,0.2-0.7,0.3-1.1,0.4
			c-0.5,0.1-0.9,0.1-1.4,0.1c-1.1-0.1-2-0.5-2.7-1.3c-0.5-0.5-0.9-1-1.1-1.7c0,0,0-0.1-0.1-0.1c-0.4,0-0.8,0-1.2,0c0,0,0,0,0,0
			c0.1-0.1,0.1-0.2,0.2-0.4c0.1-0.2,0.2-0.4,0.3-0.6c0,0,0-0.1,0.1-0.1c0.2,0,0.4,0,0.6,0c0,0,0.1,0,0,0c0-0.1,0-0.3,0-0.4
			c0,0,0-0.1-0.1-0.1c-0.3,0-0.7,0-1,0c-0.1,0-0.1,0,0-0.1c0.1-0.3,0.3-0.6,0.4-0.9c0,0,0-0.1,0.1-0.1c0.2,0,0.5,0,0.7,0
			c0,0,0.1,0,0.1-0.1c0.3-1,0.8-1.8,1.6-2.4c0.5-0.4,1.1-0.7,1.8-0.8c0.4-0.1,0.8-0.1,1.2-0.1c0.7,0,1.3,0.2,1.9,0.5
			c0.1,0,0.1,0,0,0.1c-0.4,0.2-0.7,0.5-1,0.9c0,0,0,0-0.1,0c-0.4-0.1-0.8-0.2-1.2-0.2c-1.2,0.1-2.3,0.8-2.7,1.9c0,0.1,0,0.1,0,0.1
			c0.6,0,1.3,0,1.9,0c0.1,0,0.1,0,0.1,0.1c0,0.3,0,0.6,0,0.9c0,0.1,0,0.1-0.1,0.1c-0.7,0-1.4,0-2.1,0c-0.1,0-0.1,0-0.1,0.1
			c0,0.1,0,0.2,0,0.4c0,0,0,0,0.1,0c0.1,0,0.2,0,0.3,0c0.6,0,1.2,0,1.7,0c0,0,0.1,0,0.1,0.1c0,0.3,0,0.6,0,0.9c0,0.1,0,0.1-0.1,0.1
			c-0.6,0-1.1,0-1.7,0c-0.1,0-0.1,0,0,0.1c0.4,0.8,1.1,1.3,1.9,1.5c0.4,0.1,0.8,0.1,1.2,0.1c0.2,0,0.4-0.1,0.6-0.2c0,0,0.1,0,0.1,0
			C669.7,380.4,670,380.7,670.4,381C670.5,381,670.5,381,670.4,381z M672,382.5c0,0,0,0.1,0,0.1c0,0.1,0.1,0.3,0.1,0.4
			c-0.1-0.1-0.2-0.1-0.3-0.2c-0.1,0-0.1-0.1-0.2-0.1c-0.1,0-0.1,0.1-0.2,0.1c-0.1,0.1-0.2,0.1-0.3,0.2c0,0,0,0,0,0
			c0-0.1,0.1-0.2,0.1-0.3c0-0.1,0.1-0.1,0-0.2c0,0-0.1-0.1-0.1-0.1c-0.1-0.1-0.2-0.1-0.3-0.2c0,0,0,0,0.1,0c0.1,0,0.3,0,0.4,0
			c0,0,0.1,0,0.1-0.1c0-0.1,0.1-0.3,0.1-0.4c0,0,0,0,0-0.1c0,0.1,0.1,0.3,0.1,0.4c0,0.1,0,0.1,0.1,0.1c0.1,0,0.2,0,0.4,0
			c0,0,0,0,0.1,0C672.2,382.4,672.1,382.5,672,382.5z M675.5,381.9c-0.1,0.1-0.2,0.2-0.3,0.2c0,0-0.1,0.1,0,0.1
			c0,0.1,0.1,0.3,0.1,0.4c0,0,0,0,0,0.1c-0.1-0.1-0.2-0.1-0.2-0.2c0,0-0.1-0.1-0.1-0.1c0,0-0.1,0-0.1,0c-0.1,0.1-0.2,0.2-0.3,0.2
			c0,0,0,0-0.1,0c0-0.1,0-0.2,0.1-0.2c0-0.1,0-0.1,0.1-0.2c0-0.1,0-0.1,0-0.1c-0.1-0.1-0.2-0.2-0.3-0.2c0,0,0,0,0,0
			c0.1,0,0.2,0,0.3,0c0,0,0.1,0,0.1,0c0.1,0,0.1,0,0.1-0.1c0-0.1,0.1-0.2,0.1-0.3c0,0,0-0.1,0-0.1c0,0.1,0.1,0.3,0.1,0.4
			c0,0,0,0.1,0.1,0.1C675.2,381.8,675.4,381.8,675.5,381.9C675.5,381.8,675.5,381.9,675.5,381.9z M672.8,381.3
			c-2.3,0-4.2-1.9-4.2-4.2c0-2.3,1.9-4.2,4.2-4.2c2.3,0,4.2,1.9,4.2,4.2C677,379.4,675.1,381.3,672.8,381.3z M677.6,379.7
			c0,0-0.1,0.1-0.1,0.1c0,0,0,0,0,0.1c0.1,0.1,0.1,0.3,0.1,0.4c0,0,0,0,0,0c-0.1-0.1-0.2-0.2-0.4-0.3c0,0-0.1,0-0.1,0
			c-0.1,0.1-0.2,0.2-0.3,0.2c0,0,0,0,0,0c0-0.1,0.1-0.2,0.1-0.3c0.1-0.2,0.1-0.2-0.1-0.3c-0.1-0.1-0.2-0.1-0.3-0.2c0,0,0,0,0,0
			c0.1,0,0.3,0,0.4,0c0,0,0.1,0,0.1-0.1c0-0.1,0.1-0.3,0.1-0.4c0,0,0,0,0,0c0,0.1,0.1,0.2,0.1,0.3c0,0.1,0,0.1,0.1,0.2
			c0,0,0.1,0,0.2,0c0.1,0,0.2,0,0.3,0c0,0,0,0,0,0C677.8,379.6,677.7,379.7,677.6,379.7z M678.4,376.2c-0.1,0.1-0.2,0.1-0.3,0.2
			c0,0,0,0,0,0.1c0,0.1,0.1,0.3,0.1,0.4c0,0,0,0,0,0c-0.1-0.1-0.2-0.2-0.3-0.2c-0.1-0.1-0.1-0.1-0.2,0c-0.1,0.1-0.2,0.1-0.3,0.2
			c0,0,0,0-0.1,0c0,0,0,0,0-0.1c0-0.1,0.1-0.3,0.1-0.4c0,0,0-0.1,0-0.1c-0.1-0.1-0.2-0.2-0.4-0.3c0,0,0,0,0,0c0.1,0,0.3,0,0.4,0
			c0.1,0,0.1,0,0.2-0.1c0-0.1,0.1-0.2,0.1-0.4c0,0,0,0,0,0.1c0,0.1,0.1,0.3,0.1,0.4c0,0,0,0.1,0.1,0
			C678.1,376.2,678.3,376.2,678.4,376.2C678.4,376.2,678.5,376.2,678.4,376.2C678.5,376.2,678.5,376.2,678.4,376.2
			C678.5,376.2,678.4,376.2,678.4,376.2z"/>
		<path class="st2" d="M672.8,373.3c-2.1,0-3.8,1.7-3.8,3.9c0,2.1,1.7,3.9,3.9,3.8c2.1,0,3.8-1.7,3.8-3.9
			C676.7,375,674.9,373.3,672.8,373.3z M672.8,380.2c-1.7,0-3-1.4-3-3c0-1.7,1.4-3,3-3c1.7,0,3,1.4,3,3
			C675.9,378.8,674.5,380.2,672.8,380.2z"/>
		<path class="st2" d="M674.5,377.2c-0.1-0.1-0.2-0.1-0.4-0.2c0,0,0,0,0,0c0,0,0,0,0,0c0.2-0.1,0.3-0.3,0.3-0.6
			c0-0.3-0.1-0.6-0.4-0.8c-0.2-0.1-0.4-0.1-0.7-0.2c0,0-0.1,0-0.1-0.1c0-0.2,0-0.4,0-0.6c0-0.1,0-0.1-0.1-0.1c-0.1,0-0.2,0-0.3,0
			c0,0-0.1,0-0.1,0.1c0,0.2,0,0.4,0,0.6c0,0,0,0.1-0.1,0.1c-0.1,0-0.2,0-0.3,0c-0.1,0-0.1,0-0.1-0.1c0-0.2,0-0.4,0-0.6
			c0,0,0-0.1-0.1-0.1c-0.1,0-0.2,0-0.3,0c0,0-0.1,0-0.1,0.1c0,0.2,0,0.4,0,0.6c0,0.1,0,0.1-0.1,0.1c-0.3,0-0.5,0-0.8,0
			c0,0-0.1,0-0.1,0.1c0,0.1,0,0.2,0,0.4c0,0,0,0.1,0.1,0.1c0.1,0,0.2,0,0.3,0c0.2,0,0.3,0.1,0.3,0.3c0,0.3,0,0.6,0,1
			c0,0.3,0,0.7,0,1c0,0.1-0.1,0.2-0.2,0.2c-0.1,0-0.2,0-0.3,0c0,0-0.1,0-0.1,0c0,0.1,0,0.3-0.1,0.4c0,0.1,0,0.1,0.1,0.1
			c0.3,0,0.5,0,0.8,0c0.1,0,0.1,0,0.1,0.1c0,0.2,0,0.4,0,0.6c0,0,0,0.1,0.1,0.1c0.1,0,0.2,0,0.3,0c0,0,0.1,0,0.1-0.1
			c0-0.2,0-0.4,0-0.6c0,0,0-0.1,0.1-0.1c0.1,0,0.2,0,0.3,0c0,0,0.1,0,0.1,0.1c0,0.2,0,0.4,0,0.6c0,0.1,0,0.1,0.1,0.1
			c0.1,0,0.2,0,0.3,0c0.1,0,0.1,0,0.1-0.1c0-0.2,0-0.4,0-0.6c0,0,0-0.1,0.1-0.1c0.1,0,0.1,0,0.2,0c0.2,0,0.4-0.1,0.6-0.1
			c0.2-0.1,0.3-0.2,0.4-0.4c0.1-0.2,0.1-0.5,0.1-0.8C674.7,377.4,674.7,377.3,674.5,377.2z M672.6,375.9c0.2,0,0.4,0,0.5,0
			c0.1,0,0.3,0.1,0.4,0.2c0.2,0.2,0.1,0.5-0.1,0.6c-0.3,0.1-0.5,0.1-0.8,0.1c0,0,0,0,0-0.1c0-0.1,0-0.3,0-0.4
			C672.6,376.2,672.6,376.1,672.6,375.9C672.6,375.9,672.6,375.9,672.6,375.9z M673.7,378.1c-0.1,0.1-0.2,0.1-0.4,0.1
			c-0.2,0-0.4,0-0.7,0c-0.1,0-0.1,0-0.1-0.1c0-0.1,0-0.3,0-0.4c0-0.1,0-0.3,0-0.4c0,0,0-0.1,0.1-0.1c0.2,0,0.4,0,0.6,0
			c0.1,0,0.3,0.1,0.4,0.1C673.9,377.6,673.9,378,673.7,378.1z"/>
	</g>
	<g>
		<path class="st2" d="M669.9,389.8c-7,0-12.8-5.7-12.8-12.8c0-7,5.7-12.8,12.8-12.8s12.8,5.7,12.8,12.8
			C682.7,384,677,389.8,669.9,389.8z M669.9,365.7c-6.2,0-11.3,5.1-11.3,11.3c0,6.2,5.1,11.3,11.3,11.3c6.2,0,11.3-5.1,11.3-11.3
			C681.2,370.8,676.2,365.7,669.9,365.7z"/>
	</g>
</g>
</svg>
