<?xml version="1.0" encoding="utf-8"?>
<!-- Generator: Adobe Illustrator 16.0.0, SVG Export Plug-In . SVG Version: 6.00 Build 0)  -->
<!DOCTYPE svg PUBLIC "-//W3C//DTD SVG 1.0//EN" "http://www.w3.org/TR/2001/REC-SVG-20010904/DTD/svg10.dtd">
<svg version="1.0" id="Layer_1" xmlns="http://www.w3.org/2000/svg" xmlns:xlink="http://www.w3.org/1999/xlink" x="0px" y="0px"
	 width="174.984px" height="56.55px" viewBox="0 0 174.984 56.55" enable-background="new 0 0 174.984 56.55" xml:space="preserve">
<g>
	<path fill="#FAA61A" d="M26.146,34.082h-6.658C19.49,15.644,35.803,0.543,56.033,0l-0.01,0.009
		C39.465,0.671,26.146,15.72,26.146,34.082 M33.696,34.082h-6.133c0-18.339,12.682-33.375,28.458-34.069l-0.014,0.013
		C43.616,0.904,33.696,15.863,33.696,34.082z"/>
	<polygon fill="#0D4689" points="0.002,0.847 14.292,0.847 33.7,34.462 19.411,34.462 	"/>
	<g>
		<path fill="#0D4689" d="M53.097,34.466l-7.01-21.875h5.42l2.662,9.25c0.747,2.596,1.428,5.095,1.947,7.823h0.097
			c0.552-2.629,1.232-5.227,1.979-7.726l2.791-9.347h5.259l-7.367,21.875H53.097z"/>
	</g>
	<g>
		<path fill="#0D4689" d="M75.098,24.308v3.278h-8.503v-3.278H75.098z"/>
	</g>
	<g>
		<path fill="#0D4689" d="M89.182,34.466l-1.979-3.959c-0.813-1.525-1.331-2.662-1.947-3.927H85.19
			c-0.455,1.266-1.006,2.402-1.688,3.927l-1.817,3.959h-5.646l6.329-11.067l-6.103-10.808h5.68l1.915,3.992
			c0.649,1.331,1.137,2.401,1.655,3.635h0.065c0.52-1.396,0.94-2.369,1.493-3.635l1.85-3.992h5.647L88.403,23.27l6.492,11.196
			H89.182L89.182,34.466z"/>
	</g>
	<g>
		<path fill="#0D4689" d="M97.292,23.919c0-2.077-0.064-3.862-0.129-5.323h4.282l0.229,2.207h0.063
			c1.169-1.688,2.986-2.564,5.291-2.564c3.474,0,6.589,3.018,6.589,8.081c0,5.777-3.668,8.504-7.205,8.504
			c-1.916,0-3.408-0.779-4.123-1.818h-0.064v7.887h-4.934V23.919z M102.225,27.651c0,0.389,0.033,0.746,0.099,1.039
			c0.323,1.331,1.461,2.337,2.889,2.337c2.143,0,3.408-1.785,3.408-4.479c0-2.532-1.138-4.447-3.345-4.447
			c-1.395,0-2.629,1.039-2.952,2.5c-0.064,0.259-0.099,0.584-0.099,0.876V27.651L102.225,27.651z"/>
		<path fill="#0D4689" d="M116.696,23.821c0-2.337-0.063-3.862-0.129-5.225h4.252l0.162,2.921h0.129
			c0.813-2.304,2.761-3.278,4.285-3.278c0.453,0,0.683,0,1.039,0.065v4.641c-0.356-0.065-0.779-0.13-1.332-0.13
			c-1.815,0-3.051,0.974-3.375,2.499c-0.063,0.324-0.098,0.714-0.098,1.104v8.048h-4.935L116.696,23.821L116.696,23.821z"/>
	</g>
	<g>
		<path fill="#0D4689" d="M132.567,28.105c0.162,2.044,2.175,3.02,4.479,3.02c1.688,0,3.051-0.229,4.381-0.65l0.648,3.344
			c-1.621,0.648-3.603,0.973-5.744,0.973c-5.388,0-8.472-3.115-8.472-8.081c0-4.024,2.5-8.471,8.019-8.471
			c5.127,0,7.074,3.992,7.074,7.919c0,0.844-0.099,1.59-0.162,1.947H132.567z M138.375,24.73c0-1.201-0.521-3.213-2.791-3.213
			c-2.076,0-2.922,1.882-3.051,3.213H138.375z"/>
		<path fill="#0D4689" d="M145.87,30.15c0.907,0.553,2.791,1.201,4.252,1.201c1.491,0,2.108-0.52,2.108-1.33
			c0-0.813-0.487-1.201-2.338-1.818c-3.276-1.104-4.543-2.889-4.51-4.771c0-2.954,2.531-5.193,6.457-5.193
			c1.852,0,3.506,0.422,4.479,0.909l-0.877,3.408c-0.715-0.39-2.077-0.909-3.44-0.909c-1.199,0-1.881,0.487-1.881,1.298
			c0,0.746,0.614,1.136,2.563,1.817c3.021,1.039,4.285,2.564,4.316,4.901c0,2.953-2.336,5.127-6.879,5.127
			c-2.078,0-3.929-0.453-5.129-1.104L145.87,30.15z"/>
		<path fill="#0D4689" d="M159.952,30.15c0.909,0.553,2.791,1.201,4.252,1.201c1.494,0,2.108-0.52,2.108-1.33
			c0-0.813-0.485-1.201-2.336-1.818c-3.279-1.104-4.545-2.889-4.512-4.771c0-2.954,2.531-5.193,6.459-5.193
			c1.85,0,3.506,0.422,4.479,0.909l-0.877,3.408c-0.713-0.39-2.075-0.909-3.438-0.909c-1.201,0-1.883,0.487-1.883,1.298
			c0,0.746,0.616,1.136,2.563,1.817c3.019,1.039,4.283,2.564,4.316,4.901c0,2.953-2.336,5.127-6.881,5.127
			c-2.076,0-3.929-0.453-5.127-1.104L159.952,30.15z"/>
	</g>
	<polygon fill="#0D4689" points="0,45.191 159.903,45.191 164.059,50.789 159.977,56.361 0,56.361 3.605,50.787 	"/>
	<polygon fill="#FAA61A" points="161.522,45.191 163.807,45.191 168.2,50.802 163.807,56.361 161.522,56.361 165.139,50.787 	"/>
	<polygon fill="#0D4689" points="165.649,45.191 167.934,45.191 172.313,50.787 167.934,56.361 165.649,56.361 169.266,50.787 	"/>
	<path fill="#2E3192" d="M172.401,17.656h0.433c0.207,0,0.348-0.032,0.424-0.093s0.113-0.143,0.113-0.245
		c0-0.065-0.019-0.124-0.056-0.176c-0.037-0.052-0.086-0.091-0.149-0.116c-0.064-0.026-0.187-0.038-0.359-0.038h-0.404
		L172.401,17.656L172.401,17.656z M172.042,18.901v-2.212h0.762c0.26,0,0.447,0.019,0.564,0.06c0.114,0.041,0.207,0.113,0.276,0.214
		c0.068,0.103,0.104,0.21,0.104,0.325c0,0.161-0.058,0.303-0.174,0.422c-0.115,0.121-0.269,0.188-0.459,0.202
		c0.077,0.032,0.143,0.072,0.188,0.117c0.09,0.087,0.199,0.233,0.328,0.439l0.27,0.433h-0.436l-0.197-0.349
		c-0.153-0.273-0.276-0.446-0.373-0.515c-0.065-0.051-0.16-0.076-0.287-0.076h-0.207v0.94H172.042z M172.944,16.047
		c-0.289,0-0.569,0.075-0.844,0.223c-0.273,0.148-0.485,0.36-0.643,0.634c-0.154,0.276-0.23,0.563-0.23,0.861
		c0,0.296,0.076,0.58,0.229,0.852c0.149,0.272,0.362,0.484,0.637,0.636c0.271,0.151,0.557,0.228,0.852,0.228
		c0.298,0,0.582-0.076,0.854-0.228s0.484-0.364,0.637-0.636c0.148-0.271,0.226-0.556,0.226-0.852c0-0.298-0.076-0.585-0.23-0.861
		c-0.152-0.274-0.367-0.486-0.641-0.634C173.512,16.122,173.231,16.047,172.944,16.047z M172.944,15.707
		c0.347,0,0.685,0.088,1.013,0.265c0.33,0.178,0.586,0.431,0.77,0.762c0.183,0.33,0.275,0.673,0.275,1.032
		c0,0.354-0.092,0.695-0.271,1.022c-0.182,0.328-0.436,0.582-0.76,0.762c-0.328,0.181-0.668,0.271-1.025,0.271
		c-0.354,0-0.696-0.09-1.022-0.271c-0.326-0.181-0.58-0.435-0.762-0.762c-0.183-0.327-0.273-0.667-0.273-1.022
		c0-0.358,0.094-0.702,0.277-1.032c0.186-0.331,0.44-0.584,0.771-0.762C172.262,15.795,172.598,15.707,172.944,15.707z"/>
	<path fill="#0D4689" d="M173.643,45.208h0.289v2.166h-0.313V45.69l-0.666,0.836h-0.058l-0.674-0.836v1.685h-0.311v-2.166h0.293
		l0.721,0.891L173.643,45.208z M169.819,45.205h1.81v0.277h-0.756v1.893h-0.312v-1.893h-0.742V45.205z"/>
	<g>
		<path fill="#FFFFFF" stroke="#FFFFFF" stroke-width="0.35" stroke-miterlimit="10" d="M7.762,52.535
			c0.333,0.19,0.832,0.356,1.355,0.356c0.656,0,1.022-0.308,1.022-0.765c0-0.426-0.283-0.674-0.998-0.933
			c-0.923-0.333-1.513-0.823-1.513-1.63c0-0.915,0.765-1.613,1.979-1.613c0.607,0,1.057,0.133,1.348,0.282l-0.25,0.823
			c-0.2-0.107-0.59-0.266-1.114-0.266c-0.648,0-0.931,0.35-0.931,0.674c0,0.432,0.323,0.632,1.072,0.923
			c0.974,0.366,1.447,0.856,1.447,1.663c0,0.898-0.682,1.68-2.129,1.68c-0.59,0-1.206-0.166-1.514-0.35L7.762,52.535z"/>
		<path fill="#FFFFFF" stroke="#FFFFFF" stroke-width="0.35" stroke-miterlimit="10" d="M14.335,53.648l-0.067-0.449h-0.024
			c-0.25,0.316-0.674,0.541-1.197,0.541c-0.815,0-1.272-0.591-1.272-1.205c0-1.023,0.906-1.539,2.403-1.531v-0.065
			c0-0.267-0.108-0.707-0.823-0.707c-0.398,0-0.814,0.125-1.089,0.3l-0.2-0.666c0.3-0.183,0.823-0.357,1.464-0.357
			c1.298,0,1.672,0.824,1.672,1.705v1.465c0,0.365,0.017,0.724,0.058,0.973h-0.923V53.648z M14.202,51.667
			c-0.725-0.017-1.414,0.143-1.414,0.758c0,0.398,0.258,0.582,0.582,0.582c0.407,0,0.707-0.266,0.798-0.557
			c0.024-0.076,0.033-0.158,0.033-0.226L14.202,51.667L14.202,51.667z"/>
		<path fill="#FFFFFF" stroke="#FFFFFF" stroke-width="0.35" stroke-miterlimit="10" d="M16.393,53.648v-3.285h-0.549v-0.765h0.549
			v-0.175c0-0.523,0.143-1.049,0.491-1.381c0.299-0.283,0.707-0.392,1.056-0.392c0.274,0,0.491,0.042,0.657,0.101l-0.075,0.789
			c-0.107-0.041-0.249-0.074-0.432-0.074c-0.507,0-0.682,0.425-0.682,0.924v0.208h0.89v0.765h-0.882v3.285H16.393z"/>
		<path fill="#FFFFFF" stroke="#FFFFFF" stroke-width="0.35" stroke-miterlimit="10" d="M19.646,51.91
			c0.025,0.732,0.6,1.049,1.247,1.049c0.475,0,0.815-0.066,1.123-0.184l0.149,0.707c-0.35,0.141-0.832,0.249-1.414,0.249
			c-1.314,0-2.087-0.808-2.087-2.046c0-1.122,0.682-2.18,1.979-2.18c1.313,0,1.746,1.082,1.746,1.972
			c0,0.19-0.017,0.342-0.033,0.433H19.646z M21.426,51.195c0.009-0.374-0.158-0.988-0.84-0.988c-0.632,0-0.898,0.572-0.939,0.988
			H21.426z"/>
		<path fill="#FFFFFF" stroke="#FFFFFF" stroke-width="0.35" stroke-miterlimit="10" d="M27.203,53.648l-0.067-0.449h-0.025
			c-0.25,0.316-0.673,0.541-1.196,0.541c-0.815,0-1.272-0.591-1.272-1.205c0-1.023,0.906-1.539,2.403-1.531v-0.065
			c0-0.267-0.108-0.707-0.823-0.707c-0.398,0-0.814,0.125-1.089,0.3l-0.2-0.666c0.299-0.183,0.823-0.357,1.464-0.357
			c1.297,0,1.671,0.824,1.671,1.705v1.465c0,0.365,0.018,0.724,0.059,0.973h-0.923V53.648z M27.069,51.667
			c-0.724-0.017-1.414,0.143-1.414,0.758c0,0.398,0.259,0.582,0.582,0.582c0.408,0,0.707-0.266,0.799-0.557
			c0.024-0.076,0.032-0.158,0.032-0.226L27.069,51.667L27.069,51.667z"/>
		<path fill="#FFFFFF" stroke="#FFFFFF" stroke-width="0.35" stroke-miterlimit="10" d="M29.144,50.804
			c0-0.467-0.008-0.855-0.033-1.206h0.898l0.05,0.606h0.025c0.174-0.315,0.615-0.699,1.289-0.699c0.707,0,1.438,0.459,1.438,1.738
			v2.403h-1.022V51.36c0-0.582-0.216-1.022-0.773-1.022c-0.407,0-0.689,0.291-0.798,0.6c-0.033,0.092-0.042,0.216-0.042,0.333v2.378
			h-1.031L29.144,50.804L29.144,50.804z"/>
		<path fill="#FFFFFF" stroke="#FFFFFF" stroke-width="0.35" stroke-miterlimit="10" d="M37.63,47.744v4.766
			c0,0.416,0.017,0.865,0.033,1.14h-0.915l-0.042-0.642H36.69c-0.24,0.449-0.731,0.732-1.321,0.732c-0.966,0-1.73-0.822-1.73-2.07
			c-0.008-1.355,0.84-2.162,1.813-2.162c0.557,0,0.956,0.232,1.139,0.531h0.017v-2.295H37.63L37.63,47.744z M36.607,51.287
			c0-0.084-0.008-0.184-0.024-0.267c-0.091-0.399-0.416-0.724-0.881-0.724c-0.657,0-1.023,0.582-1.023,1.338
			c0,0.74,0.366,1.281,1.015,1.281c0.416,0,0.782-0.283,0.882-0.724c0.024-0.092,0.032-0.19,0.032-0.3V51.287z"/>
		<path fill="#FFFFFF" stroke="#FFFFFF" stroke-width="0.35" stroke-miterlimit="10" d="M40.479,48.119
			c0.383-0.066,0.957-0.117,1.547-0.117c0.808,0,1.355,0.133,1.73,0.449c0.308,0.258,0.481,0.648,0.481,1.123
			c0,0.723-0.489,1.215-1.014,1.404v0.025c0.399,0.148,0.641,0.541,0.781,1.08c0.175,0.699,0.325,1.349,0.44,1.563H43.39
			c-0.083-0.166-0.216-0.624-0.374-1.321c-0.158-0.732-0.424-0.966-1.006-0.982h-0.516v2.305h-1.016V48.119z M41.494,50.596h0.606
			c0.69,0,1.123-0.366,1.123-0.923c0-0.616-0.433-0.898-1.098-0.898c-0.324,0-0.532,0.023-0.632,0.051V50.596z"/>
		<path fill="#FFFFFF" stroke="#FFFFFF" stroke-width="0.35" stroke-miterlimit="10" d="M45.889,51.91
			c0.025,0.732,0.599,1.049,1.247,1.049c0.474,0,0.815-0.066,1.123-0.184l0.149,0.707c-0.35,0.141-0.832,0.249-1.414,0.249
			c-1.314,0-2.087-0.808-2.087-2.046c0-1.122,0.682-2.18,1.979-2.18c1.313,0,1.746,1.082,1.746,1.972
			c0,0.19-0.017,0.342-0.033,0.433H45.889z M47.668,51.195c0.009-0.374-0.158-0.988-0.84-0.988c-0.633,0-0.898,0.572-0.939,0.988
			H47.668z"/>
		<path fill="#FFFFFF" stroke="#FFFFFF" stroke-width="0.35" stroke-miterlimit="10" d="M49.452,47.744h1.03v5.904h-1.03V47.744z"/>
		<path fill="#FFFFFF" stroke="#FFFFFF" stroke-width="0.35" stroke-miterlimit="10" d="M52.671,48.466
			c0,0.309-0.226,0.55-0.582,0.55c-0.341,0-0.565-0.241-0.565-0.55c0-0.315,0.233-0.557,0.574-0.557
			C52.447,47.91,52.663,48.151,52.671,48.466z M51.582,53.648v-4.05h1.03v4.05H51.582z"/>
		<path fill="#FFFFFF" stroke="#FFFFFF" stroke-width="0.35" stroke-miterlimit="10" d="M55.983,53.648l-0.066-0.449h-0.025
			c-0.25,0.316-0.673,0.541-1.197,0.541c-0.814,0-1.271-0.591-1.271-1.205c0-1.023,0.906-1.539,2.403-1.531v-0.065
			c0-0.267-0.108-0.707-0.823-0.707c-0.399,0-0.815,0.125-1.089,0.3l-0.2-0.666c0.299-0.183,0.823-0.357,1.464-0.357
			c1.297,0,1.671,0.824,1.671,1.705v1.465c0,0.365,0.018,0.724,0.059,0.973h-0.924V53.648z M55.85,51.667
			c-0.724-0.017-1.414,0.143-1.414,0.758c0,0.398,0.258,0.582,0.582,0.582c0.408,0,0.707-0.266,0.798-0.557
			c0.025-0.076,0.033-0.158,0.033-0.226L55.85,51.667L55.85,51.667z"/>
		<path fill="#FFFFFF" stroke="#FFFFFF" stroke-width="0.35" stroke-miterlimit="10" d="M57.891,53.648
			c0.018-0.273,0.033-0.725,0.033-1.141v-4.764h1.022v2.41h0.018c0.25-0.391,0.689-0.648,1.297-0.648
			c0.99,0,1.696,0.824,1.688,2.056c0,1.455-0.924,2.179-1.839,2.179c-0.523,0-0.988-0.199-1.28-0.699h-0.018l-0.05,0.607H57.891z
			 M58.947,51.976c0,0.084,0.009,0.167,0.025,0.24c0.108,0.408,0.466,0.717,0.906,0.717c0.641,0,1.031-0.516,1.031-1.331
			c0-0.715-0.342-1.297-1.023-1.297c-0.416,0-0.79,0.299-0.906,0.748c-0.017,0.075-0.033,0.165-0.033,0.267V51.976z"/>
		<path fill="#FFFFFF" stroke="#FFFFFF" stroke-width="0.35" stroke-miterlimit="10" d="M62.785,47.744h1.03v5.904h-1.03V47.744z"/>
		<path fill="#FFFFFF" stroke="#FFFFFF" stroke-width="0.35" stroke-miterlimit="10" d="M65.639,51.91
			c0.025,0.732,0.599,1.049,1.247,1.049c0.474,0,0.815-0.066,1.123-0.184l0.149,0.707c-0.35,0.141-0.832,0.249-1.414,0.249
			c-1.314,0-2.087-0.808-2.087-2.046c0-1.122,0.682-2.18,1.979-2.18c1.313,0,1.746,1.082,1.746,1.972
			c0,0.19-0.017,0.342-0.033,0.433H65.639z M67.418,51.195c0.008-0.374-0.158-0.988-0.84-0.988c-0.633,0-0.898,0.572-0.939,0.988
			H67.418z"/>
		<path fill="#FFFFFF" stroke="#FFFFFF" stroke-width="0.35" stroke-miterlimit="10" d="M72.738,51.08v0.707h-2.12V51.08H72.738z"/>
		<path fill="#FFFFFF" stroke="#FFFFFF" stroke-width="0.35" stroke-miterlimit="10" d="M75.286,48.042h3.234v0.84h-2.212v1.547
			h2.063v0.841h-2.063v2.378h-1.022V48.042z"/>
		<path fill="#FFFFFF" stroke="#FFFFFF" stroke-width="0.35" stroke-miterlimit="10" d="M83.323,51.585
			c0,1.488-1.049,2.154-2.079,2.154c-1.148,0-2.029-0.791-2.029-2.089c0-1.33,0.873-2.146,2.096-2.146
			C82.516,49.505,83.323,50.355,83.323,51.585z M80.271,51.626c0,0.781,0.383,1.373,1.006,1.373c0.582,0,0.99-0.574,0.99-1.39
			c0-0.633-0.283-1.354-0.98-1.354C80.562,50.255,80.271,50.955,80.271,51.626z"/>
		<path fill="#FFFFFF" stroke="#FFFFFF" stroke-width="0.35" stroke-miterlimit="10" d="M84.158,50.904
			c0-0.549-0.009-0.939-0.033-1.306h0.89l0.033,0.772h0.034c0.198-0.574,0.673-0.865,1.105-0.865c0.101,0,0.158,0.01,0.241,0.025
			v0.965c-0.083-0.017-0.175-0.033-0.3-0.033c-0.49,0-0.823,0.315-0.915,0.772c-0.018,0.093-0.033,0.2-0.033,0.315v2.097h-1.022
			V50.904z"/>
		<path fill="#FFFFFF" stroke="#FFFFFF" stroke-width="0.35" stroke-miterlimit="10" d="M90.141,53.648v-2.337l-1.771-3.269h1.164
			l0.674,1.438c0.19,0.415,0.332,0.731,0.481,1.114h0.019c0.141-0.357,0.299-0.707,0.49-1.114l0.674-1.438h1.153l-1.86,3.244v2.36
			L90.141,53.648L90.141,53.648z"/>
		<path fill="#FFFFFF" stroke="#FFFFFF" stroke-width="0.35" stroke-miterlimit="10" d="M97.456,51.585
			c0,1.488-1.049,2.154-2.08,2.154c-1.146,0-2.029-0.791-2.029-2.089c0-1.33,0.873-2.146,2.096-2.146
			C96.649,49.505,97.456,50.355,97.456,51.585z M94.403,51.626c0,0.781,0.384,1.373,1.007,1.373c0.582,0,0.989-0.574,0.989-1.39
			c0-0.633-0.282-1.354-0.981-1.354C94.694,50.255,94.403,50.955,94.403,51.626z"/>
		<path fill="#FFFFFF" stroke="#FFFFFF" stroke-width="0.35" stroke-miterlimit="10" d="M101.917,52.434
			c0,0.481,0.018,0.881,0.033,1.214h-0.898l-0.049-0.615h-0.019c-0.174,0.291-0.571,0.707-1.297,0.707
			c-0.739,0-1.414-0.441-1.414-1.764v-2.378h1.023v2.204c0,0.673,0.217,1.105,0.756,1.105c0.408,0,0.674-0.291,0.783-0.55
			c0.033-0.092,0.057-0.198,0.057-0.315v-2.444h1.023L101.917,52.434L101.917,52.434z"/>
		<path fill="#FFFFFF" stroke="#FFFFFF" stroke-width="0.35" stroke-miterlimit="10" d="M103.018,50.904
			c0-0.549-0.008-0.939-0.033-1.306h0.89l0.033,0.772h0.032c0.201-0.574,0.674-0.865,1.107-0.865c0.1,0,0.158,0.01,0.24,0.025v0.965
			c-0.082-0.017-0.175-0.033-0.3-0.033c-0.489,0-0.823,0.315-0.913,0.772c-0.019,0.093-0.035,0.2-0.035,0.315v2.097h-1.021V50.904
			L103.018,50.904z"/>
		<path fill="#FFFFFF" stroke="#FFFFFF" stroke-width="0.35" stroke-miterlimit="10" d="M107.729,48.119
			c0.365-0.066,0.873-0.117,1.564-0.117c0.748,0,1.297,0.158,1.653,0.457c0.332,0.274,0.55,0.717,0.55,1.24
			c0,0.531-0.166,0.973-0.482,1.271c-0.408,0.406-1.049,0.599-1.771,0.599c-0.191,0-0.365-0.008-0.498-0.032v2.111h-1.017V48.119z
			 M108.745,50.729c0.123,0.033,0.291,0.042,0.498,0.042c0.766,0,1.229-0.375,1.229-1.031c0-0.623-0.432-0.957-1.139-0.957
			c-0.283,0-0.482,0.025-0.59,0.051L108.745,50.729L108.745,50.729z"/>
		<path fill="#FFFFFF" stroke="#FFFFFF" stroke-width="0.35" stroke-miterlimit="10" d="M113.055,51.91
			c0.023,0.732,0.598,1.049,1.246,1.049c0.475,0,0.816-0.066,1.123-0.184l0.15,0.707c-0.351,0.141-0.832,0.249-1.414,0.249
			c-1.314,0-2.089-0.808-2.089-2.046c0-1.122,0.683-2.18,1.98-2.18c1.313,0,1.746,1.082,1.746,1.972c0,0.19-0.019,0.342-0.033,0.433
			H113.055z M114.834,51.195c0.008-0.374-0.158-0.988-0.84-0.988c-0.634,0-0.898,0.572-0.939,0.988H114.834z"/>
		<path fill="#FFFFFF" stroke="#FFFFFF" stroke-width="0.35" stroke-miterlimit="10" d="M118.895,53.648l-0.065-0.449h-0.023
			c-0.25,0.316-0.674,0.541-1.199,0.541c-0.813,0-1.271-0.591-1.271-1.205c0-1.023,0.906-1.539,2.404-1.531v-0.065
			c0-0.267-0.109-0.707-0.824-0.707c-0.398,0-0.814,0.125-1.09,0.3l-0.199-0.666c0.299-0.183,0.824-0.357,1.463-0.357
			c1.299,0,1.672,0.824,1.672,1.705v1.465c0,0.365,0.018,0.724,0.059,0.973h-0.926V53.648z M118.762,51.667
			c-0.723-0.017-1.414,0.143-1.414,0.758c0,0.398,0.258,0.582,0.584,0.582c0.406,0,0.705-0.266,0.797-0.557
			c0.025-0.076,0.033-0.158,0.033-0.226V51.667z"/>
		<path fill="#FFFFFF" stroke="#FFFFFF" stroke-width="0.35" stroke-miterlimit="10" d="M123.815,53.523
			c-0.217,0.1-0.641,0.208-1.147,0.208c-1.265,0-2.086-0.808-2.086-2.063c0-1.213,0.832-2.162,2.254-2.162
			c0.373,0,0.756,0.084,0.988,0.191l-0.183,0.766c-0.168-0.074-0.408-0.157-0.772-0.157c-0.783,0-1.248,0.573-1.24,1.313
			c0,0.832,0.541,1.305,1.24,1.305c0.356,0,0.604-0.073,0.807-0.157L123.815,53.523z"/>
		<path fill="#FFFFFF" stroke="#FFFFFF" stroke-width="0.35" stroke-miterlimit="10" d="M125.29,51.91
			c0.024,0.732,0.6,1.049,1.248,1.049c0.475,0,0.813-0.066,1.123-0.184l0.147,0.707c-0.35,0.141-0.83,0.249-1.414,0.249
			c-1.313,0-2.086-0.808-2.086-2.046c0-1.122,0.683-2.18,1.979-2.18c1.313,0,1.746,1.082,1.746,1.972
			c0,0.19-0.017,0.342-0.033,0.433H125.29z M127.069,51.195c0.011-0.374-0.157-0.988-0.84-0.988c-0.631,0-0.897,0.572-0.938,0.988
			H127.069z"/>
		<path fill="#FFFFFF" stroke="#FFFFFF" stroke-width="0.35" stroke-miterlimit="10" d="M134.417,51.585
			c0,1.488-1.047,2.154-2.078,2.154c-1.148,0-2.029-0.791-2.029-2.089c0-1.33,0.873-2.146,2.096-2.146
			C133.61,49.505,134.417,50.355,134.417,51.585z M131.366,51.626c0,0.781,0.381,1.373,1.006,1.373c0.582,0,0.987-0.574,0.987-1.39
			c0-0.633-0.28-1.354-0.979-1.354C131.657,50.255,131.366,50.955,131.366,51.626z"/>
		<path fill="#FFFFFF" stroke="#FFFFFF" stroke-width="0.35" stroke-miterlimit="10" d="M135.37,53.648v-3.285h-0.55v-0.765h0.55
			v-0.175c0-0.523,0.141-1.049,0.489-1.381c0.3-0.283,0.707-0.392,1.058-0.392c0.272,0,0.49,0.042,0.656,0.101l-0.074,0.789
			c-0.107-0.041-0.25-0.074-0.435-0.074c-0.506,0-0.682,0.425-0.682,0.924v0.208h0.891v0.765h-0.881v3.285H135.37z"/>
		<path fill="#FFFFFF" stroke="#FFFFFF" stroke-width="0.35" stroke-miterlimit="10" d="M144.387,51.361
			c-0.033-0.724-0.074-1.597-0.066-2.354h-0.024c-0.183,0.683-0.414,1.438-0.664,2.146l-0.814,2.429h-0.791l-0.748-2.396
			c-0.217-0.715-0.416-1.479-0.565-2.179h-0.017c-0.024,0.732-0.059,1.621-0.1,2.387l-0.125,2.254h-0.957l0.375-5.605h1.348
			l0.73,2.254c0.199,0.658,0.375,1.322,0.516,1.947h0.025c0.15-0.607,0.342-1.299,0.557-1.955l0.773-2.246h1.33l0.326,5.605h-0.998
			L144.387,51.361z"/>
		<path fill="#FFFFFF" stroke="#FFFFFF" stroke-width="0.35" stroke-miterlimit="10" d="M147.579,48.466
			c0,0.309-0.226,0.55-0.584,0.55c-0.341,0-0.564-0.241-0.564-0.55c0-0.315,0.232-0.557,0.574-0.557
			C147.354,47.91,147.569,48.151,147.579,48.466z M146.489,53.648v-4.05h1.031v4.05H146.489z"/>
		<path fill="#FFFFFF" stroke="#FFFFFF" stroke-width="0.35" stroke-miterlimit="10" d="M148.612,50.804
			c0-0.467-0.008-0.855-0.032-1.206h0.897l0.049,0.606h0.025c0.174-0.315,0.615-0.699,1.289-0.699c0.707,0,1.438,0.459,1.438,1.738
			v2.403h-1.021V51.36c0-0.582-0.217-1.022-0.773-1.022c-0.407,0-0.69,0.291-0.799,0.6c-0.033,0.092-0.041,0.216-0.041,0.333v2.378
			h-1.031L148.612,50.804L148.612,50.804z"/>
		<path fill="#FFFFFF" stroke="#FFFFFF" stroke-width="0.35" stroke-miterlimit="10" d="M157.098,47.744v4.766
			c0,0.416,0.017,0.865,0.033,1.14h-0.916l-0.041-0.642h-0.018c-0.24,0.449-0.73,0.732-1.322,0.732c-0.965,0-1.729-0.822-1.729-2.07
			c-0.008-1.355,0.84-2.162,1.813-2.162c0.557,0,0.957,0.232,1.139,0.531h0.019v-2.295H157.098L157.098,47.744z M156.075,51.287
			c0-0.084-0.009-0.184-0.025-0.267c-0.092-0.399-0.416-0.724-0.881-0.724c-0.658,0-1.023,0.582-1.023,1.338
			c0,0.74,0.365,1.281,1.015,1.281c0.416,0,0.782-0.283,0.883-0.724c0.024-0.092,0.033-0.19,0.033-0.3L156.075,51.287
			L156.075,51.287z"/>
	</g>
</g>
</svg>
